<svg width="60" height="40" viewBox="0 0 60 40" xmlns="http://www.w3.org/2000/svg">
    <g fill="none" fill-rule="evenodd">
        <rect fill="#006FCF" fill-rule="nonzero" width="60" height="40" rx="8"/>
        <path d="m21.604 21.548 1.071 1.305 1.106-1.305H60v8.205s-.947.599-2.043.607H37.902l-1.207-1.389v1.39H32.74v-2.372s-.54.331-1.709.331h-1.346v2.04h-5.989l-1.069-1.333-1.085 1.333h-9.916v-8.812h9.978zM6.128 10l1.274 2.748V10h4.826l.759 1.986.735-1.986h21.666v.998l.023-.02c.172-.139 1.272-.978 2.987-.978l7.03.023 1.252 2.712V10h4.04l1.11 1.558V10h4.077v8.813H51.83l-1.066-1.563v1.563h-5.934l-.597-1.39H42.64l-.587 1.39h-4.024c-1.61 0-2.64-.978-2.64-.978v.978H29.32l-1.204-1.39v1.39H5.552l-.596-1.39h-1.59l-.592 1.39H0v-3.907L2.245 10h3.883zM.012 17.685l3.028-6.599h2.295l3.026 6.6H6.346l-.556-1.322H2.542l-.559 1.321H.012zm5.138-2.754-.99-2.309-.993 2.31H5.15zm3.419 2.753v-6.599l2.802.01L13 15.35l1.59-4.264h2.78v6.599h-1.76v-4.862l-1.866 4.862H12.2l-1.87-4.862v4.862H8.568zm10.005 0v-6.599h5.743v1.476h-3.965v1.13h3.873v1.388h-3.873v1.172h3.965v1.433h-5.743zm6.762.001v-6.599h3.917c1.298 0 2.461.753 2.461 2.141 0 1.187-.98 1.952-1.93 2.027l2.315 2.431h-2.15l-2.111-2.344h-.742v2.344h-1.76zm3.773-5.123h-2.013v1.39h2.039c.352 0 .807-.257.807-.695 0-.34-.35-.695-.833-.695zm5.12 5.122h-1.796v-6.599h1.797v6.599zm4.262 0h-.388c-1.877 0-3.016-1.386-3.016-3.272 0-1.933 1.126-3.327 3.497-3.327h1.945v1.563h-2.016c-.963 0-1.643.704-1.643 1.78 0 1.278.778 1.815 1.899 1.815h.463l-.741 1.441zm.802.001 3.028-6.599h2.296l3.025 6.6h-2.015l-.556-1.322h-3.248l-.559 1.321h-1.971zm5.138-2.754-.99-2.309-.993 2.31h1.983zm3.416 2.753v-6.599h2.238l2.857 4.146v-4.146h1.76v6.599h-2.165l-2.93-4.254v4.254h-1.76zM12.83 29.232v-6.599h5.744v1.476h-3.965v1.129h3.872v1.389H14.61v1.172h3.965v1.433H12.83zm28.144 0v-6.599h5.743v1.476h-3.965v1.129h3.854v1.389h-3.854v1.172h3.965v1.433h-5.743zm-22.177 0 2.796-3.259-2.863-3.34h2.218l1.705 2.065 1.71-2.065h2.131l-2.825 3.3 2.802 3.299h-2.218L22.598 27.2l-1.616 2.032h-2.185zm7.883 0v-6.598h3.888c1.595 0 2.527.964 2.527 2.22 0 1.516-1.188 2.295-2.756 2.295h-1.853v2.084H26.68zm3.757-5.106h-1.95v1.52h1.945c.514 0 .874-.32.874-.76 0-.469-.362-.76-.869-.76zm3.422 5.106v-6.599h3.917c1.298 0 2.46.752 2.46 2.14 0 1.188-.98 1.952-1.93 2.028l2.316 2.43H38.47l-2.11-2.343h-.742v2.344h-1.76zm3.772-5.123H35.62v1.39h2.038c.353 0 .808-.257.808-.695 0-.341-.351-.695-.834-.695zm9.901 5.123v-1.433h3.523c.521 0 .747-.264.747-.553 0-.278-.225-.558-.747-.558h-1.592c-1.383 0-2.154-.79-2.154-1.977 0-1.058.706-2.078 2.762-2.078h3.427l-.74 1.485h-2.965c-.567 0-.741.278-.741.545 0 .273.215.575.648.575h1.668c1.542 0 2.211.82 2.211 1.894 0 1.154-.745 2.1-2.295 2.1h-3.752zm6.202 0v-1.433h3.523c.521 0 .747-.264.747-.553 0-.278-.225-.558-.747-.558h-1.592c-1.383 0-2.154-.79-2.154-1.977 0-1.058.706-2.078 2.762-2.078H59.7l-.74 1.485h-2.965c-.567 0-.741.278-.741.545 0 .273.215.575.648.575h1.668c1.542 0 2.211.82 2.211 1.894 0 1.154-.745 2.1-2.295 2.1h-3.752z" fill="#FFF"/>
    </g>
</svg>
