<svg width="60" height="40" viewBox="0 0 60 40" xmlns="http://www.w3.org/2000/svg">
    <defs>
        <linearGradient x1="119.05%" y1="34.817%" x2="34.816%" y2="-19.052%" id="eb190o36oa">
            <stop stop-color="#F6A000" offset="0%"/>
            <stop stop-color="#E47E02" offset="62.392%"/>
            <stop stop-color="#D36002" offset="100%"/>
        </linearGradient>
    </defs>
    <g fill="none" fill-rule="evenodd">
        <rect fill="#FFF" fill-rule="nonzero" width="60" height="40" rx="8"/>
        <path d="M19.546 19.866c0 2.57 2.019 4.563 4.616 4.563.735 0 1.364-.144 2.14-.51v-2.007c-.683.682-1.287.958-2.06.958-1.718 0-2.938-1.246-2.938-3.017 0-1.68 1.258-3.004 2.858-3.004.814 0 1.43.29 2.14.984v-2.007c-.75-.38-1.365-.537-2.1-.537-2.584 0-4.656 2.034-4.656 4.577zm-4.378-2.124c0 .472.3.722 1.325 1.1 1.94.71 2.515 1.34 2.515 2.73 0 1.692-1.244 2.87-3.016 2.87-1.298 0-2.242-.51-3.028-1.664l1.102-1.061c.393.759 1.048 1.166 1.862 1.166.76 0 1.324-.525 1.324-1.233 0-.368-.17-.683-.511-.906-.172-.105-.512-.262-1.18-.498-1.602-.576-2.151-1.193-2.151-2.398 0-1.431 1.18-2.506 2.727-2.506.96 0 1.837.328 2.57.97l-.892 1.168c-.445-.498-.865-.708-1.376-.708-.735 0-1.27.419-1.27.97zm-4.553 6.49h1.706v-8.745h-1.706v8.746zm-3.487-2.175c-.535.484-1.232.695-2.334.695h-.458v-5.784h.458c1.102 0 1.771.198 2.334.708.59.525.945 1.34.945 2.177 0 .84-.355 1.679-.945 2.204zm-1.992-6.57H2.632v8.745h2.49c1.325 0 2.281-.312 3.12-1.01a4.387 4.387 0 0 0 1.588-3.356c0-2.581-1.928-4.38-4.694-4.38zm32.36 0 2.331 5.874 2.363-5.874h1.849l-3.778 8.97h-.918l-3.712-8.97h1.864zm7.314 8.745h4.838v-1.48h-3.133v-2.36h3.018V18.91h-3.018v-1.941h3.133v-1.482H44.81v8.745zm7.672-4.719h.498c1.09 0 1.667-.473 1.667-1.352 0-.852-.577-1.297-1.64-1.297h-.525v2.65zm.825-4.026c1.968 0 3.095.944 3.095 2.582 0 1.339-.707 2.218-1.992 2.479l2.753 3.684h-2.098l-2.36-3.513h-.223v3.513h-1.704v-8.745h2.53z" fill="#1D1D1B"/>
        <path d="M35.43 22.397a4.652 4.652 0 1 0-7.839-5.013 4.652 4.652 0 1 0 7.839 5.013z" fill="url(#eb190o36oa)"/>
    </g>
</svg>
