<svg width="60" height="40" viewBox="0 0 60 40" xmlns="http://www.w3.org/2000/svg">
    <g fill="none" fill-rule="evenodd">
        <rect fill="#FFF" fill-rule="nonzero" width="60" height="40" rx="8"/>
        <path d="M39.317 20.436h2.723l.09.005a2.462 2.462 0 0 1 .207.026l.017.004.09.024a1.195 1.195 0 0 1 .36.187 1.223 1.223 0 0 1 .45 1.27 1.198 1.198 0 0 1-.9.907l-.017.004a.227.227 0 0 1-.028.005l-.045.007c-.03.004-.06.008-.09.01a2.15 2.15 0 0 1-.134.008h-2.723v-2.457zm3.623-2.781a1.224 1.224 0 0 1 0 .524 1.065 1.065 0 0 1-.36.598 1.118 1.118 0 0 1-.54.251l-.011.002-.034.005-.09.01-.09.004-.045.002h-2.453v-2.268h2.498a2.292 2.292 0 0 1 .214.02l.01.002a.965.965 0 0 1 .181.047 1.232 1.232 0 0 1 .36.204 1.104 1.104 0 0 1 .225.262 1.071 1.071 0 0 1 .135.338s-.012-.053 0 0v-.001zm5.579-11.759h.018v23.29a4.67 4.67 0 0 1-.738 2.517 5.738 5.738 0 0 1-.135.197l-.045.062a4.97 4.97 0 0 1-.135.173l-.045.054-.045.053-.045.05a7.266 7.266 0 0 1-.135.144l-.045.046-.045.043-.045.044a4.354 4.354 0 0 1-.27.236l-.045.037-.045.034-.045.035-.045.033-.045.032-.045.032-.045.031-.045.03-.045.03-.045.028c-.03.02-.06.038-.09.056l-.045.027-.045.026-.045.025a1.509 1.509 0 0 1-.09.048l-.045.024-.044.022-.045.022-.045.021-.045.021-.045.02-.045.02-.045.02-.045.018-.045.018-.045.017-.09.034-.045.016-.044.016a1.17 1.17 0 0 1-.046.014l-.044.014-.09.028-.045.013-.045.012-.045.012-.09.023-.045.01-.045.01-.045.01-.045.009-.044.008-.045.008-.045.008-.045.008-.09.013-.045.007-.045.005-.045.005-.045.005-.045.004-.045.004-.044.003-.09.005-.045.002-.045.002-.045.001-.09.002h-6.85v-9.495h7.251l.045-.001.045-.001.045-.002.09-.004.045-.002.09-.007.044-.003a1.37 1.37 0 0 0 .045-.005l.045-.005.045-.006.045-.006.045-.007.045-.007.09-.015.045-.009.044-.009.045-.01.046-.01v.001c.077-.018.152-.038.226-.061l.045-.014.09-.03.045-.017v.001l.09-.035.045-.018A2.573 2.573 0 0 0 46 23.96a2.57 2.57 0 0 0 .54-.372 2.308 2.308 0 0 0 .315-.352 2.097 2.097 0 0 0 .27-.528 2.146 2.146 0 0 0 .09-.98v.001a1.92 1.92 0 0 0-.54-1.095 2.043 2.043 0 0 0-.225-.203 2.616 2.616 0 0 0-.674-.388 2.207 2.207 0 0 0-.136-.052 5.12 5.12 0 0 0-.135-.046l-.045-.013-.045-.013-.045-.013a2.304 2.304 0 0 0-.225-.054l-.045-.009-.045-.008-.09-.016-.045-.007-.045-.007-.045-.006-.045-.006-.045-.005-.09-.01-.045-.003-.041-.003v-.054l.041-.007.045-.008.045-.008.045-.008.045-.01.045-.009.045-.01.045-.012v.001a2.746 2.746 0 0 0 .81-.345 2.485 2.485 0 0 0 .315-.243 2.098 2.098 0 0 0 .36-.443 1.974 1.974 0 0 0 .27-.819 2.174 2.174 0 0 0-.135-.996 1.842 1.842 0 0 0-.495-.695 2.068 2.068 0 0 0-.405-.289 2.83 2.83 0 0 0-.585-.247l-.045-.013-.09-.024-.045-.012a3.544 3.544 0 0 0-.09-.021l-.045-.01-.045-.009a1.33 1.33 0 0 1-.045-.008l-.09-.016-.09-.013-.044-.006-.045-.005-.09-.01-.045-.003-.09-.007-.045-.002-.017-.002-.028-.002-.135-.007-.09-.004-.134-.004h-6.668v-4.837a4.65 4.65 0 0 1 .952-2.82l.044-.06.046-.055.09-.108.045-.05.045-.05c.058-.064.118-.126.18-.186l.044-.044.045-.041.045-.042.045-.04.045-.039a3.67 3.67 0 0 1 .136-.112l.044-.035.045-.035.09-.066.046-.032.045-.031.045-.03.044-.03.046-.03.044-.028.045-.028.045-.026.045-.027.045-.025.045-.025.045-.024.045-.023.045-.023.045-.022.044-.022.09-.041.045-.02.045-.02.045-.018.045-.018.045-.018.09-.034.045-.015.045-.016.045-.015.09-.029.044-.014.045-.013.09-.025.045-.012.045-.01.045-.012.045-.01.045-.01.045-.008.045-.009.044-.008.045-.008.045-.008.045-.007.045-.007.045-.006.045-.005.045-.005.045-.006.045-.004.045-.003.045-.004.045-.002.044-.003.045-.002.045-.002.045-.001h.045l.045-.002h6.844z" fill="#00B517"/>
        <path d="m11.401 22.104-.096-.046V10.555a4.688 4.688 0 0 1 .41-1.915 4.934 4.934 0 0 1 .405-.717l.045-.064a5.713 5.713 0 0 1 .135-.18c.014-.02.03-.038.044-.057v.001l.09-.108.045-.05.045-.051c.044-.048.089-.095.135-.141l.045-.044.045-.044.045-.042.044-.042.046-.04.044-.038c.088-.076.177-.148.27-.216l.045-.032a4.079 4.079 0 0 1 .27-.181l.044-.028.045-.027.045-.027.045-.024.045-.026.045-.024.045-.023.045-.023.09-.044c.014-.008.03-.015.045-.021l.045-.021.044-.02.045-.019.045-.019.045-.018.045-.018.045-.017.045-.017.045-.015.045-.016.045-.015.045-.014.045-.014.044-.014.045-.014.09-.024.045-.012.045-.011.045-.011.045-.01.045-.01.045-.01.09-.017.044-.008.045-.007.045-.008a.806.806 0 0 0 .045-.006l.045-.006.045-.006.045-.005.045-.006.045-.004.09-.008.045-.002c.015 0 .03-.002.044-.003l.046-.002.044-.002h.045c.015-.002.03-.002.045-.002h.065l6.845.001v23.29a4.636 4.636 0 0 1-1.071 2.97l-.045.053-.045.052-.045.05-.045.049-.045.047a3.852 3.852 0 0 1-.18.177l-.045.042-.044.04-.045.04-.045.037-.045.038-.045.036-.045.036-.045.035a1.983 1.983 0 0 1-.09.066l-.045.033-.045.03-.044.032-.046.03-.044.03-.045.027c-.015.01-.03.02-.045.028l-.045.027-.045.027-.045.025c-.03.018-.06.034-.09.05l-.09.047-.044.022-.045.022-.045.021-.045.021-.045.02-.045.02-.045.019-.045.018-.045.018-.045.017a.99.99 0 0 1-.045.017l-.045.016-.09.031a1.17 1.17 0 0 1-.044.015l-.045.014-.045.014-.045.014-.045.013-.045.012-.045.012-.045.011-.045.011-.045.01-.045.01-.045.01-.044.009-.046.008-.044.008-.045.007-.045.008-.045.006-.045.007-.045.006-.045.005a.996.996 0 0 1-.045.005l-.045.005-.045.004a4.093 4.093 0 0 1-.09.006l-.09.006h-.044l-.045.003-.09.001h-6.878v-9.816s.033.01.096.025l.135.033.18.042.18.039.224.046.314.059.315.055.27.043.314.045.27.035.314.037.314.031.315.028.27.02.313.018.225.01.27.007h.045l.044.002.27.004h.314l.18-.003.225-.007.18-.008.18-.01.224-.016.18-.016.134-.014.18-.02.135-.018.045-.006.044-.007.09-.013.045-.007.135-.023.18-.034.134-.028.046-.01.044-.01.045-.011.135-.033.135-.035.045-.013.045-.013.045-.013.044-.014.09-.029.09-.03.045-.015.09-.032.045-.017.09-.035.045-.018.09-.038.044-.02.045-.02.045-.021.045-.022.045-.021.045-.024.045-.023.045-.024v-.001l.088-.05.045-.026.045-.027.045-.028.045-.029.045-.03.045-.03.045-.031.045-.033c.062-.046.122-.094.18-.143l.044-.038.045-.041.045-.042.09-.089.045-.047.045-.05a2.328 2.328 0 0 0 .135-.163 3.035 3.035 0 0 0 .584-1.356c.02-.106.034-.214.045-.321a4.71 4.71 0 0 0 .022-.464v-5.404h-4.009v5.404a2.842 2.842 0 0 1-.056.554 2.288 2.288 0 0 1-.225.616 2.01 2.01 0 0 1-.584.665 2.173 2.173 0 0 1-.538.289 2.67 2.67 0 0 1-.54.14l-.044.008-.09.011-.045.006-.045.004-.045.004-.09.005-.045.002-.09.003h-.224l-.09-.003-.09-.004-.135-.008-.09-.007-.09-.008-.134-.013-.09-.01-.09-.012-.135-.02-.09-.014-.134-.024-.135-.025-.09-.018-.135-.03-.09-.02-.134-.034-.09-.023-.135-.037-.09-.026-.134-.041-.18-.057-.09-.03-.135-.047-.134-.049-.135-.05-.135-.053-.135-.055-.134-.057-.18-.078-.135-.06-.135-.063-.045-.021.001-.002z" fill="#0E4595"/>
        <path d="M24.454 16.573a5.454 5.454 0 0 0-.096.08v-6.098a4.69 4.69 0 0 1 .41-1.914 4.755 4.755 0 0 1 .404-.717l.046-.065a4.864 4.864 0 0 1 .09-.12l.044-.06.045-.055v-.001l.09-.107.045-.052.045-.05c.03-.032.059-.064.09-.095l.045-.046.044-.044.046-.044.044-.042.045-.042.045-.04.045-.038.045-.038.09-.074a4.85 4.85 0 0 1 .45-.317l.044-.028.045-.026.045-.027.045-.025.045-.025.045-.024.044-.024.045-.022.045-.022.045-.023.045-.02.045-.021.045-.02.045-.02.045-.018.045-.018.045-.018.045-.017.045-.017.044-.016.046-.015.044-.015.09-.029.045-.013.045-.014.045-.012.045-.012.045-.012.045-.011.045-.011.045-.01.044-.01.046-.009.044-.008.045-.009.09-.015.045-.008.045-.006.045-.006.045-.006.045-.006a1.034 1.034 0 0 1 .09-.009l.09-.007.044-.003.045-.003.045-.002.045-.002h.045c.015-.002.03-.002.045-.002H35.857v23.288a4.663 4.663 0 0 1-.802 2.611v.001a4.802 4.802 0 0 1-.225.303l-.045.055-.09.105-.045.05-.044.049-.046.048a2.923 2.923 0 0 1-.134.135l-.045.042-.045.042-.045.04-.045.04-.045.038-.045.038-.045.035-.045.036-.044.035-.045.033-.045.033-.045.033-.045.03-.045.032-.045.03-.045.03-.045.027-.045.028-.045.027-.045.027-.044.025-.045.026-.046.024-.044.023-.045.023-.045.023-.045.022-.045.02-.045.021-.045.02-.045.02-.045.019-.09.037-.045.016-.044.017-.045.017-.09.03-.045.015-.045.015-.045.013-.045.014-.045.013-.045.012-.045.013-.044.01a.884.884 0 0 1-.045.012l-.045.01-.045.01-.045.01-.09.017-.09.015-.045.007-.09.014-.045.005-.044.005-.046.006-.044.004-.045.004-.045.004-.045.003-.09.005-.045.001-.045.002h-.09l-.041.002h-6.837V23.09c.06.052.122.102.186.151l.044.034.046.033.09.064.044.03.045.03.045.03.045.029.045.027.045.028.045.027.045.026.045.025.044.025.046.024.044.023.045.024.045.022.045.023.045.021.045.022.045.02.09.04.045.02.09.038.044.018.09.035.09.034.045.017.045.016.045.015.045.016.09.03.044.014.045.015.09.027.135.04.09.024.135.035.134.033.09.021.135.03.09.018.224.042.135.023.18.029.135.02.134.017.046.005.044.006.135.016.18.018.18.016.269.02.135.007.27.012.269.008.27.003h.044l.135.001h.09l.18-.003h.044l.046-.002.359-.01.135-.006.022-.001.023-.001.045-.002.18-.01.224-.017.18-.016.269-.027.224-.026.27-.035.36-.052.224-.036.45-.078.314-.06.27-.054.314-.069.18-.041.134-.033v-1.97l-.135.066-.18.086-.09.042-.179.08-.09.04-.134.056-.135.055-.09.035-.135.05-.09.033-.134.047-.09.03-.135.043-.135.041-.09.026-.09.025-.134.035-.135.033-.09.021-.135.03-.09.017-.134.026-.135.023-.09.015-.134.02-.09.011-.18.02-.135.015-.09.007-.027.002-.018.002-.044.003-.09.005-.09.004-.135.004-.09.001h-.135l-.09-.003-.044-.002-.045-.002-.09-.005-.09-.007-.045-.004-.045-.004-.045-.005-.09-.01-.045-.006-.09-.013-.044-.007-.045-.008-.045-.009-.045-.008-.045-.01-.045-.008-.09-.021-.045-.011-.045-.012-.045-.012v-.002l-.044-.012a3.973 3.973 0 0 1-.135-.042l-.045-.015-.045-.016-.045-.017-.045-.017-.045-.019-.045-.018-.045-.02a1.207 1.207 0 0 1-.044-.02v-.001a2.371 2.371 0 0 1-.091-.043l-.045-.024-.045-.023-.045-.026c-.015-.008-.03-.016-.045-.026v.001a3.576 3.576 0 0 1-.089-.055l-.045-.03a1.794 1.794 0 0 1-.09-.062l-.045-.033a2.022 2.022 0 0 1-.09-.07l-.044-.038a2.42 2.42 0 0 1-.135-.123l-.045-.045a2.181 2.181 0 0 1-.225-.262 2.542 2.542 0 0 1-.27-.44 2.912 2.912 0 0 1-.224-.625 3.81 3.81 0 0 1-.09-.542 4.516 4.516 0 0 1 0-.806c.01-.113.026-.223.045-.33a3.32 3.32 0 0 1 .18-.635c.051-.127.111-.252.18-.37a2.665 2.665 0 0 1 .359-.488l.045-.048.09-.087.045-.041.045-.04.044-.037c.044-.036.089-.07.135-.104l.045-.032.045-.03.045-.03v.001a1.965 1.965 0 0 1 .18-.107v.001c.044-.024.089-.047.134-.069l.046-.021c.014-.008.03-.014.044-.021l.045-.02.045-.019.045-.017.045-.018.045-.016.045-.016.045-.015v-.001c.044-.015.089-.03.134-.042l.045-.013.045-.013.045-.011.045-.012.09-.02.045-.01a1.076 1.076 0 0 1 .09-.017l.045-.008.045-.008.045-.007.09-.013.044-.006.09-.01.045-.005.045-.005.045-.004.09-.006.09-.006.045-.001.044-.002.046-.002.09-.001h.089l.135.002.09.003.045.002.09.005.09.006.017.002.027.002.045.003.09.008.135.013.135.016.09.012.134.02.135.02.135.024.09.017.134.027.09.02.135.031.135.033.09.024.09.025.09.026.134.04.135.044.09.03.09.03.134.05.135.05.09.035.135.055.09.038.134.058.135.061.135.063.09.043.18.088.044.023v-1.972l-.09-.022-.224-.052-.27-.059-.27-.055-.044-.008-.045-.01-.315-.059-.404-.07-.27-.043-.314-.045-.27-.035-.224-.027-.27-.027-.18-.016-.224-.016-.18-.01-.044-.002-.023-.001-.022-.001-.135-.006-.315-.009-.314-.005h-.27l-.27.004-.269.008-.27.012-.134.008-.27.02-.134.011-.045.005-.045.003-.135.014-.224.026-.135.018-.135.02-.045.006-.045.007-.09.014-.134.024-.225.042-.09.018-.135.03-.09.02-.134.034-.135.035-.09.024-.135.04-.09.027-.09.028-.09.03-.089.032-.09.032-.045.017-.045.017-.09.035-.044.019-.09.037-.045.02-.09.04-.045.021-.09.043-.045.022-.045.023-.045.023-.09.049-.044.024-.045.025-.045.027-.045.026-.045.028-.045.028-.045.028-.045.03-.045.03-.045.03v.002l-.09.064-.044.033a4.05 4.05 0 0 0-.135.105" fill="#EB001B"/>
    </g>
</svg>
