<svg width="60" height="40" viewBox="0 0 60 40" xmlns="http://www.w3.org/2000/svg">
    <g fill-rule="nonzero" fill="none">
        <rect fill="#FFF" width="60" height="40" rx="8"/>
        <path fill="#FF5F00" d="M35.59 29.975H24.694V10.54H35.59z"/>
        <path d="M25.392 20.256c0-3.943 1.86-7.455 4.756-9.718a12.458 12.458 0 0 0-7.696-2.643C15.575 7.895 10 13.429 10 20.255c0 6.827 5.575 12.362 12.452 12.362 2.905 0 5.578-.988 7.696-2.643-2.896-2.264-4.756-5.776-4.756-9.718" fill="#EB001B"/>
        <path d="M50.285 20.256c0 6.826-5.575 12.36-12.452 12.36-2.905 0-5.578-.987-7.697-2.642 2.897-2.264 4.757-5.776 4.757-9.718 0-3.943-1.86-7.455-4.757-9.718a12.462 12.462 0 0 1 7.697-2.643c6.877 0 12.452 5.534 12.452 12.36" fill="#F79E1B"/>
    </g>
</svg>
