<svg width="60" height="40" viewBox="0 0 60 40" xmlns="http://www.w3.org/2000/svg">
    <g fill-rule="nonzero" fill="none">
        <rect fill="#0E4595" width="60" height="40" rx="8"/>
        <path fill="#FFF" d="m22.256 27.738 2.669-15.66h4.268l-2.67 15.66zM41.945 12.415c-.846-.317-2.171-.658-3.826-.658-4.218 0-7.19 2.124-7.215 5.169-.023 2.25 2.121 3.505 3.74 4.254 1.662.768 2.22 1.258 2.213 1.943-.01 1.05-1.327 1.53-2.554 1.53-1.708 0-2.616-.238-4.018-.823l-.55-.249-.6 3.506c.998.437 2.842.816 4.756.836 4.487 0 7.4-2.1 7.433-5.35.016-1.782-1.121-3.138-3.584-4.256-1.492-.724-2.406-1.208-2.396-1.941 0-.651.773-1.347 2.445-1.347a7.874 7.874 0 0 1 3.194.6l.383.18.579-3.394M52.93 12.077h-3.3c-1.021 0-1.786.28-2.235 1.299l-6.34 14.352h4.483s.733-1.93.899-2.353l5.467.006c.128.549.52 2.347.52 2.347h3.96l-3.455-15.65zM47.695 22.19c.353-.903 1.7-4.378 1.7-4.378-.025.042.35-.907.567-1.495l.288 1.35.988 4.523h-3.543zM3.67 12.077l-.054.326c1.687.409 3.194 1 4.514 1.735l3.787 13.575 4.517-.005 6.72-15.63h-4.522l-4.179 10.679-.445-2.17a7.04 7.04 0 0 0-.066-.2L12.489 13.4c-.259-.991-1.008-1.287-1.935-1.322H3.67z"/>
    </g>
</svg>
