<?xml version="1.0" encoding="UTF-8"?>
<svg width="60px" height="60px" viewBox="0 0 60 60" version="1.1" xmlns="http://www.w3.org/2000/svg" xmlns:xlink="http://www.w3.org/1999/xlink">
    <title>8CC6B3DB-9E11-4FB7-9242-DC8E172881DC</title>
    <g id="Case" stroke="none" stroke-width="1" fill="none" fill-rule="evenodd">
        <g id="Web_GUI-Task-Fix" transform="translate(-1353, -1135)">
            <g id="flag_ca_large" transform="translate(1353, 1135)">
                <circle id="Oval" fill="#FFFFFF" cx="30" cy="30" r="30"></circle>
                <path d="M31.0887097,54.75 L30.5443548,44.3104839 C30.5283259,43.9627437 30.6707845,43.6264807 30.9317415,43.3960863 C31.1926985,43.1656918 31.5440234,43.0660018 31.8870968,43.125 L42.2782258,44.9516129 L40.875,41.0806452 C40.7582707,40.7648506 40.8555497,40.409782 41.1169355,40.1975806 L52.5,30.9798387 L49.9354839,29.7822581 C49.5771133,29.6129091 49.4008231,29.2032935 49.5241935,28.8266129 L51.7741935,21.9072581 L45.2177419,23.2983871 C44.8515149,23.3747449 44.4821983,23.1824979 44.3346774,22.8387097 L43.0645161,19.8508065 L37.9475806,25.3427419 C37.7072568,25.5962289 37.328517,25.6607838 37.0177904,25.5012214 C36.7070638,25.3416591 36.5388524,24.9962374 36.6048387,24.6532258 L39.0725806,11.9274194 L35.1169355,14.2137097 C34.9292137,14.3237316 34.7042933,14.3510463 34.4956941,14.2891542 C34.2870948,14.2272621 34.1134683,14.0816972 34.016129,13.8870968 L30,6 L25.983871,13.8870968 C25.8865317,14.0816972 25.7129052,14.2272621 25.5043059,14.2891542 C25.2957067,14.3510463 25.0707863,14.3237316 24.8830645,14.2137097 L20.9274194,11.9274194 L23.3951613,24.6532258 C23.4611476,24.9962374 23.2929362,25.3416591 22.9822096,25.5012214 C22.671483,25.6607838 22.2927432,25.5962289 22.0524194,25.3427419 L16.9354839,19.8508065 L15.6653226,22.8387097 C15.5178017,23.1824979 15.1484851,23.3747449 14.7822581,23.2983871 L8.22580645,21.9072581 L10.4758065,28.8266129 C10.5991769,29.2032935 10.4228867,29.6129091 10.0645161,29.7822581 L7.5,30.9798387 L18.8830645,40.1975806 C19.1444503,40.409782 19.2417293,40.7648506 19.125,41.0806452 L17.7217742,44.9516129 L28.1129032,43.125 C28.4559766,43.0660018 28.8073015,43.1656918 29.0682585,43.3960863 C29.3292155,43.6264807 29.4716741,43.9627437 29.4556452,44.3104839 L28.9112903,54.75 L31.0887097,54.75 Z" id="Path" fill="#E00000" fill-rule="nonzero"></path>
            </g>
        </g>
    </g>
</svg>