<?xml version="1.0" encoding="UTF-8"?>
<svg width="20px" height="20px" viewBox="0 0 20 20" version="1.1" xmlns="http://www.w3.org/2000/svg" xmlns:xlink="http://www.w3.org/1999/xlink">
    <title>6D5BC684-84F0-4C7E-92E0-A8B50F3929E0</title>
    <g id="Case" stroke="none" stroke-width="1" fill="none" fill-rule="evenodd">
        <g id="Web_Honors" transform="translate(-764, -147)">
            <g id="profile" transform="translate(540, 60)">
                <g id="local" transform="translate(224, 85)">
                    <g id="flag_tw" transform="translate(0, 2)">
                        <rect id="local" x="0" y="0" width="20" height="20"></rect>
                        <g transform="translate(2, 2)">
                            <circle id="Oval" fill="#E00000" cx="8" cy="8" r="8"></circle>
                            <path d="M8,0 L8,0 L8,0 L8,8 L0,8 C-5.41083001e-16,3.581722 3.581722,5.41083001e-16 8,0 Z" id="Rectangle" fill="#005DCD"></path>
                            <path d="M4.76374123,5.79366538 L4.4,6.8 L4.03625877,5.79366538 C4.15244743,5.82390546 4.27434417,5.84 4.4,5.84 C4.52565583,5.84 4.64755257,5.82390546 4.76374123,5.79366538 Z M5.411798,5.42462936 L5.6,6.47846097 L4.78183481,5.78882942 C5.02301688,5.72267109 5.23890626,5.59536941 5.411798,5.42462936 Z M3.388202,5.42462936 C3.56109374,5.59536941 3.77698312,5.72267109 4.01816519,5.78882942 L3.2,6.47846097 L3.388202,5.42462936 Z M4.4,3.152 C5.08925137,3.152 5.648,3.71074863 5.648,4.4 C5.648,5.08925137 5.08925137,5.648 4.4,5.648 C3.71074863,5.648 3.152,5.08925137 3.152,4.4 C3.152,3.71074863 3.71074863,3.152 4.4,3.152 Z M5.78882942,4.78183481 L6.47846097,5.6 L5.42462936,5.411798 C5.59536941,5.23890626 5.72267109,5.02301688 5.78882942,4.78183481 Z M3.01117058,4.78183481 C3.07732891,5.02301688 3.20463059,5.23890626 3.37537064,5.411798 L2.32153903,5.6 L3.01117058,4.78183481 Z M3.00633462,4.03625877 C2.97609454,4.15244743 2.96,4.27434417 2.96,4.4 C2.96,4.52565583 2.97609454,4.64755257 3.00633462,4.76374123 L2,4.4 L3.00633462,4.03625877 Z M5.79366538,4.03625877 L6.8,4.4 L5.79366538,4.76374123 C5.82390546,4.64755257 5.84,4.52565583 5.84,4.4 C5.84,4.27434417 5.82390546,4.15244743 5.79366538,4.03625877 Z M2.32153903,3.2 L3.37537064,3.388202 C3.20463059,3.56109374 3.07732891,3.77698312 3.01117058,4.01816519 L2.32153903,3.2 Z M6.47846097,3.2 L5.78882942,4.01816519 C5.72267109,3.77698312 5.59536941,3.56109374 5.42462936,3.388202 L6.47846097,3.2 Z M3.2,2.32153903 L4.01816519,3.01117058 C3.77698312,3.07732891 3.56109374,3.20463059 3.388202,3.37537064 L3.2,2.32153903 Z M5.6,2.32153903 L5.411798,3.37537064 C5.23890626,3.20463059 5.02301688,3.07732891 4.78183481,3.01117058 L5.6,2.32153903 Z M4.4,2 L4.76374123,3.00633462 C4.64755257,2.97609454 4.52565583,2.96 4.4,2.96 C4.27434417,2.96 4.15244743,2.97609454 4.03625877,3.00633462 L4.4,2 Z" id="Combined-Shape" fill="#FFFFFF"></path>
                        </g>
                    </g>
                </g>
            </g>
        </g>
    </g>
</svg>