<?xml version="1.0" encoding="UTF-8"?>
<svg width="20px" height="20px" viewBox="0 0 20 20" version="1.1" xmlns="http://www.w3.org/2000/svg" xmlns:xlink="http://www.w3.org/1999/xlink">
    <title>6868D52A-9B94-421E-8E2D-7A4304AC4BC9</title>
    <g id="Case" stroke="none" stroke-width="1" fill="none" fill-rule="evenodd">
        <g id="Web_Ratings" transform="translate(-764, -147)">
            <g id="profile" transform="translate(540, 60)">
                <g id="local" transform="translate(224, 85)">
                    <g id="flag_us" transform="translate(0, 2)">
                        <rect id="local" x="0" y="0" width="20" height="20"></rect>
                        <g transform="translate(2, 2)" fill-rule="nonzero">
                            <circle id="Oval" fill="#F0F0F0" cx="8" cy="8" r="8"></circle>
                            <g id="Group" transform="translate(0.2756, 1.7391)" fill="#E00000">
                                <path d="M7.37659375,6.260875 L15.7244062,6.260875 C15.7244062,5.5388125 15.6281562,4.8393125 15.4488125,4.17390625 L7.37659375,4.17390625 L7.37659375,6.260875 Z" id="Path"></path>
                                <path d="M7.37659375,2.08696875 L14.5502187,2.08696875 C14.0605,1.28784375 13.4343437,0.5815 12.7042812,0 L7.37659375,0 L7.37659375,2.08696875 Z" id="Path"></path>
                                <path d="M7.72440625,14.260875 C9.6071875,14.260875 11.3377188,13.610125 12.7042813,12.52175 L2.74453125,12.52175 C4.11109375,13.610125 5.841625,14.260875 7.72440625,14.260875 Z" id="Path"></path>
                                <path d="M0.89859375,10.4347813 L14.5502188,10.4347813 C14.943375,9.79325 15.2482813,9.092 15.4488125,8.3478125 L0,8.3478125 C0.20053125,9.092 0.5054375,9.79325 0.89859375,10.4347813 Z" id="Path"></path>
                            </g>
                            <path d="M3.70575,1.2493125 L4.43478125,1.2493125 L3.75665625,1.74196875 L4.0156875,2.539125 L3.33759375,2.04646875 L2.6595,2.539125 L2.88325,1.85046875 C2.2861875,2.3478125 1.762875,2.9305 1.331625,3.57975 L1.56521875,3.57975 L1.1335625,3.89334375 C1.0663125,4.00553125 1.0018125,4.1195 0.94,4.23515625 L1.146125,4.8695625 L0.7615625,4.59015625 C0.66596875,4.7926875 0.57853125,4.99978125 0.4999375,5.2111875 L0.72703125,5.9101875 L1.56521875,5.9101875 L0.88709375,6.40284375 L1.146125,7.2 L0.46803125,6.70734375 L0.06184375,7.00246875 C0.0211875,7.32928125 0,7.66215625 0,8 L8,8 C8,3.58175 8,3.060875 8,0 C6.419625,0 4.94640625,0.4584375 3.70575,1.2493125 Z M4.0156875,7.2 L3.33759375,6.70734375 L2.6595,7.2 L2.91853125,6.40284375 L2.24040625,5.9101875 L3.07859375,5.9101875 L3.33759375,5.11303125 L3.59659375,5.9101875 L4.43478125,5.9101875 L3.75665625,6.40284375 L4.0156875,7.2 Z M3.75665625,4.07240625 L4.0156875,4.8695625 L3.33759375,4.37690625 L2.6595,4.8695625 L2.91853125,4.07240625 L2.24040625,3.57975 L3.07859375,3.57975 L3.33759375,2.78259375 L3.59659375,3.57975 L4.43478125,3.57975 L3.75665625,4.07240625 Z M6.88525,7.2 L6.20715625,6.70734375 L5.5290625,7.2 L5.78809375,6.40284375 L5.10996875,5.9101875 L5.94815625,5.9101875 L6.20715625,5.11303125 L6.46615625,5.9101875 L7.30434375,5.9101875 L6.62621875,6.40284375 L6.88525,7.2 Z M6.62621875,4.07240625 L6.88525,4.8695625 L6.20715625,4.37690625 L5.5290625,4.8695625 L5.78809375,4.07240625 L5.10996875,3.57975 L5.94815625,3.57975 L6.20715625,2.78259375 L6.46615625,3.57975 L7.30434375,3.57975 L6.62621875,4.07240625 Z M6.62621875,1.74196875 L6.88525,2.539125 L6.20715625,2.04646875 L5.5290625,2.539125 L5.78809375,1.74196875 L5.10996875,1.2493125 L5.94815625,1.2493125 L6.20715625,0.45215625 L6.46615625,1.2493125 L7.30434375,1.2493125 L6.62621875,1.74196875 Z" id="Shape" fill="#005DCD"></path>
                        </g>
                    </g>
                </g>
            </g>
        </g>
    </g>
</svg>