<?xml version="1.0" encoding="UTF-8"?>
<svg width="60px" height="60px" viewBox="0 0 60 60" version="1.1" xmlns="http://www.w3.org/2000/svg" xmlns:xlink="http://www.w3.org/1999/xlink">
    <title>B53C7EAD-9E58-484E-93F0-6ACBE2B6C36C</title>
    <g id="Case" stroke="none" stroke-width="1" fill="none" fill-rule="evenodd">
        <g id="Web_GUI-Task-Fix" transform="translate(-1353, -1411)">
            <g id="flag_tw_large" transform="translate(1353, 1411)">
                <circle id="Oval" fill="#E00000" cx="30" cy="30" r="30"></circle>
                <path d="M30,0 L30,0 L30,0 L30,30 L0,30 C-2.02906125e-15,13.4314575 13.4314575,2.02906125e-15 30,0 Z" id="Rectangle" fill="#005DCD"></path>
                <path d="M17.8640296,21.7262452 L16.5,25.5 L15.1359704,21.7262452 C15.5716779,21.8396455 16.0287907,21.9 16.5,21.9 C16.9712093,21.9 17.4283221,21.8396455 17.8640296,21.7262452 Z M20.2942425,20.3423601 L21,24.2942286 L17.9318805,21.7081103 C18.8363133,21.4600166 19.6458985,20.9826353 20.2942425,20.3423601 Z M12.7057575,20.3423601 C13.3541015,20.9826353 14.1636867,21.4600166 15.0681195,21.7081103 L12,24.2942286 L12.7057575,20.3423601 Z M16.5,11.82 C19.0846926,11.82 21.18,13.9153074 21.18,16.5 C21.18,19.0846926 19.0846926,21.18 16.5,21.18 C13.9153074,21.18 11.82,19.0846926 11.82,16.5 C11.82,13.9153074 13.9153074,11.82 16.5,11.82 Z M21.7081103,17.9318805 L24.2942286,21 L20.3423601,20.2942425 C20.9826353,19.6458985 21.4600166,18.8363133 21.7081103,17.9318805 Z M11.2918897,17.9318805 C11.5399834,18.8363133 12.0173647,19.6458985 12.6576399,20.2942425 L8.70577137,21 L11.2918897,17.9318805 Z M11.2737548,15.1359704 C11.1603545,15.5716779 11.1,16.0287907 11.1,16.5 C11.1,16.9712093 11.1603545,17.4283221 11.2737548,17.8640296 L7.5,16.5 L11.2737548,15.1359704 Z M21.7262452,15.1359704 L25.5,16.5 L21.7262452,17.8640296 C21.8396455,17.4283221 21.9,16.9712093 21.9,16.5 C21.9,16.0287907 21.8396455,15.5716779 21.7262452,15.1359704 Z M8.70577137,12 L12.6576399,12.7057575 C12.0173647,13.3541015 11.5399834,14.1636867 11.2918897,15.0681195 L8.70577137,12 Z M24.2942286,12 L21.7081103,15.0681195 C21.4600166,14.1636867 20.9826353,13.3541015 20.3423601,12.7057575 L24.2942286,12 Z M12,8.70577137 L15.0681195,11.2918897 C14.1636867,11.5399834 13.3541015,12.0173647 12.7057575,12.6576399 L12,8.70577137 Z M21,8.70577137 L20.2942425,12.6576399 C19.6458985,12.0173647 18.8363133,11.5399834 17.9318805,11.2918897 L21,8.70577137 Z M16.5,7.5 L17.8640296,11.2737548 C17.4283221,11.1603545 16.9712093,11.1 16.5,11.1 C16.0287907,11.1 15.5716779,11.1603545 15.1359704,11.2737548 L16.5,7.5 Z" id="Combined-Shape" fill="#FFFFFF"></path>
            </g>
        </g>
    </g>
</svg>