<?xml version="1.0" encoding="UTF-8"?>
<svg width="60px" height="60px" viewBox="0 0 60 60" version="1.1" xmlns="http://www.w3.org/2000/svg" xmlns:xlink="http://www.w3.org/1999/xlink">
    <title>719CF94E-4D48-4A25-8BA5-F303B5E35D07</title>
    <g id="Case" stroke="none" stroke-width="1" fill="none" fill-rule="evenodd">
        <g id="Web_GUI-Task-Fix" transform="translate(-1353, -1227)">
            <g id="flag_uk_large" transform="translate(1353, 1227)">
                <circle id="Oval" fill="#FFFFFF" cx="30" cy="30" r="30"></circle>
                <circle id="Oval" fill="#F0F0F0" fill-rule="nonzero" cx="30" cy="30" r="30"></circle>
                <path d="M6.2015625,11.7353906 C3.84503906,14.8013672 2.068125,18.3351563 1.03347656,22.1741016 L16.6402734,22.1741016 L6.2015625,11.7353906 Z" id="Path" fill="#005DCD" fill-rule="nonzero"></path>
                <path d="M58.9665234,22.1741016 C57.931875,18.3352734 56.1548437,14.8014844 53.7984375,11.7355078 L43.3599609,22.1741016 L58.9665234,22.1741016 Z" id="Path" fill="#005DCD" fill-rule="nonzero"></path>
                <path d="M1.03347656,37.82625 C2.06824219,41.6650781 3.84515625,45.1988672 6.2015625,48.2647266 L16.6399219,37.82625 L1.03347656,37.82625 L1.03347656,37.82625 Z" id="Path" fill="#005DCD" fill-rule="nonzero"></path>
                <path d="M48.2646094,6.20167969 C45.1986328,3.84515625 41.6649609,2.06824219 37.8260156,1.03347656 L37.8260156,16.6401563 L48.2646094,6.20167969 Z" id="Path" fill="#005DCD" fill-rule="nonzero"></path>
                <path d="M11.7353906,53.7983203 C14.8013672,56.1548438 18.3351563,57.9317578 22.1739844,58.9665234 L22.1739844,43.3599609 L11.7353906,53.7983203 Z" id="Path" fill="#005DCD" fill-rule="nonzero"></path>
                <path d="M22.1738672,1.03347656 C18.3350391,2.06824219 14.80125,3.84515625 11.7353906,6.2015625 L22.1738672,16.6400391 L22.1738672,1.03347656 Z" id="Path" fill="#005DCD" fill-rule="nonzero"></path>
                <path d="M37.8261328,58.9665234 C41.6649609,57.9317578 45.19875,56.1548438 48.2646094,53.7984375 L37.8261328,43.3599609 L37.8261328,58.9665234 Z" id="Path" fill="#005DCD" fill-rule="nonzero"></path>
                <path d="M43.3599609,37.82625 L53.7984375,48.2648438 C56.1548437,45.1989844 57.931875,41.6650781 58.9665234,37.82625 L43.3599609,37.82625 Z" id="Path" fill="#005DCD" fill-rule="nonzero"></path>
                <path d="M59.7460547,26.0869922 L33.9132422,26.0869922 L33.913125,26.0869922 L33.913125,0.253945312 C32.6321484,0.0871875 31.3262109,0 30,0 C28.6735547,0 27.3678516,0.0871875 26.0869922,0.253945312 L26.0869922,26.0867578 L26.0869922,26.086875 L0.253945312,26.086875 C0.0871875,27.3678516 0,28.6737891 0,30 C0,31.3264453 0.0871875,32.6321484 0.253945312,33.9130078 L26.0867578,33.9130078 L26.086875,33.9130078 L26.086875,59.7460547 C27.3678516,59.9128125 28.6735547,60 30,60 C31.3262109,60 32.6321484,59.9129297 33.9130078,59.7460547 L33.9130078,33.9132422 L33.9130078,33.913125 L59.7460547,33.913125 C59.9128125,32.6321484 60,31.3264453 60,30 C60,28.6737891 59.9128125,27.3678516 59.7460547,26.0869922 Z" id="Path" fill="#E00000" fill-rule="nonzero"></path>
                <path d="M37.8261328,37.8261328 L37.8261328,37.8261328 L51.2131641,51.2132813 C51.8288672,50.5978125 52.4162109,49.9543359 52.9766016,49.2873047 L41.5154297,37.8261328 L37.8261328,37.8261328 L37.8261328,37.8261328 Z" id="Path" fill="#E00000" fill-rule="nonzero"></path>
                <path d="M22.1738672,37.82625 L22.1736328,37.82625 L8.78671875,51.2131641 C9.4021875,51.8288672 10.0456641,52.4162109 10.7126953,52.9766016 L22.1738672,41.5151953 L22.1738672,37.82625 Z" id="Path" fill="#E00000" fill-rule="nonzero"></path>
                <path d="M22.1738672,22.1741016 L22.1738672,22.1738672 L8.78683594,8.78671875 C8.17113281,9.4021875 7.58378906,10.0456641 7.02339844,10.7126953 L18.4846875,22.1741016 L22.1738672,22.1741016 L22.1738672,22.1741016 Z" id="Path" fill="#E00000" fill-rule="nonzero"></path>
                <path d="M37.8261328,22.1741016 L37.8261328,22.1741016 L51.2132812,8.78683594 C50.5978125,8.17113281 49.9543359,7.58378906 49.2873047,7.02351562 L37.8261328,18.4848047 L37.8261328,22.1741016 L37.8261328,22.1741016 Z" id="Path" fill="#E00000" fill-rule="nonzero"></path>
            </g>
        </g>
    </g>
</svg>