<?xml version="1.0" encoding="UTF-8"?>
<svg width="60px" height="60px" viewBox="0 0 60 60" version="1.1" xmlns="http://www.w3.org/2000/svg" xmlns:xlink="http://www.w3.org/1999/xlink">
    <title>F8D3DB98-69E6-4E5E-8B7B-2B46EDE7B4B7</title>
    <g id="Case" stroke="none" stroke-width="1" fill="none" fill-rule="evenodd">
        <g id="Web_GUI-Task-Fix" transform="translate(-1353, -1043)" fill-rule="nonzero">
            <g id="flag_us_large" transform="translate(1353, 1043)">
                <circle id="Oval" fill="#F0F0F0" cx="30" cy="30" r="30"></circle>
                <g id="Group" transform="translate(1.0335, 6.5217)" fill="#E00000">
                    <path d="M27.6622266,23.4782813 L58.9665234,23.4782813 C58.9665234,20.7705469 58.6055859,18.1474219 57.9330469,15.6521484 L27.6622266,15.6521484 L27.6622266,23.4782813 Z" id="Path"></path>
                    <path d="M27.6622266,7.82613281 L54.5633203,7.82613281 C52.726875,4.82941406 50.3787891,2.180625 47.6410547,0 L27.6622266,0 L27.6622266,7.82613281 Z" id="Path"></path>
                    <path d="M28.9665234,53.4782813 C36.0269531,53.4782813 42.5164453,51.0379688 47.6410547,46.9565625 L10.2919922,46.9565625 C15.4166016,51.0379688 21.9060937,53.4782813 28.9665234,53.4782813 Z" id="Path"></path>
                    <path d="M3.36972656,39.1304297 L54.5633203,39.1304297 C56.0376562,36.7246875 57.1810547,34.095 57.9330469,31.3042969 L0,31.3042969 C0.751992187,34.095 1.89539062,36.7246875 3.36972656,39.1304297 Z" id="Path"></path>
                </g>
                <path d="M13.8965625,4.68492187 L16.6304297,4.68492187 L14.0874609,6.53238281 L15.0588281,9.52171875 L12.5159766,7.67425781 L9.973125,9.52171875 L10.8121875,6.93925781 C8.57320312,8.80429687 6.61078125,10.989375 4.99359375,13.4240625 L5.86957031,13.4240625 L4.25085937,14.6000391 C3.99867187,15.0207422 3.75679687,15.448125 3.525,15.8818359 L4.29796875,18.2608594 L2.85585937,17.2130859 C2.49738281,17.9725781 2.16949219,18.7491797 1.87476562,19.5419531 L2.72636719,22.1632031 L5.86957031,22.1632031 L3.32660156,24.0106641 L4.29796875,27 L1.75511719,25.1525391 L0.231914062,26.2592578 C0.079453125,27.4848047 0,28.7330859 0,30 L30,30 C30,13.4315625 30,11.4782812 30,0 C24.0735937,0 18.5490234,1.71914062 13.8965625,4.68492187 Z M15.0588281,27 L12.5159766,25.1525391 L9.973125,27 L10.9444922,24.0106641 L8.40152344,22.1632031 L11.5447266,22.1632031 L12.5159766,19.1738672 L13.4872266,22.1632031 L16.6304297,22.1632031 L14.0874609,24.0106641 L15.0588281,27 Z M14.0874609,15.2715234 L15.0588281,18.2608594 L12.5159766,16.4133984 L9.973125,18.2608594 L10.9444922,15.2715234 L8.40152344,13.4240625 L11.5447266,13.4240625 L12.5159766,10.4347266 L13.4872266,13.4240625 L16.6304297,13.4240625 L14.0874609,15.2715234 Z M25.8196875,27 L23.2768359,25.1525391 L20.7339844,27 L21.7053516,24.0106641 L19.1623828,22.1632031 L22.3055859,22.1632031 L23.2768359,19.1738672 L24.2480859,22.1632031 L27.3912891,22.1632031 L24.8483203,24.0106641 L25.8196875,27 Z M24.8483203,15.2715234 L25.8196875,18.2608594 L23.2768359,16.4133984 L20.7339844,18.2608594 L21.7053516,15.2715234 L19.1623828,13.4240625 L22.3055859,13.4240625 L23.2768359,10.4347266 L24.2480859,13.4240625 L27.3912891,13.4240625 L24.8483203,15.2715234 Z M24.8483203,6.53238281 L25.8196875,9.52171875 L23.2768359,7.67425781 L20.7339844,9.52171875 L21.7053516,6.53238281 L19.1623828,4.68492188 L22.3055859,4.68492188 L23.2768359,1.69558594 L24.2480859,4.68492188 L27.3912891,4.68492188 L24.8483203,6.53238281 Z" id="Shape" fill="#005DCD"></path>
            </g>
        </g>
    </g>
</svg>