<?xml version="1.0" encoding="UTF-8"?>
<svg width="360px" height="400px" viewBox="0 0 360 400" version="1.1" xmlns="http://www.w3.org/2000/svg" xmlns:xlink="http://www.w3.org/1999/xlink">
    <title>95E0F2FC-8F5D-43E9-81F2-083A467791BB</title>
    <g id="Case" stroke="none" stroke-width="1" fill="none" fill-rule="evenodd">
        <g id="Web_Home_Index" transform="translate(-208, -6651)">
            <g id="case_certificate_large" transform="translate(208, 6651)">
                <rect id="Rectangle" stroke="#555555" x="0.5" y="0.5" width="359" height="399" rx="32"></rect>
                <path d="M91.1040712,357.453508 C90.3484211,357.805581 89.4410764,357.984086 88.4084956,357.984086 C86.7335063,357.984086 85.2663032,357.473969 84.0467501,356.254769 C82.8275498,355.035569 82.209483,353.499221 82.209483,351.688412 C82.209483,349.877251 82.8275498,348.340903 84.0467501,347.121703 C85.2663032,345.902503 86.7335063,345.392386 88.4084956,345.392386 C89.4410764,345.392386 90.3484211,345.571244 91.1040712,345.922964 C91.7591797,346.228117 92.4456854,346.697311 93.1491245,347.321023 L94.4745109,345.960358 C92.816455,344.245505 90.8059739,343.376613 88.4928095,343.376613 C86.05582,343.376613 84.0086501,344.168952 82.4084497,345.731406 C80.810366,347.291036 80.0003881,349.294462 80.0000353,351.68806 L80.0000353,351.688412 C80.0003881,354.08201 80.810366,356.085789 82.4084497,357.645067 C84.0086501,359.20752 86.05582,359.999859 88.4928095,359.999859 C90.8059739,359.999859 92.816455,359.13132 94.4745109,357.416114 L93.1491245,356.055802 C92.4456854,356.679161 91.7591797,357.148355 91.1040712,357.453508 M113.379806,352.612126 L113.379806,350.837301 L105.291315,350.837301 L105.291315,345.609838 L114.297028,345.609838 L114.297028,343.690374 L103.202517,343.690374 L103.202517,359.806678 L114.587012,359.806678 L114.587012,357.887213 L105.291315,357.887213 L105.291315,352.612126 L113.379806,352.612126 Z M125.427523,352.310042 L125.427523,345.513424 L129.429435,345.513424 C131.052566,345.513424 132.165933,345.736732 132.83233,346.196402 C133.534005,346.679708 133.889958,347.5486 133.889958,348.778736 C133.889958,349.992997 133.553055,350.898225 132.888774,351.469373 C132.231902,352.034876 131.076555,352.310042 129.357115,352.310042 L125.427523,352.310042 Z M133.778833,359.806572 L136.461356,359.806572 L132.164521,353.842862 L132.677108,353.690462 C134.947586,353.013481 136.051428,351.410812 136.051428,348.79073 C136.051428,347.007438 135.539547,345.702866 134.530955,344.912996 C133.493788,344.101607 131.71226,343.690268 129.236465,343.690268 L123.338725,343.690268 L123.338725,359.806572 L125.427523,359.806572 L125.427523,354.132846 L129.746582,354.132846 L133.778833,359.806572 Z M155.753154,343.690409 L143.427096,343.690409 L143.427096,345.537907 L148.545903,345.537907 L148.545903,359.806713 L150.634348,359.806713 L150.634348,345.537907 L155.753154,345.537907 L155.753154,343.690409 Z M163.949666,359.806607 L166.038463,359.806607 L166.038463,343.690303 L163.949666,343.690303 L163.949666,359.806607 Z M185.402123,350.98194 L177.917588,350.98194 L177.917588,345.585497 L186.298884,345.585497 L186.316523,343.690374 L175.82879,343.690374 L175.82879,359.806678 L177.917588,359.806678 L177.917588,352.853073 L185.402123,352.853073 L185.402123,350.98194 Z M194.758462,359.806607 L196.846907,359.806607 L196.846907,343.690303 L194.758462,343.690303 L194.758462,359.806607 Z M216.77875,357.453508 C216.0231,357.805581 215.115755,357.984086 214.083527,357.984086 C212.408538,357.984086 210.940982,357.473969 209.721782,356.254769 C208.502581,355.035569 207.884162,353.499221 207.884162,351.688412 C207.884162,349.877251 208.502581,348.340903 209.721782,347.121703 C210.940982,345.902503 212.408538,345.392386 214.083527,345.392386 C215.115755,345.392386 216.0231,345.571244 216.77875,345.922964 C217.434211,346.228117 218.120364,346.697311 218.824156,347.321023 L220.14919,345.960358 C218.491487,344.245505 216.480653,343.376613 214.167488,343.376613 C211.730499,343.376613 209.683682,344.168952 208.083481,345.731406 C206.485045,347.291036 205.675067,349.294462 205.675067,351.68806 L205.675067,351.688412 C205.675067,354.08201 206.485045,356.085789 208.083481,357.645067 C209.683682,359.20752 211.730499,359.999859 214.167488,359.999859 C216.480653,359.999859 218.491487,359.13132 220.14919,357.416114 L218.824156,356.055802 C218.120364,356.679161 217.434211,357.148355 216.77875,357.453508 M234.988967,345.820306 L239.053321,355.034158 L230.926024,355.034158 L234.988967,345.820306 Z M239.876351,356.905291 L241.151996,359.806889 L243.363561,359.806889 L236.262142,343.690233 L233.715792,343.690233 L226.61402,359.806889 L228.825585,359.806889 L230.101935,356.905291 L239.876351,356.905291 Z M260.419312,343.690409 L248.093253,343.690409 L248.093253,345.537907 L253.21206,345.537907 L253.21206,359.806713 L255.300505,359.806713 L255.300505,345.537907 L260.419312,345.537907 L260.419312,343.690409 Z M278.793182,352.612126 L278.793182,350.837301 L270.704691,350.837301 L270.704691,345.609838 L279.710405,345.609838 L279.710405,343.690374 L268.615894,343.690374 L268.615894,359.806678 L280.000035,359.806678 L280.000035,357.887213 L270.704691,357.887213 L270.704691,352.612126 L278.793182,352.612126 Z M187.708655,297.451215 C192.137781,297.451215 199.868202,298.940291 204.590487,300.703474 C206.602021,301.455315 212.438884,304.154741 218.288623,306.947775 L219.23674,307.401227 C222.485563,308.957626 225.674595,310.51198 228.147468,311.745101 L228.903803,312.123458 C229.269303,312.306925 229.615225,312.481545 229.938987,312.646063 C224.912608,312.522238 215.974275,311.958146 212.424272,311.444502 C205.375417,310.424621 195.920618,307.33852 192.191403,304.840148 C190.662464,303.815328 188.112938,301.499694 186.624569,299.782724 L184.879376,297.773301 L185.786721,297.59409 C186.267205,297.49884 186.914199,297.451215 187.708655,297.451215 Z M172.290992,297.451215 C173.085801,297.451215 173.732443,297.49884 174.212926,297.59409 L175.120271,297.773301 L173.375431,299.78343 C171.886709,301.499694 169.337536,303.815328 167.80895,304.840148 C164.079029,307.33852 154.62423,310.424621 147.575375,311.444502 C144.024666,311.958146 135.086686,312.522238 130.059955,312.646063 C136.535545,309.355704 151.875385,302.02498 155.408455,300.703474 C160.131092,298.940291 167.861866,297.451215 172.290992,297.451215 Z M239.056707,287.913548 C243.663986,287.913548 248.397559,288.386623 253.125841,289.317957 C257.600828,290.199902 263.934955,291.364421 267.2426,291.913344 L269.008253,292.207208 C267.30076,292.687983 264.273931,293.568333 261.202366,294.476259 L260.32466,294.736095 C259.447939,294.996039 258.577476,295.255342 257.742998,295.505328 C252.280938,297.139395 246.475626,298.002995 240.956416,298.002995 C232.732459,298.002995 225.789085,296.087411 221.908175,292.745899 L220.398639,291.446266 L221.14547,291.110774 C225.800726,289.019507 231.994094,287.913548 239.056707,287.913548 Z M120.943222,287.913337 C128.005835,287.913337 134.199203,289.019648 138.85446,291.110915 L139.600938,291.446407 L138.091401,292.746041 C134.210492,296.0872 127.268529,298.003842 119.045277,298.002784 C113.522893,298.002784 107.718286,297.139536 102.257284,295.505469 C101.422296,295.25541 100.551472,294.996064 99.6745171,294.736098 L98.7966182,294.476247 C95.7245197,293.568289 92.698598,292.688124 90.9923818,292.207349 L92.7559183,291.913485 C96.0635635,291.36421 102.396984,290.200043 106.874794,289.318098 C111.602017,288.386764 116.335591,287.913337 120.943222,287.913337 Z M231.198016,56.6401789 C236.075523,59.5428352 242.548996,63.6160084 246.774922,66.368734 L247.016928,66.5239563 C282.487684,89.470745 303.656472,128.292538 303.656472,170.428678 C303.656472,238.621344 248.183917,294.099896 180.000071,294.099896 C111.815871,294.099896 56.3433164,238.621344 56.3433164,170.428678 C56.3433164,128.292538 77.5128102,89.470745 112.981096,66.5239563 L113.225219,66.368734 C117.45185,63.6153028 123.926382,59.5410713 128.802125,56.6401789 C124.97378,59.5481268 119.381192,63.6382334 112.163357,68.8060762 C95.6078451,79.8367344 82.0632919,94.4893629 72.9993703,111.173286 C54.3402437,144.60428 52.6708988,186.684682 68.6386832,220.984921 C76.0237349,237.266324 87.2935764,252.110511 101.230419,263.914458 C115.291791,275.824239 131.809909,284.406972 148.98878,288.731675 C158.971688,291.35987 169.376165,292.691254 179.912582,292.691254 L180.087559,292.691254 C190.624681,292.691254 201.029159,291.358812 211.001483,288.734498 C228.190232,284.406972 244.70835,275.824239 258.769722,263.914458 C272.706565,252.110511 283.976406,237.266324 291.357225,220.99374 C307.32889,186.684682 305.659545,144.60428 287.006062,111.183164 C277.936849,94.4893629 264.392296,79.8367344 247.862537,68.8247735 C240.619302,63.6389389 235.02495,59.5481268 231.198016,56.6401789 Z M299.755525,262.277922 C298.295025,263.343311 295.948699,265.000309 292.773346,267.164954 C283.718243,273.339272 281.382501,274.484389 271.941813,277.372934 C269.573262,278.09754 266.538314,278.496531 263.394711,278.496531 C259.54026,278.496531 255.897123,277.906687 253.39875,276.877634 L251.877572,276.250747 L253.920509,274.480861 C255.617017,273.013658 259.457357,270.616885 262.307097,269.247401 C262.825327,268.998693 263.282527,268.772562 263.713269,268.558073 C265.71105,267.568532 267.154617,266.853451 271.808463,265.371078 C276.349772,263.924336 293.286285,262.297325 299.755525,262.277922 Z M60.2447573,262.277851 C63.1077231,262.286439 68.0218,262.609982 73.0040975,263.093442 L74.1115917,263.203446 C80.0156203,263.803505 85.8091578,264.612061 88.1911139,265.371008 C92.8446066,266.852322 94.2881737,267.568461 96.2856019,268.558003 C96.7170492,268.772492 97.1746021,268.998622 97.69248,269.247331 C100.542925,270.616814 104.383265,273.013587 106.078715,274.48079 L108.122005,276.250677 L106.601885,276.877563 C104.102454,277.906969 100.459317,278.496461 96.6059242,278.496461 C93.4623207,278.496461 90.4266672,278.097469 88.0581166,277.372863 C78.6170755,274.484318 76.2813333,273.339201 67.2262312,267.164883 C64.0512304,265.000238 61.7049048,263.343241 60.2447573,262.277851 Z M136.383921,203.822313 C137.410152,209.291428 138.68368,214.515715 140.173108,219.446139 C140.51495,219.405569 140.855733,219.359708 141.197928,219.319844 C147.634007,218.561372 154.097956,218.054077 160.567549,217.67978 C166.721406,217.34076 172.885141,217.185185 179.048523,217.15273 L179.048523,203.822313 L180.951759,203.822313 L180.951759,217.15273 C187.115494,217.183422 193.278171,217.342524 199.434144,217.676252 C205.903032,218.053019 212.366981,218.557139 218.802707,219.316317 L219.828232,219.442611 C221.316955,214.512893 222.590836,209.289664 223.616714,203.822313 L225.561225,203.822313 C224.540639,209.32847 223.251236,214.622607 221.731822,219.677561 C233.254958,221.115484 244.705774,223.196167 255.898005,226.239229 C260.927206,219.406275 265.067407,211.880465 268.122816,203.822313 L270.204558,203.823371 C265.460402,216.690944 257.948703,228.490305 247.961561,238.477446 C229.807613,256.630336 205.672668,266.628414 179.999965,266.628414 C154.327614,266.628414 130.191964,256.630336 112.038721,238.477446 C102.05158,228.490305 94.5391751,216.690944 89.7960768,203.823371 L91.8774661,203.823371 C94.9335807,211.881523 99.0737817,219.407333 104.103688,226.240993 C115.295566,223.199695 126.747441,221.119011 138.269519,219.681089 C136.750457,214.624371 135.459643,209.329175 134.439057,203.822313 L136.383921,203.822313 Z M180.951759,219.050675 L180.951759,264.687077 C197.107927,264.028441 211.266314,246.695406 219.382674,220.867481 C219.138199,220.84455 218.893724,220.817034 218.648896,220.794103 C212.224106,220.214136 205.788379,219.745294 199.343833,219.475419 C193.218198,219.194608 187.08445,219.052439 180.951759,219.050675 Z M179.048523,219.050675 C172.915832,219.050675 166.783495,219.195314 160.657155,219.473655 C154.212256,219.74353 147.776882,220.209903 141.351386,220.790575 C141.106558,220.813506 140.861378,220.841022 140.61655,220.863953 C148.733616,246.693642 162.892355,264.028441 179.048523,264.687077 L179.048523,219.050675 Z M138.685444,221.057275 C127.102688,222.223559 115.566852,223.909484 104.144963,226.295674 C119.205756,246.724687 142.297536,260.886601 168.729065,264.052077 C159.975588,259.978198 151.968589,251.156988 145.50464,238.230149 C142.877503,232.974817 140.604555,227.206899 138.685444,221.057275 Z M221.314133,221.060803 C219.395021,227.208663 217.122779,232.975875 214.496348,238.230149 C208.032399,251.156988 200.0254,259.978198 191.27157,264.052077 C217.703451,260.885543 240.795937,246.724687 255.856377,226.29391 C244.433077,223.911248 232.896536,222.226028 221.314133,221.060803 Z M41.0441872,227.362262 C41.4167206,227.498082 41.7624429,227.628962 42.0062124,227.720685 C43.0059849,228.096746 44.5313963,228.465751 46.1464134,228.857688 C47.4202943,229.165663 48.7375668,229.484574 49.8290615,229.816538 C55.8957824,231.658038 64.2054649,234.930406 69.3323855,238.593298 C73.1833087,241.345671 79.2027573,247.966606 81.0424939,251.474982 C81.1747856,251.725807 81.37093,252.10081 81.5229773,252.418663 C81.2919078,252.433479 81.0379077,252.453235 80.7606243,252.475107 C79.9097241,252.543193 78.850685,252.62786 77.5810375,252.62786 L77.365843,252.627154 C76.4151067,252.621863 74.6459257,252.611985 72.0159667,252.039074 C69.3366189,251.455579 65.8490569,250.33692 64.4001983,249.598204 C59.5286888,247.115706 51.1586812,239.964193 47.5010804,235.16077 C45.4722549,232.497297 42.6891904,229.12086 41.2971289,227.633196 C41.2329233,227.564404 41.1457872,227.471623 41.0441872,227.362262 Z M318.955248,227.362262 C318.854001,227.471623 318.766512,227.564404 318.701954,227.633901 C317.309892,229.121565 314.526475,232.498355 312.498708,235.161828 C308.841107,239.964193 300.471452,247.115706 295.599943,249.598204 C294.151437,250.33692 290.663522,251.455579 287.984174,252.039074 C285.354215,252.611985 283.585034,252.621863 282.634298,252.627154 L282.418751,252.62786 C281.149456,252.62786 280.090064,252.543193 279.239164,252.475107 C278.961881,252.453235 278.707528,252.433832 278.477164,252.418663 C278.629211,252.10081 278.825003,251.725807 278.956589,251.474982 C280.797384,247.966606 286.817185,241.345671 290.667756,238.593298 C295.794323,234.930406 304.104006,231.658038 310.170727,229.816538 C311.262574,229.484574 312.579847,229.165663 313.853728,228.857688 C315.468392,228.465751 316.993803,228.096746 317.993929,227.720685 C318.237698,227.628962 318.582715,227.498082 318.955248,227.362262 Z M330.000229,186.48067 L326.076987,193.782114 C325.483804,194.963059 324.852883,196.187777 324.212652,197.405 L323.784763,198.214809 C321.641542,202.252677 319.465052,206.08069 318.308113,207.800095 C314.865354,212.912552 309.14753,217.340619 303.386315,219.359567 C300.907345,220.227401 299.093361,220.84194 298.313722,220.84194 L298.271388,220.84194 C298.217413,220.427073 298.392391,219.346514 298.471766,218.85827 C299.537155,212.286724 304.14902,203.28101 312.050186,197.979112 C312.36408,197.768543 312.641738,197.582812 312.888773,197.418095 L313.237059,197.186301 C314.16277,196.571493 314.586036,196.301688 314.937714,196.083219 L315.059564,196.007765 L315.179679,195.933706 C315.735615,195.590059 316.357743,195.206038 318.731308,193.629792 L319.229872,193.298305 C319.404178,193.182283 319.586766,193.060621 319.778138,192.932977 C320.604373,192.382497 321.511037,191.78604 322.431964,191.188344 L323.22328,190.676774 C325.202588,189.402305 327.160588,188.180839 328.446243,187.452573 L328.498454,187.420823 C328.93096,187.138248 329.466829,186.802051 330.000229,186.48067 Z M30.000194,186.480706 C30.5325358,186.802086 31.0680526,187.138284 31.5016166,187.420859 L31.5527694,187.452609 C33.6094643,188.617128 37.3884208,191.044593 40.2215798,192.933013 C43.4745444,195.102949 44.1896252,195.544275 44.820392,195.933741 C45.3629643,196.268175 45.8307478,196.557805 47.9495316,197.979147 C55.8506974,203.281046 60.4625623,212.286759 61.5283042,218.858305 C61.6073265,219.34655 61.7826571,220.426755 61.7290349,220.841975 L61.685996,220.841975 C60.9063569,220.841975 59.0916676,220.227436 56.6137559,219.359602 C50.8521878,217.340655 45.134717,212.912587 41.6919579,207.801189 C40.1097492,205.450277 36.6250095,199.161306 33.9107366,193.759219 L30.000194,186.480706 Z M213.930281,148.388599 C219.054732,148.388599 222.915533,149.39966 225.232225,150.354277 L223.266547,155.745781 C221.511477,154.959439 218.142095,153.836195 213.719319,153.836195 C207.331218,153.836195 204.663864,156.812581 204.663864,159.564954 C204.663864,163.215147 207.682232,165.012197 214.49155,167.371223 C223.126141,170.403349 227.268106,174.16643 227.268106,180.063112 C227.268106,187.252019 220.59884,192.643523 208.524665,192.643523 C203.470417,192.643523 198.135357,191.464187 195.537854,190.060131 L197.362774,184.612888 C200.241088,186.016591 204.593309,187.139483 209.016085,187.139483 C215.404186,187.139483 218.984176,184.500352 218.984176,180.624734 C218.984176,176.974542 216.24662,174.728052 209.858518,172.594099 C201.855753,170.010354 196.45049,166.135442 196.45049,160.294499 C196.45049,153.498939 203.259809,148.388599 213.930281,148.388599 Z M100.071367,148.388458 C105.905254,148.388458 110.473728,149.287689 112.723039,150.187978 L110.819803,155.417557 C109.425272,154.876748 107.702305,154.43754 105.756029,154.172956 C104.464862,153.997626 103.07527,153.899201 101.617592,153.899201 C90.5117925,153.899201 83.6238047,159.944049 83.6238047,170.515744 C83.6238047,181.087791 90.5117925,187.132639 101.617592,187.132639 C105.272371,187.132639 108.997705,186.513867 111.317572,185.614283 L112.723039,190.844215 C110.473728,191.744151 105.905254,192.643735 100.071367,192.643735 C85.0994745,192.643735 75.0484805,184.236686 75.0484805,170.515744 C75.0484805,156.795154 85.0994745,148.388458 100.071367,148.388458 Z M281.853107,149.007195 L281.853107,154.461846 L261.891524,154.461846 L261.891524,166.889152 L280.075106,166.889152 L280.075106,172.287359 L261.891524,172.287359 L261.891524,186.570276 L283.048318,186.570276 L283.048318,192.024927 L256.465448,192.024927 C255.767301,192.024927 255.069153,191.75858 254.536811,191.226238 C254.00447,190.693544 253.738122,189.995749 253.738122,189.297602 L253.738122,151.734521 C253.738122,151.036373 254.00447,150.338579 254.536811,149.805884 C255.069153,149.273542 255.767301,149.007195 256.465448,149.007195 L281.853107,149.007195 Z M159.110859,149.007124 L175.558421,192.024857 L167.194058,192.024857 L154.120463,154.415562 L145.055483,180.495371 L155.704436,180.495371 C156.709147,180.495371 157.723383,180.795232 158.604622,181.421413 C159.485862,182.047946 160.101812,182.908018 160.431659,183.856991 L161.002806,185.50023 L143.314877,185.50023 L141.046868,192.024857 L132.682152,192.024857 L149.130067,149.007124 L159.110859,149.007124 Z M327.681632,148.544174 C327.247363,150.426244 326.677274,153.432264 326.236654,156.064692 C323.853287,170.287285 319.715555,178.382831 312.400706,183.132279 C310.067433,184.647813 308.189597,185.589024 307.470988,185.847611 C306.832813,184.459077 306.909366,178.040284 308.579769,172.77331 C310.163389,167.777623 317.057374,157.276837 322.207578,152.96695 C322.734628,152.52633 323.633153,151.807016 324.584948,151.043958 C325.486295,150.322174 326.450437,149.550296 327.244893,148.899068 C327.401879,148.769246 327.547577,148.651771 327.681632,148.544174 Z M32.3181562,148.544245 C32.4518591,148.651842 32.5975563,148.769317 32.7556008,148.899139 C33.549351,149.549661 34.5127873,150.321892 35.4141348,151.044028 C36.3662822,151.807087 37.265513,152.526401 37.7918575,152.967021 C42.9427671,157.276908 49.8360465,167.777694 51.4207246,172.772675 C53.0897167,178.040001 53.1666223,184.459147 52.5291527,185.847681 C51.8101914,185.589095 49.9327076,184.647884 47.5990821,183.133055 C40.2849387,178.382549 36.1472071,170.288414 33.7638399,156.064763 C33.3225148,153.431982 32.7517202,150.425256 32.3181562,148.544245 Z M43.9072265,112.25201 C43.9566154,112.326447 44.0070626,112.401588 44.0571571,112.477083 C44.1121904,112.559915 44.1688183,112.645146 44.2270888,112.732796 L44.5968056,113.287876 C44.7268706,113.482683 44.8638895,113.687322 45.0082462,113.901952 C45.6658241,114.881264 46.1935798,115.619275 46.7044021,116.333297 C47.5496579,117.516514 48.3476414,118.633056 49.6941945,120.766657 C52.5414646,125.279744 53.8710844,129.314817 54.9911541,133.984185 C55.9972766,138.173775 55.7393959,142.628301 54.1564817,148.427616 C53.9529288,149.172683 53.6188482,150.396117 53.3810759,150.688569 C53.0388814,150.648 52.2095007,150.1781 51.4605533,149.732541 L50.9970032,149.4542 C44.7066211,145.671363 42.2498761,137.268194 43.2658763,123.006443 C43.5667958,118.786515 43.8271459,114.3842 43.9072265,112.25201 Z M316.092597,112.252222 C316.172678,114.384059 316.433381,118.786726 316.7343,123.006302 C317.7503,137.267347 315.293555,145.671574 309.002468,149.454059 L308.54174,149.731342 C307.79244,150.177253 306.961648,150.647859 306.6191,150.688428 C306.380975,150.396328 306.046895,149.172542 305.842989,148.427475 C304.260428,142.628513 304.002547,138.173987 305.009022,133.984044 C306.129092,129.315029 307.458712,125.279603 310.305629,120.766869 C311.652888,118.631504 312.45193,117.514609 313.297538,116.331745 C313.806949,115.618428 314.334705,114.880417 314.991577,113.902164 C315.280573,113.472904 315.539314,113.084058 315.771956,112.73364 L316.017632,112.36445 L316.092597,112.252222 Z M180.000071,74.4039553 C205.672774,74.4039553 229.807718,84.4016799 247.961314,102.55457 C257.948456,112.541712 265.460507,124.341425 270.204664,137.209704 L268.122922,137.209704 C265.067513,129.151552 260.927312,121.625741 255.897052,114.792787 C244.70588,117.834085 233.2533,119.913005 221.730869,121.351986 C223.250284,126.407998 224.540745,131.702841 225.561331,137.209704 L223.616467,137.209704 C222.589883,131.741647 221.316708,126.517359 219.827633,121.586936 L218.801755,121.71323 C212.366028,122.47135 205.902432,122.978292 199.433192,123.353295 C193.278276,123.691609 187.117011,123.846831 180.951865,123.879639 L180.951865,137.210762 L179.048276,137.210762 L179.048276,123.879639 C172.887011,123.848595 166.721865,123.69055 160.566949,123.356117 C154.097709,122.980056 147.633407,122.474878 141.197328,121.7157 C140.855486,121.676189 140.51435,121.629975 140.172508,121.589405 C138.807523,126.108313 137.623953,130.874149 136.645711,135.848869 L136.383194,137.208788 L134.43881,137.209704 C135.374347,132.162716 136.536358,127.293588 137.893322,122.623514 L138.268213,121.354808 C126.746489,119.916533 115.294614,117.835849 104.103089,114.792787 C99.2750556,121.353101 95.2659999,128.551625 92.2494578,136.246347 L91.877194,137.208788 L89.7961826,137.209704 C94.4361701,124.621861 101.72603,113.055278 111.390651,103.208469 L112.038474,102.55457 C130.19207,84.4016799 154.32772,74.4039553 180.000071,74.4039553 Z M180.951865,76.3452919 L180.951865,121.981342 C187.082792,121.981342 193.217246,121.836703 199.343939,121.558714 C205.788485,121.288486 212.223859,120.822466 218.649002,120.241441 C218.894535,120.218511 219.13901,120.191347 219.384191,120.168416 C211.267125,94.3394323 197.10768,77.0035754 180.951865,76.3452919 Z M179.048276,76.3452919 C162.893167,77.0035754 148.73478,94.3376684 140.617361,120.165594 L141.351492,120.238972 C147.776988,120.818939 154.212009,121.286722 160.656555,121.55695 C166.783248,121.837761 172.913469,121.978872 179.048276,121.981342 L179.048276,76.3452919 Z M191.271676,76.9799393 C200.025506,81.0541708 208.032505,89.8750284 214.495395,102.801868 C217.122532,108.057199 219.395833,113.82547 221.314944,119.974741 C232.897347,118.809516 244.434594,117.12359 255.856483,114.738107 C240.794985,94.3083878 217.703557,80.1464734 191.271676,76.9799393 Z M168.728465,76.9799393 C142.296937,80.1464734 119.205156,94.3083878 104.144717,114.738107 C115.567664,117.120768 127.1035,118.805988 138.685902,119.972272 C140.604661,113.823706 142.877256,108.056141 145.504746,102.801868 C151.968694,89.8750284 159.974635,81.0541708 168.728465,76.9799393 Z M296.373194,80.3637883 L297.803393,84.5324547 C304.065906,102.774598 304.279689,108.223957 299.071983,116.926635 L298.05951,118.617146 L297.091135,117.506601 C293.905198,113.853587 291.756428,106.948313 291.745759,100.32385 C291.737731,95.4879712 292.300059,92.5482732 294.481637,86.0243523 L296.373194,80.3637883 Z M63.626194,80.3637883 L65.5187157,86.0243523 C67.6999413,92.5482732 68.2622692,95.4886767 68.2535514,100.32385 C68.2432192,106.948313 66.0951548,113.853587 62.9081596,117.506601 L61.9401371,118.617146 L60.9276647,116.926635 C55.7203107,108.223957 55.9337413,102.774598 62.1962539,84.5324547 L63.626194,80.3637883 Z M269.826768,57.4196769 L273.680867,62.0269558 C276.566942,65.4788871 279.84566,70.1277938 280.98866,72.3901582 C283.242558,76.8510343 283.951288,83.5047775 282.752549,88.9488454 C282.493963,90.1299457 282.156002,90.9924876 281.91576,91.4489821 C281.136121,90.9071154 279.497821,89.53869 277.567067,87.6502701 C271.048438,81.2748686 268.256201,71.8825109 269.493041,60.4884915 L269.826768,57.4196769 Z M90.1728435,57.4197474 L90.5062186,60.4882093 C91.7430578,71.8818759 88.9515266,81.2745864 82.43325,87.6503407 C80.5024968,89.5387606 78.8634908,90.9068331 78.0838518,91.4490527 C77.8443156,90.9925582 77.5060016,90.1300163 77.2474155,88.948916 L77.2043766,88.7527715 C76.0649041,83.3468036 76.7838654,76.7981881 79.0113048,72.3902288 C80.1539523,70.1285699 83.4323169,65.4789577 86.3190982,62.0270263 L90.1728435,57.4197474 Z M240.243911,42.8354873 C241.320236,43.4214514 244.107887,45.1761684 246.65847,46.8747938 C256.807184,53.6386038 262.048405,62.0181363 260.337432,68.7434935 C260.191029,69.3171103 260.04004,69.7552604 259.923624,70.0420688 C258.172082,69.4434047 253.294575,66.2116067 250.116399,63.0263754 C245.456204,58.3598299 243.198072,54.1596567 241.169952,46.3819632 L240.243911,42.8354873 Z M119.755631,42.8354521 L118.829942,46.3819279 C116.801116,54.1596214 114.544043,58.3597946 109.883142,63.0263402 C106.705672,66.2115715 101.828518,69.4433695 100.076623,70.0420335 C99.9602067,69.7552251 99.8085122,69.317075 99.6624621,68.7434582 C97.9514895,62.018101 103.192357,53.6385685 113.341776,46.8747586 C113.6249,46.6862184 113.910973,46.4969683 114.197323,46.3086871 L114.769602,45.9339137 C116.863514,44.5681285 118.876613,43.3146289 119.755631,42.8354521 Z M156.544012,40.0000353 C155.537184,41.4972245 152.961553,44.4573836 148.514435,48.3612234 C142.667495,53.4920246 138.147352,55.586114 132.914245,55.586114 C132.487737,55.586114 132.046059,55.5720028 131.601911,55.5437806 C131.236081,55.5208501 130.981728,55.4996834 130.777469,55.4749889 L130.463144,55.4361834 L130.496658,55.244625 C130.554867,54.906311 130.677281,54.4498165 130.800753,54.0060219 C132.848276,46.5849868 136.927799,43.8855306 149.779143,41.4467773 C152.456375,40.9391299 155.131489,40.3637493 156.544012,40.0000353 Z M203.455106,39.9997883 C204.866923,40.3635023 207.543449,40.9381774 210.221033,41.4468831 C223.071672,43.8856365 227.151195,46.5850927 229.199424,54.0075389 C229.322896,54.4509806 229.444604,54.9064169 229.503165,55.2436725 L229.536679,55.4369948 L229.222354,55.474742 C229.018449,55.4997883 228.764096,55.5209559 228.398618,55.5438864 C227.953765,55.5721087 227.51244,55.5862198 227.085931,55.5862198 C221.852825,55.5862198 217.332682,53.4921304 211.485036,48.3613292 C207.037566,44.4574894 204.462287,41.4969776 203.455106,39.9997883 Z" id="case_certificate" fill="#FFFFFF"></path>
            </g>
        </g>
    </g>
</svg>