<?xml version="1.0" encoding="UTF-8"?>
<svg width="100px" height="107px" viewBox="0 0 100 107" version="1.1" xmlns="http://www.w3.org/2000/svg" xmlns:xlink="http://www.w3.org/1999/xlink">
    <title>1825A46A-098D-41EF-BDD0-207C081370AE</title>
    <g id="Case" stroke="none" stroke-width="1" fill="none" fill-rule="evenodd">
        <g id="Web_Home_Index" transform="translate(-542, -4574)" fill="#000000">
            <g id="circular_blue" transform="translate(482, 4534)">
                <path d="M80.3681507,146.148353 C80.1162673,146.266077 79.8138192,146.325764 79.4696256,146.325764 C78.9112959,146.325764 78.4222282,146.155194 78.0157106,145.747524 C77.6093106,145.339854 77.4032883,144.826138 77.4032883,144.220649 C77.4032883,143.615042 77.6093106,143.101326 78.0157106,142.693656 C78.4222282,142.285986 78.9112959,142.115416 79.4696256,142.115416 C79.8138192,142.115416 80.1162673,142.175221 80.3681507,142.292828 C80.5865202,142.394863 80.8153554,142.55175 81.049835,142.760303 L81.4916305,142.305331 C80.9389452,141.731927 80.2687849,141.441392 79.4977302,141.441392 C78.6854005,141.441392 78.0030106,141.70633 77.4696105,142.228775 C76.936916,142.750277 76.6669234,143.420172 76.6668058,144.220531 L76.6668058,144.220649 C76.6669234,145.021008 76.936916,145.691021 77.4696105,146.212405 C78.0030106,146.73485 78.6854005,146.999788 79.4977302,146.999788 C80.2687849,146.999788 80.9389452,146.709371 81.4916305,146.135849 L81.049835,145.680995 C80.8153554,145.88943 80.5865202,146.046317 80.3681507,146.148353 M87.7933947,144.529516 L87.7933947,143.936059 L85.0972314,143.936059 L85.0972314,142.188126 L88.0991355,142.188126 L88.0991355,141.546306 L84.4009656,141.546306 L84.4009656,146.935193 L88.1957966,146.935193 L88.1957966,146.293373 L85.0972314,146.293373 L85.0972314,144.529516 L87.7933947,144.529516 Z M91.8092998,144.428506 L91.8092998,142.155888 L93.1432704,142.155888 C93.6843139,142.155888 94.0554362,142.230556 94.2775686,142.384258 C94.5114603,142.545864 94.6301113,142.836399 94.6301113,143.247726 C94.6301113,143.653745 94.5178103,143.95643 94.2963835,144.147408 C94.077426,144.336498 93.6923102,144.428506 93.1191639,144.428506 L91.8092998,144.428506 Z M94.5930696,146.935158 L95.4872438,146.935158 L94.0549658,144.941043 L94.2258279,144.890084 C94.9826539,144.663719 95.3506012,144.127826 95.3506012,143.251737 C95.3506012,142.655449 95.1799743,142.219232 94.843777,141.95512 C94.4980548,141.683812 93.9042121,141.54627 93.0789472,141.54627 L91.113034,141.54627 L91.113034,146.935158 L91.8092998,146.935158 L91.8092998,145.038006 L93.2489861,145.038006 L94.5930696,146.935158 Z M101.917843,141.546317 L97.8091568,141.546317 L97.8091568,142.164074 L99.5154256,142.164074 L99.5154256,146.935205 L100.211574,146.935205 L100.211574,142.164074 L101.917843,142.164074 L101.917843,141.546317 Z M104.650013,146.93517 L105.346278,146.93517 L105.346278,141.546282 L104.650013,141.546282 L104.650013,146.93517 Z M111.800831,143.984422 L109.305986,143.984422 L109.305986,142.179987 L112.099751,142.179987 L112.105631,141.546306 L108.60972,141.546306 L108.60972,146.935193 L109.305986,146.935193 L109.305986,144.610082 L111.800831,144.610082 L111.800831,143.984422 Z M114.91961,146.93517 L115.615758,146.93517 L115.615758,141.546282 L114.91961,141.546282 L114.91961,146.93517 Z M122.259705,146.148353 C122.007822,146.266077 121.705374,146.325764 121.361298,146.325764 C120.802968,146.325764 120.313783,146.155194 119.907383,145.747524 C119.500983,145.339854 119.294843,144.826138 119.294843,144.220649 C119.294843,143.615042 119.500983,143.101326 119.907383,142.693656 C120.313783,142.285986 120.802968,142.115416 121.361298,142.115416 C121.705374,142.115416 122.007822,142.175221 122.259705,142.292828 C122.478192,142.394863 122.70691,142.55175 122.941507,142.760303 L123.383185,142.305331 C122.830617,141.731927 122.16034,141.441392 121.389285,141.441392 C120.576955,141.441392 119.894683,141.70633 119.361283,142.228775 C118.828471,142.750277 118.558478,143.420172 118.558478,144.220531 L118.558478,144.220649 C118.558478,145.021008 118.828471,145.691021 119.361283,146.212405 C119.894683,146.73485 120.576955,146.999788 121.389285,146.999788 C122.16034,146.999788 122.830617,146.709371 123.383185,146.135849 L122.941507,145.680995 C122.70691,145.88943 122.478192,146.046317 122.259705,146.148353 M128.329777,142.258501 L129.684561,145.339382 L126.975463,145.339382 L128.329777,142.258501 Z M129.958905,145.965043 L130.38412,146.935264 L131.121308,146.935264 L128.754169,141.546258 L127.905385,141.546258 L125.538128,146.935264 L126.275317,146.935264 L126.700767,145.965043 L129.958905,145.965043 Z M136.806558,141.546317 L132.697872,141.546317 L132.697872,142.164074 L134.404141,142.164074 L134.404141,146.935205 L135.100289,146.935205 L135.100289,142.164074 L136.806558,142.164074 L136.806558,141.546317 Z M142.93118,144.529516 L142.93118,143.936059 L140.235017,143.936059 L140.235017,142.188126 L143.236921,142.188126 L143.236921,141.546306 L139.538751,141.546306 L139.538751,146.935193 L143.333465,146.935193 L143.333465,146.293373 L140.235017,146.293373 L140.235017,144.529516 L142.93118,144.529516 Z M112.569675,126.08509 C114.04605,126.08509 116.622857,126.583 118.196951,127.172564 C119.374877,127.614207 124.488038,130.065653 126.646451,131.165866 C124.970991,131.124462 121.991547,130.935844 120.808213,130.764094 C118.458595,130.423072 115.306995,129.391157 114.063924,128.555764 C113.554278,128.21309 112.704436,127.4388 112.208313,126.864688 L111.626582,126.192788 L111.92903,126.132864 C112.089191,126.101015 112.304856,126.08509 112.569675,126.08509 Z M107.430455,126.08509 C107.695391,126.08509 107.910938,126.101015 108.071099,126.132864 L108.373547,126.192788 L107.791934,126.864924 C107.295693,127.4388 106.445969,128.21309 105.93644,128.555764 C104.693134,129.391157 101.541534,130.423072 99.1919165,130.764094 C98.008347,130.935844 95.0290207,131.124462 93.3534436,131.165866 C95.5119735,130.065653 100.625253,127.614443 101.802943,127.172564 C103.377155,126.583 105.954079,126.08509 107.430455,126.08509 Z M90.3145332,122.895863 C92.6687372,122.895863 94.733193,123.265786 96.284945,123.965053 L96.533771,124.077233 L96.0305922,124.511798 C94.7369559,125.628998 92.4229686,126.269875 89.681885,126.269521 C87.8410903,126.269521 85.9062215,125.980872 84.085888,125.434481 C82.7406286,125.03035 81.1163219,124.553674 80.3309209,124.331673 L81.1522418,124.194027 C82.3000509,123.998265 84.2319615,123.64082 85.6250576,123.36558 C87.2007985,123.054165 88.7786561,122.895863 90.3145332,122.895863 Z M129.68569,122.895934 C131.22145,122.895934 132.799307,123.054118 134.375401,123.365533 C135.867063,123.660433 137.978438,124.049819 139.080987,124.233365 L139.669538,124.331626 L139.313065,124.433238 C138.455288,124.679478 137.079631,125.084289 135.914453,125.434434 C134.093767,125.980825 132.158663,126.269592 130.318926,126.269592 C127.577608,126.269592 125.26315,125.629068 123.969514,124.511751 L123.466335,124.077186 L123.715278,123.965006 C125.26703,123.265738 127.331486,122.895934 129.68569,122.895934 Z M127.066127,45.5639177 C128.691962,46.5344932 130.849786,47.8964602 132.258428,48.8169026 L132.339097,48.868805 C144.162681,56.5416358 151.218943,69.5226698 151.218943,83.6119387 C151.218943,106.413856 132.728093,124.964493 110.000147,124.964493 C87.2720832,124.964493 68.7812338,106.413856 68.7812338,83.6119387 C68.7812338,69.5226698 75.8377309,56.5416358 87.6604916,48.868805 L87.7418656,48.8169026 C89.1507427,47.8962242 91.3089198,46.5339034 92.9341672,45.5639177 C91.6580522,46.5362626 89.7938566,47.9038916 87.3879119,49.6318887 C81.8694085,53.3202642 77.3545579,58.2197358 74.3332511,63.7984215 C68.113543,74.9769076 67.5570947,89.0475388 72.8796889,100.516679 C75.3413725,105.960772 79.0979859,110.924296 83.7435994,114.87124 C88.4307231,118.853572 93.9367618,121.723422 99.6630513,123.169495 C102.990687,124.048297 106.458846,124.493479 109.970984,124.493479 L110.02931,124.493479 C113.541684,124.493479 117.009842,124.047943 120.33395,123.170438 C126.063532,121.723422 131.569571,118.853572 136.256695,114.87124 C140.902308,110.924296 144.658921,105.960772 147.119194,100.519628 C152.443082,89.0475388 151.886633,74.9769076 145.668807,63.8017243 C142.645736,58.2197358 138.130886,53.3202642 132.620966,49.6381406 C130.206555,47.9041276 128.341771,46.5362626 127.066127,45.5639177 Z M149.918627,114.324023 C149.431794,114.680262 148.649685,115.234321 147.591234,115.958124 C144.572867,118.022661 143.794287,118.405559 140.647391,119.371416 C139.857874,119.613706 138.846225,119.747119 137.798357,119.747119 C136.51354,119.747119 135.299161,119.54989 134.466371,119.2058 L133.959311,118.996185 L134.64029,118.40438 C135.205793,117.913784 136.485906,117.112363 137.435819,116.654442 C137.608563,116.57128 137.760963,116.495668 137.904543,116.423948 C138.57047,116.09307 139.051659,115.853965 140.602941,115.358297 C142.11671,114.874543 147.762214,114.330511 149.918627,114.324023 Z M70.0817139,114.323999 C72.2377744,114.330487 77.8836306,114.874519 79.397165,115.358273 C80.9483291,115.853588 81.429518,116.093046 82.0953274,116.423924 C82.2391431,116.495644 82.3916608,116.571257 82.5642867,116.654418 C83.514435,117.112339 84.7945481,117.91376 85.3596981,118.404356 L86.0407945,118.996162 L85.534088,119.205777 C84.7009444,119.549984 83.4865655,119.747096 82.2021015,119.747096 C81.1542338,119.747096 80.1423494,119.613683 79.3528326,119.371393 C76.2058193,118.405536 75.4272386,118.022637 72.4088716,115.9581 C71.3505382,115.234297 70.5684297,114.680239 70.0817139,114.323999 Z M80.625949,94.7782868 C81.6446537,97.4727307 83.0247206,99.9891729 84.7013559,102.274177 C88.4319814,101.257244 92.2492726,100.561515 96.0899647,100.08071 C95.5836109,98.3898703 95.1533396,96.6192896 94.8131442,94.7779329 L95.4614322,94.7779329 C95.8035091,96.6066679 96.2280184,98.3535386 96.7244944,100.002149 C96.8384416,99.9885831 96.9520361,99.9732483 97.0661009,99.9599188 C99.2114604,99.7063047 101.36611,99.5366781 103.522641,99.4115224 C105.573926,99.2981628 107.628504,99.2461424 109.682964,99.2352901 L109.682964,94.7779329 L110.317377,94.7779329 L110.317377,99.2352901 C112.371955,99.2455526 114.42618,99.2987526 116.478171,99.4103428 C118.634466,99.5363242 120.789116,99.7048891 122.934358,99.9587392 C123.04854,99.9720687 123.162017,99.9874035 123.276199,100.000969 C123.77244,98.3525949 124.197067,96.6060781 124.539026,94.7779329 L125.187197,94.7779329 C124.847001,96.6190537 124.4172,98.3892805 123.910729,100.07953 C127.751774,100.560336 131.568712,101.256064 135.299455,102.273588 C136.975856,99.988819 138.355922,97.4723768 139.374392,94.7779329 L140.068306,94.7782868 C138.486921,99.0808804 135.983021,103.026291 132.653975,106.36574 C126.602659,112.435612 118.557678,115.778718 110.000112,115.778718 C101.442663,115.778718 93.3974468,112.435612 87.3463664,106.36574 C84.0173197,103.026291 81.5131852,99.0808804 79.9321526,94.7782868 L80.625949,94.7782868 Z M110.317377,99.8699153 L110.317377,115.129584 C115.702765,114.909353 120.422227,109.11362 123.12768,100.47741 C123.046188,100.469742 122.964697,100.460541 122.883087,100.452874 C120.741491,100.258948 118.596249,100.102179 116.448067,100.011939 C114.406189,99.918043 112.361606,99.8705051 110.317377,99.8699153 Z M109.682964,99.8699153 C107.638735,99.8699153 105.594622,99.9182789 103.552509,100.011349 C101.40421,100.101589 99.2590854,100.257532 97.1172537,100.451694 C97.0356444,100.459362 96.9539176,100.468563 96.8723083,100.47623 C99.5779966,109.113031 104.297576,114.909353 109.682964,115.129584 L109.682964,99.8699153 Z M96.2286064,100.540872 C92.3676883,100.930848 88.5224101,101.494579 84.7151143,102.292461 C89.7353778,109.123411 97.4326371,113.8588 106.243146,114.917256 C103.32532,113.555053 100.656321,110.605461 98.5016715,106.28305 C97.6259593,104.525799 96.8683102,102.597152 96.2286064,100.540872 Z M123.771499,100.542052 C123.131796,102.597742 122.374382,104.526153 121.498905,106.28305 C119.344255,110.605461 116.675256,113.555053 113.757313,114.917256 C122.567939,113.858446 130.265434,109.123411 135.28558,102.291871 C131.477813,101.495169 127.6323,100.931674 123.771499,100.542052 Z M63.6815246,102.649102 C63.8057024,102.694516 63.9209432,102.73828 64.0021997,102.768949 C64.3354571,102.894695 64.8439276,103.018081 65.3822665,103.149134 C65.8068934,103.252114 66.2459842,103.35875 66.6098157,103.46975 C68.6320558,104.085502 71.4019496,105.179699 73.110923,106.404479 C74.3945639,107.324803 76.4010465,109.538678 77.014292,110.711791 C77.0583892,110.79566 77.1237707,110.921052 77.1744531,111.027334 C77.0974299,111.032288 77.0127633,111.038894 76.9203355,111.046207 C76.6367021,111.068974 76.2836891,111.097284 75.8604733,111.097284 L75.7887418,111.097048 C75.4718298,111.095279 74.8821028,111.091976 74.0054499,110.900409 C73.1123341,110.705303 71.9498136,110.331251 71.4668608,110.084243 C69.8430245,109.254158 67.0530223,106.862871 65.8338221,105.256727 C65.157547,104.366129 64.229859,103.237133 63.7658385,102.739695 C63.7444367,102.716693 63.7153913,102.685669 63.6815246,102.649102 Z M156.318534,102.649102 C156.284785,102.685669 156.255622,102.716693 156.234103,102.739931 C155.770082,103.237369 154.842277,104.366482 154.166354,105.257081 C152.947154,106.862871 150.15727,109.254158 148.533433,110.084243 C148.050598,110.331251 146.88796,110.705303 145.994844,110.900409 C145.118191,111.091976 144.528464,111.095279 144.211552,111.097048 L144.139703,111.097284 C143.716605,111.097284 143.363474,111.068974 143.079841,111.046207 C142.987413,111.038894 142.902629,111.032406 142.825841,111.027334 C142.876523,110.921052 142.941787,110.79566 142.985649,110.711791 C143.599247,109.538678 145.605848,107.324803 146.889371,106.404479 C148.598227,105.179699 151.368121,104.085502 153.390361,103.46975 C153.75431,103.35875 154.193401,103.252114 154.618027,103.149134 C155.156249,103.018081 155.664719,102.894695 155.998094,102.768949 C156.079351,102.73828 156.194356,102.694516 156.318534,102.649102 Z M160.000194,88.9793225 L158.692447,91.4207421 C157.791687,93.2196332 156.629872,95.3222714 156.102822,96.1080035 C154.955236,97.8174808 153.049295,99.2981156 151.12889,99.9732011 C150.302567,100.263383 149.697906,100.468869 149.438026,100.468869 L149.423915,100.468869 C149.405923,100.330148 149.464249,99.9688366 149.490708,99.8055799 C149.845837,97.6082197 151.383125,94.596935 154.016847,92.824113 C154.723108,92.3488519 154.879036,92.2520067 155.060011,92.1401806 C155.270031,92.0099526 155.508392,91.8623846 156.592831,91.1368122 C156.828898,90.9790406 157.084662,90.8099743 157.346234,90.6390336 L157.873006,90.297444 C158.487007,89.9025198 159.082217,89.531582 159.482199,89.3043025 L159.499602,89.2936861 C159.643771,89.1992001 159.822394,89.0867841 160.000194,88.9793225 Z M60.000194,88.9793343 C60.1776413,89.0867959 60.3561468,89.1992119 60.5006682,89.2936979 L60.5177191,89.3043143 C61.203284,89.6937005 62.462936,90.5053837 63.4073222,91.136824 C64.4916436,91.8623964 64.7300038,92.0099644 64.9402594,92.1401923 C65.1211169,92.2520185 65.2770447,92.3488637 65.9833058,92.8241248 C68.6170275,94.5969468 70.1543156,97.6082315 70.5095629,99.8055917 C70.5359036,99.9688484 70.5943471,100.330042 70.5764731,100.468881 L70.5621268,100.468881 C70.3022471,100.468881 69.6973507,100.263395 68.8713803,99.9732129 C66.9508578,99.2981274 65.0450344,97.8174926 63.8974482,96.1083691 C63.5018961,95.5188047 62.7496194,94.1885469 62.0165085,92.7982234 L61.7251773,92.2405038 C61.5809138,91.9616557 61.4394217,91.6840349 61.3037081,91.4130865 L60.000194,88.9793343 Z M121.310216,76.2422889 C123.018366,76.2422889 124.305299,76.5803624 125.07753,76.8995624 L124.422304,78.7023462 C123.837281,78.4394132 122.714154,78.0638283 121.239895,78.0638283 C119.110528,78.0638283 118.221411,79.0590574 118.221411,79.9793819 C118.221411,81.1999148 119.227533,81.8008034 121.497305,82.5896024 C124.375502,83.6034692 125.756157,84.8617493 125.756157,86.8334518 C125.756157,89.2372422 123.533069,91.0400259 119.508344,91.0400259 C117.823595,91.0400259 116.045242,90.6456854 115.179408,90.1762043 L115.787714,88.3547829 C116.747152,88.824146 118.197892,89.1996129 119.672151,89.1996129 C121.801518,89.1996129 122.994847,88.3171536 122.994847,87.0212443 C122.994847,85.8007114 122.082329,85.0495417 119.952962,84.3360012 C117.285374,83.4720617 115.48362,82.1763882 115.48362,80.2233233 C115.48362,77.9510585 117.753392,76.2422889 121.310216,76.2422889 Z M83.3572489,76.2422417 C85.3018779,76.2422417 86.8247021,76.5429219 87.5744726,76.843956 L86.9400605,78.5925961 C86.4752169,78.4117633 85.9008946,78.264903 85.2521362,78.176433 C84.8217472,78.1178068 84.35855,78.084896 83.8726573,78.084896 C80.1707245,78.084896 77.8747288,80.1061418 77.8747288,83.6410513 C77.8747288,87.1760787 80.1707245,89.1973245 83.8726573,89.1973245 C85.0909167,89.1973245 86.3326946,88.9904225 87.1059836,88.6896243 L87.5744726,90.4383824 C86.8247021,90.7392985 85.3018779,91.0400967 83.3572489,91.0400967 C78.3666187,91.0400967 75.0162878,88.2289903 75.0162878,83.6410513 C75.0162878,79.0532302 78.3666187,76.2422417 83.3572489,76.2422417 Z M143.951155,76.4491319 L143.951155,78.2730305 L137.297295,78.2730305 L137.297295,82.4284099 L143.358488,82.4284099 L143.358488,84.2334349 L137.297295,84.2334349 L137.297295,89.0092843 L144.349559,89.0092843 L144.349559,90.833183 L135.488603,90.833183 C135.255887,90.833183 135.023172,90.7441231 134.845724,90.5661214 C134.668277,90.3880017 134.579495,90.1546766 134.579495,89.9212337 L134.579495,77.3610812 C134.579495,77.1276382 134.668277,76.8943132 134.845724,76.7161935 C135.023172,76.5381917 135.255887,76.4491319 135.488603,76.4491319 L143.951155,76.4491319 Z M103.037077,76.4491083 L108.519597,90.8331594 L105.731477,90.8331594 L101.373612,78.2575541 L98.3519526,86.9779883 L101.901603,86.9779883 C102.236507,86.9779883 102.574585,87.0782544 102.868332,87.2876335 C103.162078,87.4971306 103.367395,87.7847172 103.477344,88.1020298 L103.667726,88.6514879 L97.7717506,88.6514879 L97.0157478,90.8331594 L94.2275095,90.8331594 L99.7101472,76.4491083 L103.037077,76.4491083 Z M159.227328,76.2943093 C159.082572,76.9236263 158.892542,77.928764 158.745669,78.8089821 C157.951213,83.5646603 156.57197,86.271608 154.133687,87.8597045 C153.35593,88.3664609 152.729984,88.6811784 152.490448,88.7676431 C152.277723,88.3033523 152.303241,86.1570688 152.860042,84.3959249 C153.387915,82.7254924 155.685909,79.2142929 157.402644,77.7731747 C157.578327,77.6258426 157.877836,77.385322 158.1951,77.1301743 C158.49555,76.888828 158.81693,76.6307314 159.081749,76.4129771 C159.134077,76.3695678 159.182643,76.3302871 159.227328,76.2943093 Z M60.772848,76.2943329 C60.8174156,76.3303107 60.8659814,76.3695914 60.9186628,76.4130007 C61.1832462,76.6305191 61.5043916,76.8887337 61.8048407,77.1301979 C62.1222232,77.3853456 62.4219667,77.6258662 62.5974149,77.7731983 C64.3143845,79.2143165 66.6121441,82.725516 67.1403701,84.3957126 C67.6967007,86.1569744 67.7223359,88.3033759 67.509846,88.7676667 C67.2701923,88.681202 66.6443644,88.3664845 65.8664894,87.859964 C63.4284418,86.2715137 62.0491982,83.5650378 61.2547425,78.8090057 C61.1076342,77.9286697 60.9173693,76.923296 60.772848,76.2943329 Z M64.635871,64.1591198 C64.6523339,64.1840093 64.6691497,64.2091348 64.6858478,64.2343783 C64.7775701,64.3728634 64.8825803,64.5314017 65.0028775,64.710819 C65.2220701,65.0382762 65.3979886,65.2850486 65.5682627,65.5237998 C65.8500146,65.9194379 66.1160091,66.2927815 66.5648601,67.006204 C67.51395,68.5152672 67.9571565,69.8644945 68.3305131,71.425814 C68.6658872,72.8267078 68.579927,74.3161897 68.052289,76.2553353 C67.984438,76.5044669 67.8730778,76.9135525 67.7938204,77.0113414 C67.6797556,76.997776 67.4032954,76.8406531 67.1536463,76.6916696 L66.9991296,76.5985991 C64.9023358,75.3337132 64.0834209,72.5239043 64.4220876,67.7551325 L64.4613786,67.1894085 C64.5444681,65.9650491 64.6127366,64.7770103 64.635871,64.1591198 Z M155.364317,64.1591905 C155.387452,64.7769789 155.455808,65.9650926 155.538921,67.189397 L155.578218,67.7550853 C155.916885,72.5236212 155.09797,75.333784 153.000941,76.5985519 L152.847365,76.6912685 C152.597598,76.84037 152.320668,76.9977288 152.206485,77.0112942 C152.12711,76.9136232 152.01575,76.5044198 151.947782,76.2552881 C151.420261,74.3162604 151.334301,72.8267786 151.669793,71.4257668 C152.043149,69.8645653 152.486356,68.51522 153.435328,67.0062748 C153.784617,66.4509319 154.023361,66.1016012 154.244842,65.7876722 L154.432631,65.5232808 C154.602435,65.2847655 154.778353,65.0379931 154.997311,64.7108898 C155.117725,64.5314725 155.222383,64.3731701 155.313988,64.234685 C155.331038,64.2093236 155.347737,64.1839621 155.364317,64.1591905 Z M110.000147,51.5036791 C118.557714,51.5036791 126.602694,54.8466676 132.653892,60.916539 C135.982939,64.2559886 138.486956,68.201517 140.068341,72.5043466 L139.374427,72.5043466 C138.355958,69.8099026 136.975891,67.2934604 135.299138,65.0086918 C131.568748,66.0256256 127.751221,66.7207643 123.910412,67.2019234 C124.416883,68.8925271 124.847037,70.6629898 125.187232,72.5043466 L124.538944,72.5043466 C124.19675,70.6759654 123.772358,68.9290948 123.275999,67.2804848 L122.93404,67.3227145 C120.788798,67.5762107 118.634267,67.7457193 116.477853,67.8711109 C114.426215,67.9842346 112.37246,68.036137 110.317412,68.0471073 L110.317412,72.5047004 L109.682882,72.5047004 L109.682882,68.0471073 C107.629127,68.0367268 105.574079,67.9838807 103.522441,67.8720546 C101.366027,67.7463091 99.2112605,67.5773903 97.065901,67.3235402 C96.9519538,67.3103287 96.8382417,67.2948759 96.7242945,67.2813105 C96.2279361,68.9296846 95.8035444,70.6763193 95.4614675,72.5047004 L94.8130619,72.5043466 C95.1532573,70.6633437 95.5832934,68.8931169 96.0895296,67.2028671 C92.2489551,66.7219439 88.4316639,66.0262154 84.701156,65.0086918 C83.0247558,67.2936963 81.6445714,69.8102565 80.6259843,72.5047004 L79.9321879,72.5043466 C81.5132205,68.201753 84.0172374,64.2559886 87.3462841,60.916539 C93.3974821,54.8466676 101.442698,51.5036791 110.000147,51.5036791 Z M110.317412,52.1528134 L110.317412,67.4123642 C112.361054,67.4123642 114.405872,67.3640005 116.448102,67.271048 C118.596284,67.1806906 120.741408,67.0248653 122.883123,66.8305851 C122.964967,66.8229177 123.046459,66.8138348 123.128186,66.8061673 C120.422497,58.1696028 115.702683,52.3729269 110.317412,52.1528134 Z M109.682882,52.1528134 C104.297846,52.3729269 99.5783846,58.169013 96.8725788,66.8052237 C96.9540704,66.8128911 97.0356797,66.822092 97.117289,66.8297594 C99.2591207,67.0236857 101.404127,67.1801008 103.552309,67.2704582 C105.59454,67.3643544 107.637947,67.4115384 109.682882,67.4123642 L109.682882,52.1528134 Z M113.757348,52.3650236 C116.675291,53.7273444 119.344291,56.6768181 121.498587,60.999229 C122.374299,62.7564801 123.132066,64.6852453 123.77177,66.7414073 C127.63257,66.3517852 131.478319,65.788054 135.285615,64.990408 C130.265116,58.1592223 122.567974,53.4238332 113.757348,52.3650236 Z M106.242946,52.3650236 C97.4324372,53.4238332 89.7351779,58.1592223 84.715032,64.990408 C88.5226806,65.7871103 92.3679588,66.3506056 96.2287592,66.7405815 C96.8683454,64.6846555 97.625877,62.7561263 98.5017067,60.999229 C100.656356,56.6768181 103.325003,53.7273444 106.242946,52.3650236 Z M148.791196,53.4964612 L149.267917,54.8903954 C151.355421,60.9901106 151.426682,62.8122399 149.69078,65.7221969 L149.353289,66.2874615 L149.030497,65.9161232 C147.968518,64.6946467 147.252262,62.3856962 147.248705,60.170642 C147.246029,58.5536454 147.433472,57.5706841 148.160665,55.3892485 L148.791196,53.4964612 Z M71.2090507,53.4964612 L71.8396999,55.3892485 C72.566775,57.5706841 72.7542176,58.5538813 72.7513116,60.170642 C72.7478676,62.3856962 72.0318462,64.6946467 70.9695146,65.9161232 L70.6468405,66.2874615 L70.3093497,65.7221969 C68.5735652,62.8122399 68.6447088,60.9901106 70.7322127,54.8903954 L71.2090507,53.4964612 Z M139.942376,45.8245623 L141.227075,47.3651208 C142.1891,48.5193601 143.282006,50.0738379 143.663006,50.8303159 C144.414305,52.321921 144.650549,54.5467659 144.250969,56.3671257 C144.164774,56.762056 144.05212,57.0504684 143.97204,57.2031087 C143.71216,57.0219221 143.16606,56.5643549 142.522475,55.9329147 C140.349599,53.8011403 139.418854,50.6605713 139.831133,46.8506969 L139.942376,45.8245623 Z M80.0577415,45.8245859 L80.1688665,46.8506026 C80.5811462,50.660359 79.6506359,53.8010459 77.4778773,55.9329383 C76.834293,56.5643785 76.2879577,57.0218277 76.0280781,57.2031323 C75.9482327,57.050492 75.8354614,56.7620796 75.749266,56.3671493 L75.7349197,56.3015635 C75.3550956,54.4939434 75.5947493,52.3042506 76.337229,50.8303395 C76.7181115,50.0740974 77.8108996,48.5193837 78.7731599,47.3651444 L80.0577415,45.8245859 Z M130.081425,40.947975 C130.4402,41.1439067 131.369416,41.7306401 132.219611,42.2986178 C135.602515,44.5602662 137.349588,47.3621718 136.779264,49.6109626 C136.730463,49.8027657 136.680134,49.9492721 136.641328,50.0451736 C136.057481,49.8449954 134.431646,48.7643632 133.372254,47.6993017 C131.818855,46.1389259 131.066145,44.7344933 130.390105,42.1338276 L130.081425,40.947975 Z M89.9186694,40.9479632 L89.6101064,42.1338158 C88.9338313,44.7344815 88.1814738,46.1389141 86.6278403,47.6992899 C85.5686837,48.7643514 83.9429659,49.8449836 83.3590011,50.0451618 C83.3201955,49.9492603 83.2696307,49.8027539 83.2209473,49.6109508 C82.6506232,47.36216 84.397579,44.5602544 87.7807182,42.298606 C88.6300896,41.7312181 89.5590712,41.1446026 89.9186694,40.9479632 Z M102.181462,39.9998709 C101.845852,40.5004934 100.987309,41.4902964 99.5049363,42.7956426 C97.5559564,44.5112538 96.0492424,45.2114648 94.3048736,45.2114648 C94.1627042,45.2114648 94.0154782,45.2067464 93.8674292,45.1973096 C93.7454856,45.1896422 93.6607014,45.1825646 93.5926152,45.1743074 L93.4878402,45.1613318 L93.4990115,45.0972795 C93.5184143,44.9841558 93.5592189,44.8315154 93.6003763,44.6831217 C94.2828838,42.2017136 95.6427247,41.2990831 99.9265058,40.4836252 C100.818916,40.3138806 101.710621,40.1214877 102.181462,39.9998709 Z M117.818491,39.9997883 C118.147915,40.0849201 118.683908,40.2046166 119.281993,40.3271163 L119.806473,40.4320619 L120.0738,40.4836605 C124.357346,41.2991185 125.717187,42.201749 126.399929,44.6836289 C126.441087,44.8319047 126.481656,44.9841911 126.501177,45.096961 L126.512348,45.1616031 L126.407573,45.1742248 C126.339604,45.1826 126.25482,45.1896776 126.132994,45.197345 C125.98471,45.2067818 125.837602,45.2115002 125.695432,45.2115002 C123.951063,45.2115002 122.444349,44.5112892 120.495134,42.7956779 C119.012644,41.4903318 118.154218,40.5004109 117.818491,39.9997883 Z" id="professional_validation"></path>
            </g>
        </g>
    </g>
</svg>