<?xml version="1.0" encoding="UTF-8"?>
<svg width="460px" height="220px" viewBox="0 0 460 220" version="1.1" xmlns="http://www.w3.org/2000/svg" xmlns:xlink="http://www.w3.org/1999/xlink">
    <title>74422B90-4683-442C-909C-53E8648380EC</title>
    <defs>
        <linearGradient x1="50%" y1="0%" x2="50%" y2="100%" id="linearGradient-1">
            <stop stop-color="#009090" offset="0%"></stop>
            <stop stop-color="#252525" offset="100%"></stop>
        </linearGradient>
        <linearGradient x1="50%" y1="0%" x2="50%" y2="100%" id="linearGradient-2">
            <stop stop-color="#00E6E6" offset="0%"></stop>
            <stop stop-color="#00C8C8" offset="100%"></stop>
        </linearGradient>
    </defs>
    <g id="Case" stroke="none" stroke-width="1" fill="none" fill-rule="evenodd">
        <g id="Web_Home_Index" transform="translate(-772, -2972)">
            <g id="element_blue" transform="translate(772, 2972)">
                <path d="M110,0 L360,0 C415.228475,-1.01453063e-14 460,44.771525 460,100 L460,110 C460,170.751322 410.751322,220 350,220 L0,220 L0,220 L0,110 C-7.43989126e-15,49.2486775 49.2486775,7.43989126e-15 110,0 Z" id="element_panel_blue" fill="url(#linearGradient-1)" opacity="0.348818824"></path>
                <g transform="translate(330, 100) scale(1, -1) translate(-330, -100)translate(230, 20)" fill="url(#linearGradient-2)" id="Oval">
                    <circle opacity="0.90218099" cx="75" cy="75" r="75"></circle>
                    <circle opacity="0.246512277" cx="150" cy="110" r="50"></circle>
                </g>
            </g>
        </g>
    </g>
</svg>