<?xml version="1.0" encoding="UTF-8"?>
<svg width="144px" height="156px" viewBox="0 0 144 156" version="1.1" xmlns="http://www.w3.org/2000/svg" xmlns:xlink="http://www.w3.org/1999/xlink">
    <title>6A165A3E-ADD4-4D5C-A864-96FD1C85EA1B</title>
    <g id="Case" stroke="none" stroke-width="1" fill="none" fill-rule="evenodd">
        <g id="Web_Home_Index" transform="translate(-380, -1244)">
            <g id="enhance_sign_up" transform="translate(208, 1244)">
                <g id="logo" transform="translate(172, 0)">
                    <path d="M72.0002476,0 C75.7586018,0 78.6830914,1.17401102 81.5606426,2.49863921 L82.3107608,2.84693814 C82.4357755,2.9053331 82.5608309,2.96384456 82.6859915,3.0223884 L83.5016764,3.40252392 C84.0473322,3.65511094 84.5975966,3.90488393 85.1577326,4.14499865 C114.092713,16.547539 134.036515,13.6925784 140.382283,24.2812762 C147.649648,36.4078032 142.24114,70.040938 139.090411,91.7477826 C134.525042,123.19694 87.8305187,155.999918 71.9999654,155.999918 C56.1696943,155.999918 9.47503007,123.19694 4.90966134,91.7477826 C1.75879067,70.040938 -3.64957602,36.4078032 3.61764773,24.2812762 C9.96369795,13.6925784 29.9073588,16.547539 58.8424804,4.14499865 C59.4025976,3.90488393 59.9528533,3.65511094 60.4985079,3.40252392 L61.3141967,3.0223884 L61.6894326,2.84693814 L62.4395667,2.49863921 C65.3171918,1.17401102 68.2418935,0 72.0002476,0 Z M71.9999654,2.99988174 C66.9102277,2.99988174 63.4173036,5.2539911 59.3914028,6.98570702 C31.6616525,18.9111506 12.5487129,16.1661156 6.46682277,26.3472844 C-0.497576465,38.0075802 4.68571796,70.3470081 7.70521414,91.2191803 C12.080224,121.458451 56.8289656,153.000037 72.0002476,153.000037 C87.1715297,153.000037 131.919848,121.458451 136.294858,91.2191803 C139.314354,70.3470081 144.497648,38.0075802 137.533249,26.3472844 C131.451359,16.1661156 112.338419,18.9111506 84.6086692,6.98570702 C83.9376857,6.6970877 83.2815071,6.39395745 82.6302727,6.08917045 L81.8505334,5.72345348 C78.8657918,4.32479713 75.9022059,2.99988174 71.9999654,2.99988174 Z M89.151827,114.140103 L71.9121378,144.000067 C62.8131504,143.916811 41.7492082,130.882657 28.172482,114.140103 L89.151827,114.140103 Z M131.371857,40.1271683 C133.404563,53.2084533 130.038498,74.7387678 127.909272,89.6337543 C127.799487,90.4011166 127.659364,91.1694668 127.492712,91.9380992 L97.5796899,40.1271683 L131.371857,40.1271683 Z M60.5021732,15.7363899 L29.2684922,69.8347323 L12.5243854,40.8331473 C12.9866655,37.4761133 13.7815445,34.6339938 15.0140092,32.5458312 C20.2633437,23.6525837 36.6783793,25.9644076 60.5021732,15.7363899 Z" id="Path" fill="#FF9527"></path>
                    <path d="M12.0002774,49.6569963 C11.9954867,62.2191334 14.4224572,77.9629034 16.0908142,89.6337825 C17.0379522,96.258245 20.1611651,102.953686 24.5212171,109.274337 L46.420255,109.274337 L12.0002774,49.6569963 Z M125.523915,98.2594832 L114.731453,79.5666315 L78.3037528,142.661091 C92.6668914,137.540733 117.384624,118.474501 125.523915,98.2594832 L125.523915,98.2594832 Z M130.21459,35.2612611 C129.865199,34.2547153 129.45767,33.3449718 128.986077,32.5458594 C123.697513,23.5861486 107.077302,26.0018302 82.9642305,15.5073947 C79.4634042,13.9835355 76.4259869,11.9997951 72.000036,11.9997951 C70.5135712,11.9997951 69.1857154,12.2268429 67.9423851,12.5817374 L54.848259,35.2612611 L130.21459,35.2612611 Z M72.000036,40.1271965 C91.0946311,40.1271965 106.573677,55.606242 106.573677,74.700696 C106.573677,93.79515 91.0946311,109.274337 72.000036,109.274337 C52.905582,109.274337 37.4263954,93.79515 37.4263954,74.700696 C37.4263954,55.606242 52.905582,40.1271965 72.000036,40.1271965 L72.000036,40.1271965 Z" id="Path" fill="#00C8C8"></path>
                </g>
            </g>
        </g>
    </g>
</svg>