<?xml version="1.0" encoding="UTF-8"?>
<svg width="120px" height="30px" viewBox="0 0 120 30" version="1.1" xmlns="http://www.w3.org/2000/svg" xmlns:xlink="http://www.w3.org/1999/xlink">
    <title>A4BD2EEB-E8C8-44D2-91E8-24B6229B3FB9</title>
    <g id="Case" stroke="none" stroke-width="1" fill="none" fill-rule="evenodd">
        <g id="Web_Home_Index" transform="translate(-20, -20)">
            <g id="logo_wide_small_en" transform="translate(20, 20)">
                <rect id="Rectangle" x="0" y="0" width="120" height="30"></rect>
                <g id="CASEDEEP" transform="translate(0, 9)">
                    <path d="M7.20436033,10.5056779 C4.19302559,10.5056779 2.32528178,8.86661845 2.32528178,5.99997883 C2.32528178,3.13342388 4.19302559,1.49436438 7.20436033,1.49436438 C7.59958372,1.49436438 7.97634981,1.52103434 8.32653061,1.56853227 C8.85425714,1.64024483 9.32144709,1.75937065 9.69956785,1.90601309 L10.2156951,0.487933255 C9.60575732,0.243924294 8.36700122,0 6.78509163,0 C2.72541584,0 0,2.27956185 0,5.99997883 C0,9.72039582 2.72541584,11.9999577 6.78509163,11.9999577 C8.36700122,11.9999577 9.60575732,11.756118 10.2156951,11.5120244 L9.83452631,10.0939446 C9.2055386,10.3379535 8.19538215,10.5056779 7.20436033,10.5056779" id="C" fill="#00C8C8"></path>
                    <path d="M22.7938659,0.167817544 L20.0875,0.167817544 L15.6276902,11.8322417 L17.8957374,11.8322417 L18.5106705,10.0630498 L18.5107551,10.0630498 L23.3068605,10.0630498 L23.1520054,9.61753444 C23.0625975,9.36014817 22.8955504,9.12697652 22.6566215,8.95713545 C22.4176925,8.78720971 22.1426109,8.7060145 21.870154,8.7060145 L18.9826017,8.7060145 L21.4407253,1.63432664 L24.9856286,11.8322417 L27.2536758,11.8322417 L22.7938659,0.167817544 Z" id="A" fill="#00C8C8"></path>
                    <path d="M40.1898506,1.99503995 C39.7140247,1.78176494 38.8003881,1.47721941 37.6011712,1.47721941 C35.8689785,1.47721941 35.1456723,2.28434551 35.1456723,3.03059637 C35.1456723,4.02034819 35.9642284,4.50760411 37.8105516,5.14734447 C40.1518353,5.96954121 41.2748523,6.98985765 41.2748523,8.58878521 C41.2748523,10.5380629 39.4665444,12 36.192574,12 C34.8220768,12 33.3754643,11.6802145 32.6711234,11.2994691 L33.1659993,9.82246133 C33.9464555,10.2031221 35.1266223,10.5075829 36.3258392,10.5075829 C38.0579472,10.5075829 39.0287337,9.79189671 39.0287337,8.74110031 C39.0287337,7.75126382 38.2863775,7.14217276 36.5542695,6.56347697 C34.3842661,5.86294604 32.9186037,4.81223431 32.9186037,3.22846207 C32.9186037,1.38577955 34.7649269,4.23332713e-05 37.6583211,4.23332713e-05 C39.0477837,4.23332713e-05 40.0946854,0.274277248 40.7228265,0.533102852 L40.1898506,1.99503995 Z" id="S" fill="#00C8C8"></path>
                    <path d="M56.399945,11.8322587 L49.1918593,11.8322587 C49.0026296,11.8322587 48.8133152,11.7600381 48.6689588,11.615597 C48.5245177,11.4712405 48.4522971,11.2820108 48.4522971,11.0926965 L48.4522971,0.90739668 C48.4522971,0.718082303 48.5245177,0.528767925 48.6689588,0.384411479 C48.8133152,0.240055033 49.0026296,0.167834477 49.1918593,0.167834477 L56.0758415,0.167834477 L56.0758415,1.64687422 L50.6631944,1.64687422 L50.6631944,5.0166024 L55.5937502,5.0166024 L55.5937502,6.4803175 L50.6631944,6.4803175 L50.6631944,10.3532189 L56.399945,10.3532189 L56.399945,11.8322587 Z" id="E" fill="#00C8C8"></path>
                    <path d="M73.1590764,1.83088 C71.7783345,0.72623569 69.9340434,0.130098601 67.0628317,0.130098601 C65.7040185,0.130098601 64.5642376,0.182676521 63.5999704,0.270306387 L63.5999704,11.7457549 C64.252072,11.8050214 64.9847763,11.8481167 65.810783,11.8699607 L65.810783,10.5710066 L65.810783,7.54104528 L65.810783,1.44505459 C66.2928743,1.3749507 66.690299,1.35750939 67.4354492,1.35750939 C71.3540705,1.35750939 73.234853,3.06828145 73.234853,6.00807295 C73.234853,8.80545535 71.5588789,10.4697455 68.0619815,10.6439892 C67.7218761,10.6594832 67.3697479,10.799437 67.111769,11.0575006 C66.8378728,11.3313968 66.7008823,11.5052172 66.7008823,11.8642033 L66.7008823,11.864288 L67.79198,11.864288 C67.8809645,11.864288 68.6231514,11.8266961 68.9109329,11.7895275 C70.7687707,11.5799778 72.1003214,11.0321853 73.1590764,10.1851812 C74.4389805,9.17748011 75.2259559,7.75228829 75.2259559,6.00807295 C75.2259559,4.28400825 74.4389805,2.83858113 73.1590764,1.83088" id="D" fill="#FF9527"></path>
                    <path d="M88.9335869,11.8322502 L81.7255012,11.8322502 C81.5362715,11.8322502 81.3469571,11.7600296 81.2026007,11.6155885 C81.0581596,11.4712321 80.985939,11.2820024 80.985939,11.092688 L80.985939,0.907388214 C80.985939,0.718073836 81.0581596,0.528759459 81.2026007,0.384403013 C81.3469571,0.240046567 81.5362715,0.16782601 81.7255012,0.16782601 L88.6094834,0.16782601 L88.6094834,1.64686575 L83.1968363,1.64686575 L83.1968363,5.01659394 L88.1273921,5.01659394 L88.1273921,6.48030903 L83.1968363,6.48030903 L83.1968363,10.3532104 L88.9335869,10.3532104 L88.9335869,11.8322502 Z" id="E" fill="#FF9527"></path>
                    <path d="M103.601201,11.8322502 L96.3931152,11.8322502 C96.2038855,11.8322502 96.0145711,11.7600296 95.8702147,11.6155885 C95.7257736,11.4712321 95.653553,11.2820024 95.653553,11.092688 L95.653553,0.907388214 C95.653553,0.718073836 95.7257736,0.528759459 95.8702147,0.384403013 C96.0145711,0.240046567 96.2038855,0.16782601 96.3931152,0.16782601 L103.277097,0.16782601 L103.277097,1.64686575 L97.8644503,1.64686575 L97.8644503,5.01659394 L102.795006,5.01659394 L102.795006,6.48030903 L97.8644503,6.48030903 L97.8644503,10.3532104 L103.601201,10.3532104 L103.601201,11.8322502 Z" id="E" fill="#FF9527"></path>
                    <path d="M114.779004,7.90165699 L113.687822,7.90165699 L113.687822,7.90157233 C113.687822,7.54258621 113.824812,7.18368476 114.098708,6.90978851 C114.372605,6.63589226 114.752588,6.49314448 115.111659,6.49314448 C116.479786,6.50846912 117.7889,5.21789709 117.7889,3.82140723 C117.7889,2.40341206 116.7464,1.50958743 114.973906,1.50958743 C114.287684,1.50958743 113.083557,1.57054733 112.797807,1.61626726 L112.797807,11.8779363 L110.58691,11.8779363 L110.58691,0.350841197 C111.463717,0.228752051 113.15764,0.122072214 114.66335,0.122072214 C116.454809,0.122072214 117.808034,0.426956414 118.684841,1.05221879 C119.504244,1.61626726 119.999881,2.67773164 119.999881,3.74512268 C119.999881,6.44302189 117.521438,7.90165699 114.779004,7.90165699" id="P" fill="#FF9527"></path>
                </g>
            </g>
        </g>
    </g>
</svg>