<?xml version="1.0" encoding="UTF-8"?>
<svg width="124px" height="124px" viewBox="0 0 124 124" version="1.1" xmlns="http://www.w3.org/2000/svg" xmlns:xlink="http://www.w3.org/1999/xlink">
    <title>E04BDF11-519E-4799-A67D-FEFBBAEA4EB7</title>
    <g id="Case" stroke="none" stroke-width="1" fill="none" fill-rule="evenodd">
        <g id="Web_Honors" transform="translate(-540, -60)">
            <g id="avatar_certified" transform="translate(540, 60)">
                <rect id="Rectangle" x="0" y="0" width="124" height="124"></rect>
                <path d="M59.7163405,111.258229 L60.7520925,111.462614 L59.5956522,112.795043 C58.9600771,113.527766 57.9034008,114.485799 57.2476487,114.925957 C55.6656235,115.985622 51.7961257,117.253409 48.8338451,117.68161 C46.7470216,117.98277 40.2025784,118.322416 40.2029521,118.128866 C40.2036994,117.939801 50.0672569,113.204561 51.8342378,112.543951 C54.2730377,111.632998 58.2923683,110.977619 59.7163405,111.258229 Z M72.1655415,112.543951 C73.9321488,113.204187 83.7957063,117.939801 83.7972009,118.128866 C83.7975745,118.322416 77.2531314,117.983144 75.1663078,117.68161 C72.2040272,117.253409 68.3341558,115.985622 66.7525042,114.925957 C66.0967522,114.485799 65.0400759,113.527766 64.4045008,112.795043 L63.2480605,111.462614 L64.2838125,111.258229 C65.7077847,110.977993 69.7271152,111.632998 72.1655415,112.543951 Z M45.382833,108.641572 L46.2511908,109.032034 L45.1672382,109.965033 C42.3275141,112.409064 36.0259421,112.916478 30.185078,111.1693 C29.9069719,111.086014 29.621602,111.000921 29.3346836,110.915687 L28.7604753,110.745525 C27.3282595,110.322124 25.9525813,109.922998 25.3478322,109.756538 L23.8816378,109.352251 L26.3592971,108.93937 C27.7223646,108.713313 30.3068872,108.237285 32.104881,107.883441 C37.1162467,106.895889 42.13658,107.182851 45.382833,108.641572 Z M91.8948984,107.883441 C93.6928921,108.237285 96.2777883,108.713313 97.6404823,108.939743 L100.118142,109.352624 L98.6519472,109.756911 C97.845615,109.978485 95.6687422,110.614433 93.8147013,111.169674 C87.9738372,112.916478 81.6722652,112.409438 78.8325411,109.965407 L77.7485885,109.032034 L78.6169463,108.641572 C81.8631993,107.182851 86.8835326,106.895889 91.8948984,107.883441 Z M62,10 C89.6142375,10 112,32.3857625 112,60 C112,87.6142375 89.6142375,110 62,110 C34.3857625,110 12,87.6142375 12,60 C12,32.3857625 34.3857625,10 62,10 Z M62.1627907,11.1627907 C35.100838,11.1627907 13.1627907,33.100838 13.1627907,60.1627907 C13.1627907,87.2247434 35.100838,109.162791 62.1627907,109.162791 C89.2247434,109.162791 111.162791,87.2247434 111.162791,60.1627907 C111.162791,33.100838 89.2247434,11.1627907 62.1627907,11.1627907 Z M12.1528299,96.9377989 C12.4314937,96.7409147 15.4578653,96.8940662 18.523606,97.1947064 L19.1575705,97.2589459 C21.4776522,97.5017198 23.712897,97.8213352 24.6808707,98.1293621 C26.3030874,98.6461009 26.9848585,98.9386227 27.6552537,99.2636607 L27.9079332,99.3875756 C28.1210794,99.4929439 28.3444559,99.6046215 28.6064156,99.7304434 C29.8114301,100.309224 31.3897189,101.295654 32.1134749,101.921888 L33.4290891,103.061141 L32.2192172,103.560334 C30.2082442,104.388712 26.7131416,104.485113 24.3924145,103.774808 C20.5113336,102.586982 19.5062208,102.09414 15.7910396,99.5611809 C13.7333606,98.1588803 12.0964091,96.9777793 12.1528299,96.9377989 Z M105.475543,97.1944287 C108.541202,96.8937691 111.567369,96.7407102 111.845828,96.9377989 C111.902623,96.9777793 110.265298,98.1585067 108.207619,99.5611809 C104.492064,102.09414 103.487325,102.586608 99.6062439,103.774808 C97.2858904,104.485113 93.7911615,104.388712 91.7798148,103.560334 L90.5699429,103.061141 L91.8855572,101.921888 C92.6093132,101.295654 94.1876019,100.309224 95.3926164,99.7304434 C95.6545761,99.6046215 95.8779526,99.4929439 96.0910988,99.3875756 L96.3437783,99.2636607 C97.0141735,98.9386227 97.6959446,98.6461009 99.3181614,98.1293621 C100.28629,97.8211801 102.521561,97.501474 104.841594,97.2586737 Z M5.15253635,83.384842 C4.01066834,82.1671235 4.07792497,82.1099553 5.86695116,82.7828952 C6.56567274,83.046317 8.01692122,83.3216955 9.03286989,83.6295814 C11.5209913,84.3847238 14.9791027,85.749286 17.1003019,87.2651755 C18.7125926,88.4167584 21.2216383,91.1798847 21.9954631,92.6554203 C22.4550501,93.5316246 22.4460825,93.5790779 21.8968201,93.6134535 C21.500006,93.637367 20.921599,93.7053709 20.1701931,93.7008871 C19.7909405,93.6986452 19.0193575,93.7001398 17.882347,93.4520376 C16.7449627,93.2039354 15.3052973,92.740612 14.681679,92.4233849 C12.6471661,91.3861383 9.17971351,88.424605 7.65635099,86.4237204 C6.83656748,85.3472408 5.70889809,83.9796895 5.15253635,83.384842 Z M118.132455,82.7825216 C119.921481,82.1099553 119.988737,82.1667498 118.846496,83.3840947 C118.290134,83.9789422 117.162465,85.3464935 116.342681,86.4229731 C114.819319,88.4242313 111.351492,91.3857647 109.317353,92.4226376 C108.694108,92.7402383 107.254443,93.2035617 106.117059,93.4516639 C104.980048,93.6997662 104.208465,93.6982716 103.829213,93.7005135 C103.077807,93.7049972 102.499773,93.6369933 102.102586,93.6130798 C101.553323,93.5790779 101.544356,93.5316246 102.003943,92.6550466 C102.778141,91.179511 105.287187,88.4163847 106.899104,87.2648019 C109.020303,85.749286 112.478414,84.3843501 114.966536,83.6292077 C115.982484,83.3209482 117.433733,83.0459433 118.132455,82.7825216 Z M0.0419865552,65.4812728 L0.0720457386,65.4878545 C0.472596297,65.6141474 1.660423,66.3890932 1.660423,66.3890932 C2.53401181,66.883803 4.12687284,67.9098402 5.21941933,68.6388273 C6.5111322,69.4999049 6.81833688,69.6908083 7.06657465,69.8440454 L7.15870744,69.900979 C7.36017301,70.0258631 7.59908644,70.1780759 8.37188674,70.6968799 C11.4712961,72.7766042 13.5824068,76.4181767 14.077864,79.4746166 C14.3285817,81.0189034 14.2194765,81.0458061 11.5557406,80.1131809 C9.13861224,79.2664947 6.71812109,77.3919032 5.27471922,75.2479115 C4.62419821,74.2809107 3.18677471,71.6889151 2.08152419,69.4892499 C2.08152419,69.4892499 0.579459599,66.692869 0.293245301,66.1607943 C0.0510639714,65.709945 -0.0455848137,65.5068221 0.0200500045,65.4832894 L0.0419865552,65.4812728 Z M123.707281,66.1604207 C123.586349,66.3855292 123.247652,67.0159351 122.8971,67.6684014 L122.705952,68.0241765 C122.294612,68.789781 121.919002,69.4888763 121.919002,69.4888763 C120.813752,71.6885415 119.376328,74.280537 118.725807,75.2475378 C117.281658,77.3915295 114.861541,79.2661211 112.444412,80.1128072 C109.780676,81.0454324 109.671571,81.0185298 109.922289,79.474243 C110.417746,76.4181767 112.528483,72.7762306 115.628266,70.6965063 C117.471098,69.4593581 116.278414,70.3067915 118.780734,68.6384536 C119.872906,67.9094665 121.465768,66.8834294 122.33973,66.3887196 C122.33973,66.3887196 123.527557,65.6137738 123.928107,65.4874808 C124.075698,65.4407748 123.993122,65.6275988 123.707281,66.1604207 Z M2.20594895,50.7048486 C2.3732498,50.8419774 2.55913963,50.9923707 2.75044736,51.1463311 L3.13638413,51.456135 C3.5859656,51.8164174 4.01723832,52.1609234 4.26288068,52.3664608 C6.41995006,54.1715539 9.28134575,58.5413662 9.94270254,60.6255742 C10.6892511,62.9814243 10.7834103,66.4974511 10.0996347,66.4974511 C9.84667503,66.4974511 8.81017573,65.9582772 7.79534801,65.2991623 C4.71237912,63.2975304 2.97155351,59.9141486 1.97989196,53.996313 C1.70115062,52.3324589 1.36412021,50.6869135 1.23110155,50.3390473 C1.04614584,49.8547996 1.27295012,49.9399913 2.20594895,50.7048486 Z M122.768678,50.3394209 C122.635285,50.6869135 122.298629,52.3324589 122.019887,53.996313 C121.028226,59.9141486 119.2874,63.2975304 116.204431,65.2991623 C115.189604,65.9582772 114.153104,66.4974511 113.900145,66.4974511 C113.216369,66.4974511 113.310528,62.9814243 114.057077,60.6259479 C114.71806,58.5413662 117.579829,54.1715539 119.736899,52.3668345 C119.982541,52.161297 120.413814,51.8169182 120.863395,51.4566675 L121.249332,51.1468624 C121.44064,50.9928844 121.62653,50.8424444 121.79383,50.7052222 C122.726829,49.940365 122.953633,49.8547996 122.768678,50.3394209 Z M6.79141354,35.7873195 L6.96535933,36.0489436 C7.05914538,36.189973 7.16341297,36.3464514 7.27934025,36.5189321 C7.97731454,37.5584206 8.30126728,37.909276 9.19652767,39.3280171 C10.3503524,41.1566499 10.9205391,42.8119102 11.4062814,44.8355872 C11.8337346,46.6156459 11.7279923,48.4846327 11.062899,50.9211907 C10.6608538,52.3922425 10.5939708,52.4165297 9.19167025,51.5728327 C6.50103166,49.9549372 5.42642027,46.3694119 5.84976335,40.4231791 C5.99436509,38.3987547 6.11580066,36.2678407 6.12065809,35.6875655 C6.12723911,34.8282717 6.09518315,34.7414548 6.79141354,35.7873195 Z M117.878748,35.6875655 C117.883605,36.2678407 118.005041,38.3987547 118.149642,40.4231791 C118.573359,46.3694119 117.498748,49.9549372 114.807362,51.5728327 C113.405808,52.4165297 113.338926,52.3926162 112.93688,50.9211907 C112.271413,48.4846327 112.166045,46.6156459 112.593124,44.8355872 C113.078867,42.8119102 113.649053,41.1570236 114.802878,39.3280171 C115.698138,37.909276 116.022091,37.5580469 116.720065,36.5189321 C116.758708,36.4614385 116.796055,36.405723 116.83215,36.351765 L117.124382,35.9130434 C117.906746,34.7359193 117.871913,34.795222 117.878748,35.6875655 Z M14.5505286,21.8368112 L15.6901547,25.2463483 C16.5884042,27.9325031 16.8294072,29.1958067 16.8257133,31.2026696 C16.8211869,33.997556 15.909486,36.9071523 14.549034,38.4667586 L13.7983753,39.3280171 L13.1075003,38.1741923 C10.9246492,34.5262678 11.0090937,32.1536036 13.5902534,24.6346867 L14.5505286,21.8368112 Z M109.449624,21.8368112 L110.4099,24.6346867 C112.991059,32.1536036 113.075504,34.5258941 110.892653,38.1741923 L110.201404,39.3280171 L109.451119,38.4667586 C108.090667,36.9075259 107.178966,33.997556 107.17444,31.2026696 C107.170746,29.1958067 107.411749,27.9325031 108.309998,25.2463483 L109.449624,21.8368112 Z M25.6613228,12.7444629 L25.8970946,14.9149837 C26.4138497,19.6748844 25.2308804,23.6329367 22.489052,26.3149813 C21.507479,27.2745092 20.5516876,28.0606644 20.3652373,28.0606644 C20.1780397,28.0606644 19.8854734,27.424342 19.7150899,26.6471543 C19.2043133,24.3286691 19.5043525,21.5393874 20.4676168,19.6330358 C20.9436443,18.6906958 22.3067118,16.7555732 23.4967804,15.3323484 L25.6613228,12.7444629 Z M98.3380829,12.7448366 L100.502625,15.332722 C101.69232,16.7559469 103.055761,18.6914431 103.531789,19.6334094 C104.495053,21.5393874 104.795092,24.3286691 104.284689,26.6471543 L104.246018,26.8113579 C104.072675,27.5119986 103.807995,28.0606644 103.634168,28.0606644 C103.447718,28.0606644 102.4923,27.2748828 101.510354,26.315355 C98.7685253,23.6333103 97.585556,19.6748844 98.1023111,14.9153573 L98.3380829,12.7448366 Z M38.0376625,7 L37.436463,9.3046603 C36.5905241,12.5479241 35.6403375,14.3134105 33.6861589,16.2705783 C32.3029143,17.6571857 29.8910171,19.2866642 29.2248029,19.2866642 C29.1448422,19.2866642 28.9800635,18.8976967 28.8582543,18.4212956 C28.1202997,15.5210406 30.3300534,11.9239321 34.5993544,9.07935061 C34.6678254,9.03371886 34.7367897,8.98794407 34.8060153,8.94217193 L35.2226497,8.66873628 C36.1241108,8.08141149 36.9913315,7.54377447 37.3146537,7.3758898 L38.0376625,7 Z M85.9613696,7 L86.6843783,7.3758898 C87.082687,7.58251709 88.304142,8.34961625 89.3996776,9.07935061 C93.6689786,11.9239321 95.8787324,15.5210406 95.1407778,18.4212956 C95.0193422,18.8976967 94.8549371,19.2866642 94.7749765,19.2866642 C94.1087622,19.2866642 91.696865,17.6571857 90.3136204,16.2705783 C88.3590682,14.3130369 87.4088816,12.5479241 86.5625691,9.3046603 L85.9613696,7 Z" id="certified" fill="#555555" fill-rule="nonzero"></path>
            </g>
        </g>
    </g>
</svg>