<?xml version="1.0" encoding="UTF-8"?>
<svg width="340px" height="100px" viewBox="0 0 340 100" version="1.1" xmlns="http://www.w3.org/2000/svg" xmlns:xlink="http://www.w3.org/1999/xlink">
    <title>5A2F41C1-0707-4170-A11F-E4876A82EAB7</title>
    <g id="Case" stroke="none" stroke-width="1" fill="none" fill-rule="evenodd">
        <g id="Web_GUI-Task-Fix" transform="translate(-24, -1790)">
            <g id="logo_wide_text_en" transform="translate(24, 1790)">
                <rect id="Rectangle" x="0" y="0" width="340" height="100"></rect>
                <g id="Group" transform="translate(0, 20)">
                    <g id="slogan_en" transform="translate(5, 48.5)" fill="#EEEEEE" fill-rule="nonzero">
                        <path d="M2.27125034,6.48113369 C1.8382121,6.48113369 1.42923155,6.40714814 1.04430867,6.25917705 C0.659385796,6.11120596 0.340621539,5.90404644 0.0880159015,5.63769848 C-0.0322724972,5.53707814 -0.0292652873,5.43349838 0.0970375314,5.32695919 C0.20529709,5.2322577 0.307542229,5.23521712 0.403772948,5.33583746 C0.614277646,5.55483467 0.884926543,5.72648113 1.21571964,5.85077685 C1.54651274,5.97507256 1.8983563,6.03722042 2.27125034,6.03722042 C2.78849045,6.03722042 3.19145659,5.93364066 3.48014875,5.72648113 C3.7688409,5.51932161 3.91318698,5.2322577 3.91318698,4.8652894 C3.91318698,4.48056457 3.76282648,4.1727847 3.46210549,3.9419498 C3.16138449,3.71111491 2.69225973,3.54834671 2.05473122,3.45364521 C1.43524597,3.35302487 0.978150052,3.16066246 0.683443475,2.87655796 C0.388736898,2.59245347 0.24138361,2.19589096 0.24138361,1.68687041 C0.24138361,1.16009334 0.412794578,0.75021342 0.755616515,0.457230664 C1.09843845,0.164247908 1.57357763,0.0177565306 2.18103404,0.0177565306 C2.49378388,0.0177565306 2.81856255,0.0769449661 3.15537007,0.195321837 C3.49217759,0.313698708 3.80492742,0.476466906 4.09361958,0.68362643 C4.20789356,0.778327927 4.2199224,0.881907689 4.1297061,0.994365716 C4.0394898,1.11274259 3.93724466,1.1275397 3.82297068,1.03875704 C3.57637947,0.855272893 3.30723417,0.713220648 3.01553481,0.612600307 C2.72383544,0.511979967 2.44566852,0.461669797 2.18103404,0.461669797 C1.71190928,0.461669797 1.34653327,0.569688692 1.08490601,0.785726481 C0.823278739,1.00176427 0.692465105,1.30214558 0.692465105,1.68687041 C0.692465105,2.0656764 0.808242689,2.36309829 1.03979786,2.57913608 C1.27135302,2.79517387 1.63372183,2.94166524 2.12690426,3.01861021 C2.89675001,3.13106824 3.46210549,3.33674805 3.82297068,3.63564965 C4.18383588,3.93455125 4.36426848,4.34443116 4.36426848,4.8652894 C4.36426848,5.3683911 4.18082867,5.76347391 3.81394905,6.05053782 C3.44706944,6.33760173 2.93283653,6.48113369 2.27125034,6.48113369 Z" id="Path"></path>
                        <path d="M19.4053303,6.48113369 C19.3451861,6.48113369 19.29256,6.46041773 19.2474518,6.41898583 C19.2023437,6.37755392 19.1797896,6.32724375 19.1797896,6.26805532 L19.1797896,0.248591429 C19.1797896,0.18348415 19.2023437,0.128734847 19.2474518,0.0843435206 C19.29256,0.039952194 19.3451861,0.0177565306 19.4053303,0.0177565306 C19.471489,0.0177565306 19.5256187,0.039952194 19.5677197,0.0843435206 C19.6098206,0.128734847 19.6308711,0.18348415 19.6308711,0.248591429 L19.6308711,6.26805532 C19.6308711,6.32724375 19.6098206,6.37755392 19.5677197,6.41898583 C19.5256187,6.46041773 19.471489,6.48113369 19.4053303,6.48113369 Z" id="Path"></path>
                        <path d="M34.8523655,6.48113369 C34.7922214,6.48113369 34.7395952,6.46041773 34.694487,6.41898583 C34.6493789,6.37755392 34.6268248,6.32724375 34.6268248,6.26805532 L34.6268248,0.239713164 C34.6268248,0.13317398 34.6839618,0.0591884355 34.7982358,0.0177565306 C34.9064953,-0.0118376871 34.9906972,0.0236753742 35.0508414,0.124295715 L37.207011,3.83541062 L39.3722021,0.124295715 C39.3962598,0.0769449661 39.4338499,0.0443913266 39.4849725,0.026634796 C39.5360951,0.00887826532 39.5827068,0.00591884355 39.6248078,0.0177565306 C39.7390817,0.0591884355 39.7962187,0.13317398 39.7962187,0.239713164 L39.7962187,6.26805532 C39.7962187,6.32724375 39.7736647,6.37755392 39.7285565,6.41898583 C39.6834484,6.46041773 39.627815,6.48113369 39.5616564,6.48113369 C39.5015122,6.48113369 39.4503896,6.46041773 39.4082887,6.41898583 C39.3661877,6.37755392 39.3451372,6.32724375 39.3451372,6.26805532 L39.3451372,1.06539184 L37.4054868,4.38586307 C37.3694003,4.46280804 37.3032417,4.50128052 37.207011,4.50128052 C37.1228091,4.50128052 37.0566505,4.46280804 37.0085351,4.38586307 L35.0779063,1.06539184 L35.0779063,6.26805532 C35.0779063,6.32724375 35.0568558,6.37755392 35.0147549,6.41898583 C34.9726539,6.46041773 34.9185242,6.48113369 34.8523655,6.48113369 Z" id="Path"></path>
                        <path d="M54.8372806,6.49001195 C54.7771364,6.49001195 54.7245102,6.469296 54.6794021,6.42786409 C54.6342939,6.38643219 54.6117399,6.33612202 54.6117399,6.27693358 L54.6117399,0.372887144 C54.6117399,0.313698708 54.6342939,0.261908827 54.6794021,0.2175175 C54.7245102,0.173126174 54.7771364,0.150930511 54.8372806,0.150930511 L56.9934501,0.150930511 C57.3302577,0.150930511 57.6354895,0.232314609 57.9091456,0.395082807 C58.1828017,0.557851004 58.4008244,0.773888794 58.5632138,1.04319618 C58.7256031,1.31250356 58.8067978,1.60992545 58.8067978,1.93546184 C58.8067978,2.26099824 58.7256031,2.55989983 58.5632138,2.83216664 C58.4008244,3.10443344 58.1828017,3.32195094 57.9091456,3.48471914 C57.6354895,3.64748734 57.3302577,3.72887144 56.9934501,3.72887144 L55.0628213,3.72887144 L55.0628213,6.27693358 C55.0628213,6.33612202 55.0417709,6.38643219 54.9996699,6.42786409 C54.957569,6.469296 54.9034392,6.49001195 54.8372806,6.49001195 Z M55.0628213,3.28495817 L56.9934501,3.28495817 C57.2460558,3.28495817 57.4746037,3.22429002 57.679094,3.10295373 C57.8835843,2.98161744 58.0474772,2.81884924 58.1707729,2.61464914 C58.2940685,2.41044904 58.3557163,2.18405327 58.3557163,1.93546184 C58.3557163,1.68687041 58.2940685,1.46195436 58.1707729,1.26071368 C58.0474772,1.059473 57.8835843,0.898184509 57.679094,0.776848216 C57.4746037,0.655511923 57.2460558,0.594843777 56.9934501,0.594843777 L55.0628213,0.594843777 L55.0628213,3.28495817 Z" id="Shape"></path>
                        <path d="M73.5140593,6.36571624 C73.4539151,6.36571624 73.4012889,6.34352057 73.3561808,6.29912925 C73.3110726,6.25473792 73.2885186,6.20294804 73.2885186,6.1437596 L73.2885186,0.248591429 C73.2885186,0.18348415 73.3110726,0.128734847 73.3561808,0.0843435206 C73.4012889,0.039952194 73.4539151,0.0177565306 73.5140593,0.0177565306 C73.5802179,0.0177565306 73.6343477,0.039952194 73.6764487,0.0843435206 C73.7185496,0.128734847 73.7396001,0.18348415 73.7396001,0.248591429 L73.7396001,5.92180297 L76.6806514,5.92180297 C76.74681,5.92180297 76.8009398,5.94251892 76.8430408,5.98395083 C76.8851417,6.02538273 76.9061922,6.07865232 76.9061922,6.1437596 C76.9061922,6.20294804 76.8851417,6.25473792 76.8430408,6.29912925 C76.8009398,6.34352057 76.74681,6.36571624 76.6806514,6.36571624 L73.5140593,6.36571624 Z" id="Path"></path>
                        <path d="M91.7848647,6.48113369 C91.7247205,6.48113369 91.6720943,6.46041773 91.6269862,6.41898583 C91.581878,6.37755392 91.5593239,6.32724375 91.5593239,6.26805532 L91.5593239,0.248591429 C91.5593239,0.18348415 91.581878,0.128734847 91.6269862,0.0843435206 C91.6720943,0.039952194 91.7247205,0.0177565306 91.7848647,0.0177565306 C91.8510233,0.0177565306 91.9051531,0.039952194 91.947254,0.0843435206 C91.989355,0.128734847 92.0104054,0.18348415 92.0104054,0.248591429 L92.0104054,6.26805532 C92.0104054,6.32724375 91.989355,6.37755392 91.947254,6.41898583 C91.9051531,6.46041773 91.8510233,6.48113369 91.7848647,6.48113369 Z" id="Path"></path>
                        <path d="M107.2319,6.48113369 C107.171756,6.48113369 107.11913,6.46041773 107.074021,6.41898583 C107.028913,6.37755392 107.006359,6.32724375 107.006359,6.26805532 L107.006359,0.372887144 C107.006359,0.313698708 107.028913,0.261908827 107.074021,0.2175175 C107.11913,0.173126174 107.171756,0.150930511 107.2319,0.150930511 L110.49773,0.150930511 C110.557874,0.150930511 110.6105,0.173126174 110.655608,0.2175175 C110.700717,0.261908827 110.723271,0.313698708 110.723271,0.372887144 C110.723271,0.432075579 110.700717,0.48386546 110.655608,0.528256787 C110.6105,0.572648113 110.557874,0.594843777 110.49773,0.594843777 L107.457441,0.594843777 L107.457441,2.99197541 C107.463455,2.99197541 107.469469,2.9904957 107.475484,2.98753628 C107.481498,2.98457686 107.487513,2.98309715 107.493527,2.98309715 L109.992519,2.98309715 C110.058677,2.98309715 110.114311,3.0038131 110.159419,3.04524501 C110.204527,3.08667691 110.227081,3.1399465 110.227081,3.20505378 C110.227081,3.26424222 110.204527,3.3160321 110.159419,3.36042342 C110.114311,3.40481475 110.058677,3.42701041 109.992519,3.42701041 L107.457441,3.42701041 L107.457441,6.26805532 C107.457441,6.32724375 107.43639,6.37755392 107.394289,6.41898583 C107.352188,6.46041773 107.298059,6.48113369 107.2319,6.48113369 Z" id="Path"></path>
                        <path d="M127.207793,6.48113369 C127.147649,6.48113369 127.095023,6.46041773 127.049915,6.41898583 C127.004807,6.37755392 126.982253,6.32724375 126.982253,6.26805532 L126.982253,3.70223664 L124.86217,0.364008878 C124.826083,0.310739286 124.815558,0.254510273 124.830594,0.195321837 C124.84563,0.136133402 124.877206,0.0887826532 124.925321,0.0532695919 C124.985465,0.0236753742 125.045609,0.0147971089 125.105754,0.026634796 C125.165898,0.0384724831 125.211006,0.0710261226 125.241078,0.124295715 L127.207793,3.21393205 L129.147444,0.124295715 C129.18353,0.0710261226 129.231646,0.0369927722 129.29179,0.0221956633 C129.351934,0.00739855444 129.409071,0.0177565306 129.463201,0.0532695919 C129.511316,0.0887826532 129.542892,0.136133402 129.557928,0.195321837 C129.572964,0.254510273 129.562439,0.310739286 129.526352,0.364008878 L127.433334,3.70223664 L127.433334,6.26805532 C127.433334,6.32724375 127.412284,6.37755392 127.370183,6.41898583 C127.328082,6.46041773 127.273952,6.48113369 127.207793,6.48113369 Z" id="Path"></path>
                        <path d="M161.918013,6.48113369 C161.857869,6.48113369 161.805243,6.46041773 161.760135,6.41898583 C161.715027,6.37755392 161.692472,6.32724375 161.692472,6.26805532 L161.692472,3.70223664 L159.572389,0.364008878 C159.536303,0.310739286 159.525778,0.254510273 159.540814,0.195321837 C159.55585,0.136133402 159.587425,0.0887826532 159.635541,0.0532695919 C159.695685,0.0236753742 159.755829,0.0147971089 159.815973,0.026634796 C159.876118,0.0384724831 159.921226,0.0710261226 159.951298,0.124295715 L161.918013,3.21393205 L163.857664,0.124295715 C163.89375,0.0710261226 163.941865,0.0369927722 164.00201,0.0221956633 C164.062154,0.00739855444 164.119291,0.0177565306 164.173421,0.0532695919 C164.221536,0.0887826532 164.253112,0.136133402 164.268148,0.195321837 C164.283184,0.254510273 164.272659,0.310739286 164.236572,0.364008878 L162.143554,3.70223664 L162.143554,6.26805532 C162.143554,6.32724375 162.122503,6.37755392 162.080403,6.41898583 C162.038302,6.46041773 161.984172,6.48113369 161.918013,6.48113369 Z" id="Path"></path>
                        <path d="M180.874462,6.48113369 C180.423381,6.48113369 180.03094,6.38939161 179.69714,6.20590746 C179.363339,6.02242331 179.103216,5.76495362 178.916769,5.43349838 C178.730322,5.10204314 178.637098,4.71731831 178.637098,4.27932389 L178.637098,2.21956633 C178.637098,1.77565306 178.730322,1.38944852 178.916769,1.06095271 C179.103216,0.732456889 179.363339,0.476466906 179.69714,0.292982756 C180.03094,0.109498606 180.423381,0.0177565306 180.874462,0.0177565306 C181.325544,0.0177565306 181.717985,0.109498606 182.051785,0.292982756 C182.385585,0.476466906 182.645709,0.732456889 182.832156,1.06095271 C183.018603,1.38944852 183.111827,1.77565306 183.111827,2.21956633 L183.111827,4.27932389 C183.111827,4.71731831 183.018603,5.10204314 182.832156,5.43349838 C182.645709,5.76495362 182.385585,6.02242331 182.051785,6.20590746 C181.717985,6.38939161 181.325544,6.48113369 180.874462,6.48113369 Z M180.874462,6.03722042 C181.235328,6.03722042 181.549581,5.96471459 181.817223,5.81970292 C182.084864,5.67469125 182.292362,5.46901144 182.439715,5.20266348 C182.587069,4.93631552 182.660745,4.62853566 182.660745,4.27932389 L182.660745,2.21956633 C182.660745,1.86443572 182.587069,1.55517614 182.439715,1.2917876 C182.292362,1.02839907 182.084864,0.824198964 181.817223,0.679187297 C181.549581,0.53417563 181.235328,0.461669797 180.874462,0.461669797 C180.513597,0.461669797 180.199344,0.53417563 179.931702,0.679187297 C179.66406,0.824198964 179.456563,1.02839907 179.30921,1.2917876 C179.161856,1.55517614 179.08818,1.86443572 179.08818,2.21956633 L179.08818,4.27932389 C179.08818,4.62853566 179.161856,4.93631552 179.30921,5.20266348 C179.456563,5.46901144 179.66406,5.67469125 179.931702,5.81970292 C180.199344,5.96471459 180.513597,6.03722042 180.874462,6.03722042 Z" id="Shape"></path>
                        <path d="M199.903085,6.48113369 C199.476061,6.48113369 199.101663,6.39383074 198.779892,6.21922486 C198.45812,6.04461897 198.208522,5.80046668 198.031097,5.48676797 C197.853671,5.17306926 197.764958,4.80610096 197.764958,4.38586307 L197.764958,0.257469694 C197.764958,0.192362415 197.787512,0.139092823 197.832621,0.0976609186 C197.877729,0.0562290137 197.930355,0.0355130613 197.990499,0.0355130613 C198.056658,0.0355130613 198.110788,0.0562290137 198.152889,0.0976609186 C198.194989,0.139092823 198.21604,0.192362415 198.21604,0.257469694 L198.21604,4.38586307 C198.21604,4.88304593 198.370911,5.28256787 198.680654,5.58442889 C198.990396,5.88628991 199.397873,6.03722042 199.903085,6.03722042 C200.408296,6.03722042 200.814269,5.88628991 201.121005,5.58442889 C201.42774,5.28256787 201.581108,4.88304593 201.581108,4.38586307 L201.581108,0.257469694 C201.581108,0.192362415 201.603662,0.139092823 201.64877,0.0976609186 C201.693878,0.0562290137 201.746504,0.0355130613 201.806649,0.0355130613 C201.872807,0.0355130613 201.926937,0.0562290137 201.969038,0.0976609186 C202.011139,0.139092823 202.032189,0.192362415 202.032189,0.257469694 L202.032189,4.38586307 C202.032189,4.80610096 201.943477,5.17306926 201.766051,5.48676797 C201.588626,5.80046668 201.340531,6.04461897 201.021767,6.21922486 C200.703003,6.39383074 200.330109,6.48113369 199.903085,6.48113369 Z" id="Path"></path>
                        <path d="M216.992057,6.49001195 C216.931912,6.49001195 216.879286,6.469296 216.834178,6.42786409 C216.78907,6.38643219 216.766516,6.33612202 216.766516,6.27693358 L216.766516,0.372887144 C216.766516,0.313698708 216.78907,0.261908827 216.834178,0.2175175 C216.879286,0.173126174 216.931912,0.150930511 216.992057,0.150930511 L219.211378,0.150930511 C219.548185,0.150930511 219.853417,0.232314609 220.127073,0.395082807 C220.400729,0.557851004 220.620255,0.773888794 220.785652,1.04319618 C220.951048,1.31250356 221.033747,1.60992545 221.033747,1.93546184 C221.033747,2.21364749 220.972099,2.4740766 220.848803,2.71674919 C220.725508,2.95942177 220.558608,3.16510159 220.348103,3.33378863 C220.137598,3.50247567 219.897021,3.61641341 219.626372,3.67560184 L221.024725,6.1703944 C221.054797,6.22958284 221.060812,6.28729156 221.042768,6.34352057 C221.024725,6.39974959 220.991646,6.4426612 220.94353,6.47225542 C220.883386,6.50184964 220.824746,6.50776848 220.767609,6.49001195 C220.710472,6.47225542 220.666867,6.43674236 220.636795,6.38347277 L219.148226,3.72887144 L217.831068,3.72887144 C217.770924,3.72887144 217.718298,3.70667577 217.67319,3.66228445 C217.628081,3.61789312 217.605527,3.56610324 217.605527,3.5069148 C217.605527,3.44180752 217.628081,3.38853793 217.67319,3.34710603 C217.718298,3.30567412 217.770924,3.28495817 217.831068,3.28495817 L219.211378,3.28495817 C219.463983,3.28495817 219.694035,3.22429002 219.901532,3.10295373 C220.10903,2.98161744 220.274426,2.81884924 220.397722,2.61464914 C220.521017,2.41044904 220.582665,2.18405327 220.582665,1.93546184 C220.582665,1.68687041 220.521017,1.46195436 220.397722,1.26071368 C220.274426,1.059473 220.10903,0.898184509 219.901532,0.776848216 C219.694035,0.655511923 219.463983,0.594843777 219.211378,0.594843777 L217.217597,0.594843777 L217.217597,6.27693358 C217.217597,6.33612202 217.196547,6.38643219 217.154446,6.42786409 C217.112345,6.469296 217.058215,6.49001195 216.992057,6.49001195 Z" id="Path"></path>
                        <path d="M251.801514,6.36571624 C251.74137,6.36571624 251.688744,6.34352057 251.643636,6.29912925 C251.598528,6.25473792 251.575974,6.20294804 251.575974,6.1437596 L251.575974,0.372887144 C251.575974,0.313698708 251.598528,0.261908827 251.643636,0.2175175 C251.688744,0.173126174 251.74137,0.150930511 251.801514,0.150930511 L253.641927,0.150930511 C254.02685,0.150930511 254.375686,0.244152296 254.688436,0.430595868 C255.001186,0.61703944 255.252288,0.864151158 255.441742,1.17193102 C255.631196,1.47971089 255.725923,1.82300381 255.725923,2.2018098 L255.725923,4.30595868 C255.725923,4.68476467 255.631196,5.02953731 255.441742,5.34027659 C255.252288,5.65101588 255.001186,5.89960731 254.688436,6.08605088 C254.375686,6.27249445 254.02685,6.36571624 253.641927,6.36571624 L251.801514,6.36571624 Z M252.027055,5.92180297 L253.641927,5.92180297 C253.942648,5.92180297 254.216304,5.84929714 254.462895,5.70428547 C254.709486,5.5592738 254.906459,5.36395197 255.053812,5.11831996 C255.201165,4.87268795 255.274842,4.60190086 255.274842,4.30595868 L255.274842,2.2018098 C255.274842,1.90586762 255.201165,1.63656024 255.053812,1.39388766 C254.906459,1.15121507 254.709486,0.957372944 254.462895,0.812361277 C254.216304,0.66734961 253.942648,0.594843777 253.641927,0.594843777 L252.027055,0.594843777 L252.027055,5.92180297 Z" id="Shape"></path>
                        <path d="M270.595574,6.36571624 C270.53543,6.36571624 270.482804,6.34352057 270.437696,6.29912925 C270.392588,6.25473792 270.370034,6.20294804 270.370034,6.1437596 L270.370034,0.372887144 C270.370034,0.313698708 270.392588,0.261908827 270.437696,0.2175175 C270.482804,0.173126174 270.53543,0.150930511 270.595574,0.150930511 L273.762166,0.150930511 C273.828325,0.150930511 273.882455,0.173126174 273.924556,0.2175175 C273.966657,0.261908827 273.987707,0.313698708 273.987707,0.372887144 C273.987707,0.432075579 273.966657,0.48386546 273.924556,0.528256787 C273.882455,0.572648113 273.828325,0.594843777 273.762166,0.594843777 L270.821115,0.594843777 L270.821115,2.98309715 L273.265977,2.98309715 C273.326121,2.98309715 273.378747,3.0038131 273.423855,3.04524501 C273.468963,3.08667691 273.491517,3.1399465 273.491517,3.20505378 C273.491517,3.26424222 273.468963,3.3160321 273.423855,3.36042342 C273.378747,3.40481475 273.326121,3.42701041 273.265977,3.42701041 L270.821115,3.42701041 L270.821115,5.92180297 L273.762166,5.92180297 C273.828325,5.92180297 273.882455,5.94251892 273.924556,5.98395083 C273.966657,6.02538273 273.987707,6.07865232 273.987707,6.1437596 C273.987707,6.20294804 273.966657,6.25473792 273.924556,6.29912925 C273.882455,6.34352057 273.828325,6.36571624 273.762166,6.36571624 L270.595574,6.36571624 Z" id="Path"></path>
                        <path d="M288.451385,6.43674236 C288.39124,6.41898583 288.34914,6.38199306 288.325082,6.32576404 C288.301024,6.26953503 288.301024,6.2118263 288.325082,6.15263787 L290.589511,0.142052245 C290.631612,0.0473507484 290.703785,0 290.80603,0 C290.908275,0 290.980448,0.0473507484 291.022549,0.142052245 L293.296,6.15263787 C293.320058,6.2118263 293.318554,6.26953503 293.291489,6.32576404 C293.264424,6.38199306 293.22082,6.41898583 293.160675,6.43674236 C293.106546,6.46041773 293.050912,6.45893802 292.993775,6.43230323 C292.936638,6.40566843 292.896041,6.36275682 292.871983,6.30356838 L290.80603,0.861191736 L289.552024,4.15502817 L291.257112,4.15502817 C291.317256,4.15502817 291.368378,4.17722383 291.410479,4.22161516 C291.45258,4.26600649 291.473631,4.32075579 291.473631,4.38586307 C291.473631,4.44505151 291.45258,4.49536168 291.410479,4.53679358 C291.368378,4.57822549 291.317256,4.59894144 291.257112,4.59894144 L289.380613,4.59894144 L288.740077,6.30356838 C288.716019,6.36275682 288.676925,6.40566843 288.622796,6.43230323 C288.568666,6.45893802 288.511529,6.46041773 288.451385,6.43674236 Z" id="Path"></path>
                        <path d="M308.012283,6.36571624 C307.952139,6.36571624 307.899513,6.34352057 307.854405,6.29912925 C307.809296,6.25473792 307.786742,6.20294804 307.786742,6.1437596 L307.786742,0.248591429 C307.786742,0.18348415 307.809296,0.128734847 307.854405,0.0843435206 C307.899513,0.039952194 307.952139,0.0177565306 308.012283,0.0177565306 C308.078442,0.0177565306 308.132572,0.039952194 308.174672,0.0843435206 C308.216773,0.128734847 308.237824,0.18348415 308.237824,0.248591429 L308.237824,5.92180297 L311.178875,5.92180297 C311.245034,5.92180297 311.299164,5.94251892 311.341265,5.98395083 C311.383365,6.02538273 311.404416,6.07865232 311.404416,6.1437596 C311.404416,6.20294804 311.383365,6.25473792 311.341265,6.29912925 C311.299164,6.34352057 311.245034,6.36571624 311.178875,6.36571624 L308.012283,6.36571624 Z" id="Path"></path>
                        <path d="M327.906982,6.48113369 C327.473944,6.48113369 327.064963,6.40714814 326.68004,6.25917705 C326.295117,6.11120596 325.976353,5.90404644 325.723747,5.63769848 C325.603459,5.53707814 325.606466,5.43349838 325.732769,5.32695919 C325.841029,5.2322577 325.943274,5.23521712 326.039504,5.33583746 C326.250009,5.55483467 326.520658,5.72648113 326.851451,5.85077685 C327.182244,5.97507256 327.534088,6.03722042 327.906982,6.03722042 C328.424222,6.03722042 328.827188,5.93364066 329.11588,5.72648113 C329.404572,5.51932161 329.548919,5.2322577 329.548919,4.8652894 C329.548919,4.48056457 329.398558,4.1727847 329.097837,3.9419498 C328.797116,3.71111491 328.327991,3.54834671 327.690463,3.45364521 C327.070977,3.35302487 326.613882,3.16066246 326.319175,2.87655796 C326.024468,2.59245347 325.877115,2.19589096 325.877115,1.68687041 C325.877115,1.16009334 326.048526,0.75021342 326.391348,0.457230664 C326.73417,0.164247908 327.209309,0.0177565306 327.816766,0.0177565306 C328.129515,0.0177565306 328.454294,0.0769449661 328.791102,0.195321837 C329.127909,0.313698708 329.440659,0.476466906 329.729351,0.68362643 C329.843625,0.778327927 329.855654,0.881907689 329.765438,0.994365716 C329.675221,1.11274259 329.572976,1.1275397 329.458702,1.03875704 C329.212111,0.855272893 328.942966,0.713220648 328.651266,0.612600307 C328.359567,0.511979967 328.0814,0.461669797 327.816766,0.461669797 C327.347641,0.461669797 326.982265,0.569688692 326.720638,0.785726481 C326.45901,1.00176427 326.328197,1.30214558 326.328197,1.68687041 C326.328197,2.0656764 326.443974,2.36309829 326.675529,2.57913608 C326.907085,2.79517387 327.269453,2.94166524 327.762636,3.01861021 C328.532482,3.13106824 329.097837,3.33674805 329.458702,3.63564965 C329.819567,3.93455125 330,4.34443116 330,4.8652894 C330,5.3683911 329.81656,5.76347391 329.449681,6.05053782 C329.082801,6.33760173 328.568568,6.48113369 327.906982,6.48113369 Z" id="Path"></path>
                    </g>
                    <g id="CASEDEEP">
                        <path d="M20.4123744,29.7661169 C11.8802509,29.7661169 6.58830489,25.1221104 6.58830489,16.9999568 C6.58830489,8.87804309 11.8802509,4.2340366 20.4123744,4.2340366 C21.5321752,4.2340366 22.5996801,4.30960156 23.59186,4.44417916 C25.0870867,4.64736493 26.4107928,4.98488842 27.482136,5.40037575 L28.9444979,1.38247892 C27.2163393,0.691119516 23.7065269,0 19.2244453,0 C7.72201916,0 0,6.45876496 0,16.9999568 C0,27.5411487 7.72201916,33.9999136 19.2244453,33.9999136 C23.7065269,33.9999136 27.2163393,33.309034 28.9444979,32.6174347 L27.8645187,28.5995379 C26.0823851,29.2908973 23.2202723,29.7661169 20.4123744,29.7661169" id="C" fill="#00C8C8"></path>
                        <path d="M64.5826839,0.47548351 L56.9146397,0.47548351 L44.2784993,33.524718 L50.7046394,33.524718 L52.4469514,28.5120025 L52.4471913,28.5120025 L66.0361699,28.5120025 L65.5974133,27.2497078 C65.3440908,26.520446 64.8707903,25.8597924 64.1938242,25.3785755 C63.5168581,24.8971188 62.7374595,24.6670654 61.9654975,24.6670654 L53.7840914,24.6670654 L60.7487817,4.63059671 L70.7926842,33.524718 L77.2188243,33.524718 L64.5826839,0.47548351 Z" id="A" fill="#00C8C8"></path>
                        <path d="M113.871356,5.65261878 C112.523181,5.048339 109.934541,4.18545913 106.536757,4.18545913 C101.628873,4.18545913 99.5795032,6.47231867 99.5795032,8.5866982 C99.5795032,11.3909978 101.898748,12.7715576 107.130002,14.5841571 C113.763646,16.9137168 116.94553,19.8046162 116.94553,24.3349155 C116.94553,29.8578744 111.821986,34.0000336 102.545728,34.0000336 C98.6626484,34.0000336 94.563909,33.0939737 92.5682745,32.015194 L93.9704243,27.8303346 C96.1817188,28.9088744 99.5255283,29.7715144 102.923313,29.7715144 C107.830957,29.7715144 110.581521,27.7437347 110.581521,24.7664753 C110.581521,21.9619359 108.478177,20.2361761 103.570533,18.5965365 C97.4221836,16.6116969 93.2694693,13.6346774 93.2694693,9.14731823 C93.2694693,3.92637927 98.5007235,0.00011994438 106.698682,0.00011994438 C110.635496,0.00011994438 113.601721,0.777119636 115.381456,1.51045957 L113.871356,5.65261878 Z" id="S" fill="#00C8C8"></path>
                        <path d="M159.800002,33.524766 L139.377072,33.524766 C138.840921,33.524766 138.30453,33.3201409 137.895519,32.9108906 C137.486269,32.5018803 137.281644,31.9657289 137.281644,31.4293377 L137.281644,2.5709598 C137.281644,2.03456853 137.486269,1.49817727 137.895519,1.08916693 C138.30453,0.680156599 138.840921,0.475531488 139.377072,0.475531488 L158.881708,0.475531488 L158.881708,4.66614822 L143.545859,4.66614822 L143.545859,14.2137208 L157.515781,14.2137208 L157.515781,18.3609177 L143.545859,18.3609177 L143.545859,29.3341492 L159.800002,29.3341492 L159.800002,33.524766 Z" id="E" fill="#00C8C8"></path>
                        <path d="M207.284255,5.18749847 C203.372149,2.05766982 198.146652,0.368613068 190.011544,0.368613068 C186.16157,0.368613068 182.932187,0.517583987 180.200094,0.765868853 L180.200094,33.2796716 C182.047717,33.4475938 184.123715,33.5696971 186.464069,33.6315884 L186.464069,29.9512151 L186.464069,21.3663161 L186.464069,4.09432539 C187.829996,3.8956975 188.956034,3.84628041 191.067295,3.84628041 C202.170066,3.84628041 207.498955,8.69347268 207.498955,17.0228902 C207.498955,24.9488148 202.750357,29.6643081 192.842472,30.1579992 C191.878838,30.2018988 190.881141,30.598435 190.1502,31.3296159 C189.37416,32.105656 188.98602,32.5981477 188.98602,33.615276 L188.98602,33.6155159 L192.077466,33.6155159 C192.329589,33.6155159 194.432454,33.5090053 195.247836,33.4036941 C200.511715,32.8099694 204.284446,31.2578892 207.284255,28.858042 C210.910653,26.002886 213.140419,21.9648385 213.140419,17.0228902 C213.140419,12.1380354 210.910653,8.04265448 207.284255,5.18749847" id="D" fill="#FF9527"></path>
                        <path d="M251.978745,33.524742 L231.555815,33.524742 C231.019664,33.524742 230.483273,33.3201169 230.074263,32.9108667 C229.665012,32.5018563 229.460387,31.9657049 229.460387,31.4293137 L229.460387,2.57093581 C229.460387,2.03454455 229.665012,1.49815328 230.074263,1.08914295 C230.483273,0.680132611 231.019664,0.475507499 231.555815,0.475507499 L251.060451,0.475507499 L251.060451,4.66612424 L235.724602,4.66612424 L235.724602,14.2136969 L249.694524,14.2136969 L249.694524,18.3608937 L235.724602,18.3608937 L235.724602,29.3341252 L251.978745,29.3341252 L251.978745,33.524742 Z" id="E" fill="#FF9527"></path>
                        <path d="M293.537026,33.524742 L273.114096,33.524742 C272.577945,33.524742 272.041554,33.3201169 271.632543,32.9108667 C271.223293,32.5018563 271.018668,31.9657049 271.018668,31.4293137 L271.018668,2.57093581 C271.018668,2.03454455 271.223293,1.49815328 271.632543,1.08914295 C272.041554,0.680132611 272.577945,0.475507499 273.114096,0.475507499 L292.618732,0.475507499 L292.618732,4.66612424 L277.282883,4.66612424 L277.282883,14.2136969 L291.252805,14.2136969 L291.252805,18.3608937 L277.282883,18.3608937 L277.282883,29.3341252 L293.537026,29.3341252 L293.537026,33.524742 Z" id="E" fill="#FF9527"></path>
                        <path d="M325.2075,22.3880503 L322.115813,22.3880503 L322.115813,22.3878104 C322.115813,21.370682 322.503953,20.3537936 323.279993,19.5777535 C324.056033,18.8017133 325.132654,18.3972609 326.150022,18.3972609 C330.026385,18.4406807 333.735545,14.7840564 333.735545,10.8273312 C333.735545,6.80967423 330.781795,4.2771686 325.759723,4.2771686 C323.815425,4.2771686 320.403727,4.44988851 319.594103,4.57942844 L319.594103,33.654186 L313.329887,33.654186 L313.329887,0.994051041 C315.814175,0.64813145 320.61363,0.345871613 324.879811,0.345871613 C329.955618,0.345871613 333.78976,1.20971104 336.274048,2.98128952 C338.595691,4.57942844 340,7.58691381 340,10.6111914 C340,18.2552467 332.977736,22.3880503 325.2075,22.3880503" id="P" fill="#FF9527"></path>
                    </g>
                </g>
            </g>
        </g>
    </g>
</svg>