<?xml version="1.0" encoding="UTF-8"?>
<svg width="180px" height="200px" viewBox="0 0 180 200" version="1.1" xmlns="http://www.w3.org/2000/svg" xmlns:xlink="http://www.w3.org/1999/xlink">
    <title>6FE30790-8DDA-4814-9F91-A32C1652FC1A</title>
    <g id="Case" stroke="none" stroke-width="1" fill="none" fill-rule="evenodd">
        <g id="Web_Certificate_Application_Description" transform="translate(-1487, -179)">
            <g id="case_certificate" transform="translate(1487, 179)">
                <rect id="Rectangle" x="0" y="0" width="180" height="200"></rect>
                <path d="M45.5520356,178.726754 C45.1742105,178.90279 44.7205382,178.992043 44.2042478,178.992043 C43.3667532,178.992043 42.6331516,178.736985 42.0233751,178.127385 C41.4137749,177.517784 41.1047415,176.749611 41.1047415,175.844206 C41.1047415,174.938625 41.4137749,174.170452 42.0233751,173.560852 C42.6331516,172.951251 43.3667532,172.696193 44.2042478,172.696193 C44.7205382,172.696193 45.1742105,172.785622 45.5520356,172.961482 C45.8795899,173.114058 46.2228427,173.348656 46.5745622,173.660511 L47.2372555,172.980179 C46.4082275,172.122753 45.402987,171.688307 44.2464048,171.688307 C43.02791,171.688307 42.0043251,172.084476 41.2042249,172.865703 C40.405183,173.645518 40.000194,174.647231 40.0000176,175.84403 L40.0000176,175.844206 C40.000194,177.041005 40.405183,178.042894 41.2042249,178.822533 C42.0043251,179.60376 43.02791,179.999929 44.2464048,179.999929 C45.402987,179.999929 46.4082275,179.56566 47.2372555,178.708057 L46.5745622,178.027901 C46.2228427,178.33958 45.8795899,178.574178 45.5520356,178.726754 M56.689903,176.306063 L56.689903,175.41865 L52.6456576,175.41865 L52.6456576,172.804919 L57.1485142,172.804919 L57.1485142,171.845187 L51.6012587,171.845187 L51.6012587,179.903339 L57.2935059,179.903339 L57.2935059,178.943607 L52.6456576,178.943607 L52.6456576,176.306063 L56.689903,176.306063 Z M62.7137613,176.155021 L62.7137613,172.756712 L64.7147174,172.756712 C65.5262828,172.756712 66.0829663,172.868366 66.416165,173.098201 C66.7670026,173.339854 66.944979,173.7743 66.944979,174.389368 C66.944979,174.996499 66.7765276,175.449113 66.4443872,175.734686 C66.115951,176.017438 65.5382773,176.155021 64.6785576,176.155021 L62.7137613,176.155021 Z M66.8894165,179.903286 L68.2306779,179.903286 L66.0822607,176.921431 L66.3385539,176.845231 C67.473793,176.506741 68.025714,175.705406 68.025714,174.395365 C68.025714,173.503719 67.7697736,172.851433 67.2654777,172.456498 C66.7468942,172.050804 65.8561301,171.845134 64.6182326,171.845134 L61.6693625,171.845134 L61.6693625,179.903286 L62.7137613,179.903286 L62.7137613,177.066423 L64.873291,177.066423 L66.8894165,179.903286 Z M77.8765771,171.845205 L71.7135479,171.845205 L71.7135479,172.768953 L74.2729513,172.768953 L74.2729513,179.903357 L75.3171738,179.903357 L75.3171738,172.768953 L77.8765771,172.768953 L77.8765771,171.845205 Z M81.9748328,179.903304 L83.0192317,179.903304 L83.0192317,171.845152 L81.9748328,171.845152 L81.9748328,179.903304 Z M92.7010613,175.49097 L88.9587938,175.49097 L88.9587938,172.792748 L93.149442,172.792748 L93.1582614,171.845187 L87.9143949,171.845187 L87.9143949,179.903339 L88.9587938,179.903339 L88.9587938,176.426537 L92.7010613,176.426537 L92.7010613,175.49097 Z M97.3792309,179.903304 L98.4234534,179.903304 L98.4234534,171.845152 L97.3792309,171.845152 L97.3792309,179.903304 Z M108.389375,178.726754 C108.01155,178.90279 107.557878,178.992043 107.041764,178.992043 C106.204269,178.992043 105.470491,178.736985 104.860891,178.127385 C104.251291,177.517784 103.942081,176.749611 103.942081,175.844206 C103.942081,174.938625 104.251291,174.170452 104.860891,173.560852 C105.470491,172.951251 106.204269,172.696193 107.041764,172.696193 C107.557878,172.696193 108.01155,172.785622 108.389375,172.961482 C108.717106,173.114058 109.060182,173.348656 109.412078,173.660511 L110.074595,172.980179 C109.245743,172.122753 108.240326,171.688307 107.083744,171.688307 C105.865249,171.688307 104.841841,172.084476 104.041741,172.865703 C103.242522,173.645518 102.837533,174.647231 102.837533,175.84403 L102.837533,175.844206 C102.837533,177.041005 103.242522,178.042894 104.041741,178.822533 C104.841841,179.60376 105.865249,179.999929 107.083744,179.999929 C108.240326,179.999929 109.245743,179.56566 110.074595,178.708057 L109.412078,178.027901 C109.060182,178.33958 108.717106,178.574178 108.389375,178.726754 M117.494483,172.910153 L119.52666,177.517079 L115.463012,177.517079 L117.494483,172.910153 Z M119.938176,178.452646 L120.575998,179.903445 L121.68178,179.903445 L118.131071,171.845116 L116.857896,171.845116 L113.30701,179.903445 L114.412792,179.903445 L115.050968,178.452646 L119.938176,178.452646 Z M130.209656,171.845205 L124.046627,171.845205 L124.046627,172.768953 L126.60603,172.768953 L126.60603,179.903357 L127.650253,179.903357 L127.650253,172.768953 L130.209656,172.768953 L130.209656,171.845205 Z M139.396591,176.306063 L139.396591,175.41865 L135.352346,175.41865 L135.352346,172.804919 L139.855202,172.804919 L139.855202,171.845187 L134.307947,171.845187 L134.307947,179.903339 L140.000018,179.903339 L140.000018,178.943607 L135.352346,178.943607 L135.352346,176.306063 L139.396591,176.306063 Z M93.8543274,148.725608 C96.0688905,148.725608 99.9341011,149.470145 102.295243,150.351737 C102.455869,150.411774 102.66528,150.496647 102.915709,150.602582 L103.321146,150.776809 C106.071464,151.974306 112.173368,154.902195 114.969494,156.323032 C112.456304,156.261119 107.987138,155.979073 106.212136,155.722251 C102.687709,155.212311 97.960309,153.66926 96.0957016,152.420074 C95.331232,151.907664 94.0564692,150.749847 93.3122843,149.891362 L92.4396882,148.886651 L92.8933605,148.797045 C93.1336023,148.74942 93.4570996,148.725608 93.8543274,148.725608 Z M86.1454962,148.725608 C86.5429004,148.725608 86.8662213,148.74942 87.1064631,148.797045 L87.5601354,148.886651 L86.6877157,149.891715 C85.9433545,150.749847 84.668768,151.907664 83.9044748,152.420074 C82.0395146,153.66926 77.3121149,155.212311 73.7876877,155.722251 C72.7934891,155.866071 70.9545665,156.017802 69.0874042,156.134354 L68.2878432,156.182026 C67.0930496,156.249925 65.934789,156.300743 65.0299773,156.323032 C66.3545299,155.650004 68.4208223,154.638887 70.5212489,153.633698 L71.2216846,153.299326 C74.0207193,151.966492 76.7406629,150.712148 77.7042275,150.351737 C80.0655461,149.470145 83.9309332,148.725608 86.1454962,148.725608 Z M60.4716111,143.956668 C64.0029175,143.956668 67.0996015,144.509824 69.4272299,145.555458 L69.8004688,145.723203 L69.0457006,146.37302 C67.105246,148.0436 63.6342646,149.001921 59.5226386,149.001392 C56.7614463,149.001392 53.8591429,148.569768 51.1286422,147.752734 C49.1107528,147.148426 46.6742925,146.435638 45.4961909,146.103674 L46.3779591,145.956742 C48.0317818,145.682105 51.1984922,145.100021 53.4373969,144.659049 C55.8010086,144.193382 58.1677953,143.956668 60.4716111,143.956668 Z M119.528354,143.956774 C121.831993,143.956774 124.19878,144.193312 126.562921,144.658978 C128.800414,145.099951 131.967477,145.682211 133.6213,145.956672 L134.504127,146.103604 C133.325143,146.435568 130.888154,147.148532 128.871499,147.752664 C126.140469,148.569697 123.237813,149.001498 120.478208,149.001498 C116.366229,149.001498 112.894542,148.043706 110.954088,146.37295 L110.199319,145.723133 L110.572735,145.555387 C112.900363,144.509753 115.997047,143.956774 119.528354,143.956774 Z M115.599008,28.3200895 C118.037761,29.7714176 121.274498,31.8080042 123.387461,33.184367 L123.508464,33.2619781 C141.243842,44.7353725 151.828236,64.1462688 151.828236,85.214339 C151.828236,119.310672 124.091959,147.049948 90.0000353,147.049948 C55.9079356,147.049948 28.1716582,119.310672 28.1716582,85.214339 C28.1716582,64.1462688 38.7564051,44.7353725 56.4905482,33.2619781 L56.6126093,33.184367 C58.7259251,31.8076514 61.9631912,29.7705356 64.4010626,28.3200895 C62.4868899,29.7740634 59.6905962,31.8191167 56.0816787,34.4030381 C47.8039225,39.9183672 41.0316459,47.2446814 36.4996851,55.5866431 C27.1701218,72.3021401 26.3354494,93.3423409 34.3193416,110.49246 C38.0118674,118.633162 43.6467882,126.055256 50.6152093,131.957229 C57.6458957,137.91212 65.9049546,142.203486 74.49439,144.365838 C79.4858439,145.679935 84.6880826,146.345627 89.9562908,146.345627 L90.0437797,146.345627 C95.3123407,146.345627 100.514579,145.679406 105.500742,144.367249 C114.095116,142.203486 122.354175,137.91212 129.384861,131.957229 C136.353282,126.055256 141.988203,118.633162 145.678612,110.49687 C153.664445,93.3423409 152.829772,72.3021401 143.503031,55.591582 C138.968425,47.2446814 132.196148,39.9183672 123.931268,34.4123867 C120.309651,31.8194695 117.512475,29.7740634 115.599008,28.3200895 Z M149.877762,131.138961 C149.147512,131.671656 147.97435,132.500154 146.386673,133.582477 C141.859122,136.669636 140.691251,137.242194 135.970906,138.686467 C134.786631,139.04877 133.269157,139.248266 131.697355,139.248266 C129.77013,139.248266 127.948561,138.953343 126.699375,138.438817 L125.938786,138.125374 L126.960254,137.24043 C127.808509,136.506829 129.728679,135.308443 131.153548,134.623701 C131.412664,134.499346 131.641264,134.386281 131.856635,134.279037 C131.943495,134.236013 132.028259,134.194027 132.112166,134.152737 L132.362552,134.030607 C133.155129,133.6483 133.981991,133.297823 135.904231,132.685539 C138.174886,131.962168 146.643142,131.148662 149.877762,131.138961 Z M30.1223786,131.138926 C33.3564697,131.148627 41.825255,131.962133 44.0955569,132.685504 C46.4223033,133.426161 47.1440868,133.78423 48.142801,134.279001 C48.3585246,134.386246 48.5873011,134.499311 48.84624,134.623665 C50.2714626,135.308407 52.1916325,136.506794 53.0393577,137.240395 L54.0610023,138.125338 L53.3009424,138.438782 C52.0512269,138.953484 50.2296584,139.24823 48.3029621,139.24823 C46.7311603,139.24823 45.2133336,139.048734 44.0290583,138.686432 C39.3085378,137.242159 38.1406666,136.669601 33.6131156,133.582442 C32.0256152,132.500119 30.8524524,131.67162 30.1223786,131.138926 Z M45.9387331,101.911686 C47.4667904,105.940762 49.5368909,109.703667 52.0518442,113.120497 C57.6477831,111.599848 63.3737205,110.559506 69.1347594,109.840544 C68.3752286,107.312185 67.7298215,104.664588 67.2195284,101.911156 L68.1919605,101.911156 C68.7050759,104.645714 69.34184,107.257858 70.086554,109.723069 C70.2574749,109.702785 70.4278666,109.679854 70.5989639,109.659922 C73.8170035,109.280686 77.0489779,109.027039 80.2837745,108.83989 C83.360703,108.67038 86.4425704,108.592593 89.5242614,108.576365 L89.5242614,101.911156 L90.4758797,101.911156 L90.4758797,108.576365 C93.5577471,108.591711 96.6390853,108.671262 99.7170722,108.838126 C102.951516,109.026509 106.18349,109.278569 109.401354,109.658158 C109.572627,109.67809 109.742843,109.701021 109.914116,109.721305 C110.658478,107.256447 111.295418,104.644832 111.808357,101.911156 L112.780613,101.911156 C112.27032,104.664235 111.625618,107.311304 110.865911,109.838781 C116.627479,110.557742 122.352887,111.598084 127.949002,113.119615 C130.463603,109.703137 132.533704,105.940232 134.061408,101.911156 L135.102279,101.911686 C132.730201,108.345472 128.974351,114.245152 123.980781,119.238723 C114.903806,128.315168 102.836334,133.314207 89.9999824,133.314207 C77.1638071,133.314207 65.095982,128.315168 56.0193604,119.238723 C51.0257898,114.245152 47.2695875,108.345472 44.8980384,101.911686 L45.9387331,101.911686 Z M90.4758797,109.525337 L90.4758797,132.343539 C98.5539635,132.01422 105.633157,123.347703 109.691337,110.43374 C109.569099,110.422275 109.446862,110.408517 109.324448,110.397051 C106.112053,110.107068 102.89419,109.872647 99.6719166,109.73771 C96.6090992,109.597304 93.5422249,109.526219 90.4758797,109.525337 Z M89.5242614,109.525337 C86.4579162,109.525337 83.3917475,109.597657 80.3285773,109.736828 C77.1061279,109.871765 73.8884411,110.104951 70.6756931,110.395288 C70.5532792,110.406753 70.4306889,110.420511 70.3082749,110.431976 C74.3668078,123.346821 81.4461776,132.01422 89.5242614,132.343539 L89.5242614,109.525337 Z M69.3427219,110.528638 C63.5513442,111.111779 57.7834261,111.954742 52.0724817,113.147837 C59.602878,123.362343 71.1487682,130.443301 84.3645324,132.026039 C79.9877939,129.989099 75.9842943,125.578494 72.75232,119.115074 C71.4387516,116.487408 70.3022777,113.603449 69.3427219,110.528638 Z M110.657066,110.530402 C109.697511,113.604331 108.56139,116.487938 107.248174,119.115074 C104.0162,125.578494 100.0127,129.989099 95.6357851,132.026039 C108.851726,130.442771 120.397969,123.362343 127.928189,113.146955 C122.216539,111.955624 116.448268,111.113014 110.657066,110.530402 Z M20.5220936,113.681131 C20.7083603,113.749041 20.8812215,113.814481 21.0031062,113.860342 C21.5029924,114.048373 22.2656982,114.232876 23.0732067,114.428844 L23.8393358,114.616321 C24.2189939,114.71144 24.5870823,114.80868 24.9145307,114.908269 C27.9478912,115.829019 32.1027324,117.465203 34.6661928,119.296649 C36.5916543,120.672836 39.6013787,123.983303 40.5212469,125.737491 C40.5873928,125.862903 40.685465,126.050405 40.7614887,126.209331 C40.6459539,126.21674 40.5189539,126.226617 40.3803122,126.237554 C39.9548621,126.271597 39.4253425,126.31393 38.7905187,126.31393 L38.5747856,126.312873 C38.0789874,126.308789 37.2290357,126.285531 36.0079834,126.019537 C34.6683094,125.72779 32.9245285,125.16846 32.2000991,124.799102 C29.7643444,123.557853 25.5793406,119.982097 23.7505402,117.580385 C22.7361275,116.248648 21.3445952,114.56043 20.6485645,113.816598 C20.6164617,113.782202 20.5728936,113.735812 20.5220936,113.681131 Z M159.477624,113.681131 C159.427001,113.735812 159.383256,113.782202 159.350977,113.816951 C158.654946,114.560783 157.263238,116.249178 156.249354,117.580914 C154.420554,119.982097 150.235726,123.557853 147.799971,124.799102 C147.075718,125.16846 145.331761,125.72779 143.992087,126.019537 C142.771035,126.285531 141.921083,126.308789 141.425285,126.312873 L141.209375,126.31393 C140.574728,126.31393 140.045032,126.271597 139.619582,126.237554 C139.48094,126.226617 139.353764,126.216916 139.238582,126.209331 C139.314606,126.050405 139.412501,125.862903 139.478294,125.737491 C140.398692,123.983303 143.408593,120.672836 145.333878,119.296649 C147.897162,117.465203 152.052003,115.829019 155.085363,114.908269 C155.412918,114.80868 155.781048,114.71144 156.160723,114.616321 L156.926864,114.428844 C157.734196,114.232876 158.496902,114.048373 158.996964,113.860342 C159.118849,113.814481 159.291357,113.749041 159.477624,113.681131 Z M165.000115,93.2403352 L163.038493,96.8910569 C162.882593,97.2014336 162.721479,97.5178573 162.557215,97.8366053 L162.225102,98.4760973 L161.903622,99.0862229 C160.828388,101.112941 159.734549,103.037339 159.154056,103.900047 C157.432677,106.456276 154.573765,108.67031 151.693157,109.679784 C150.453672,110.1137 149.54668,110.42097 149.156861,110.42097 L149.135694,110.42097 C149.108707,110.213536 149.196196,109.673257 149.235883,109.429135 C149.768578,106.143362 152.07451,101.640505 156.025093,98.989556 C157.084485,98.278885 157.318377,98.1340697 157.589839,97.966853 C157.90487,97.7721196 158.26241,97.5514571 159.889069,96.4664887 C161.305472,95.522808 163.194598,94.3088994 164.223121,93.7262867 L164.249227,93.7104117 C164.46548,93.5691242 164.733415,93.4010255 165.000115,93.2403352 Z M15.000097,93.2403528 C15.2662679,93.4010432 15.5340263,93.5691418 15.7508083,93.7104293 L15.7763847,93.7263044 C16.8047322,94.3085642 18.6942104,95.5222964 20.1107899,96.4665064 C21.7372722,97.5514747 22.0948126,97.7721373 22.410196,97.9668706 C22.6814822,98.1340873 22.9153739,98.2789026 23.9747658,98.9895737 C27.9253487,101.640523 30.2312812,106.14338 30.7641521,109.429153 C30.8036632,109.673275 30.8913285,110.213378 30.8645174,110.420987 L30.842998,110.420987 C30.4531784,110.420987 29.5458338,110.113718 28.3068779,109.679801 C25.4260939,108.670327 22.5673585,106.456293 20.8459789,103.900594 C20.0548746,102.725138 18.3125047,99.580653 16.9553683,96.8796093 L15.000097,93.2403528 Z M106.96514,74.1942995 C109.527366,74.1942995 111.457766,74.6998301 112.616112,75.1771386 L111.633273,77.8728906 C110.755738,77.4797197 109.071048,76.9180973 106.85966,76.9180973 C103.665609,76.9180973 102.331932,78.4062907 102.331932,79.7824772 C102.331932,81.6075734 103.841116,82.5060986 107.245775,83.6856114 C111.563071,85.2016743 113.634053,87.083215 113.634053,90.031556 C113.634053,93.6260096 110.29942,96.3217616 104.262333,96.3217616 C101.735208,96.3217616 99.0676787,95.7320934 97.768927,95.0300655 L98.6813869,92.306444 C100.120544,93.0082956 102.296654,93.5697415 104.508042,93.5697415 C107.702093,93.5697415 109.492088,92.2501759 109.492088,90.3123672 C109.492088,88.4872709 108.12331,87.3640262 104.929259,86.2970495 C100.927876,85.005177 98.2252451,83.067721 98.2252451,80.1472495 C98.2252451,76.7494695 101.629904,74.1942995 106.96514,74.1942995 Z M50.0356835,74.1942289 C52.9526272,74.1942289 55.2368639,74.6438443 56.3615197,75.0939888 L55.4099014,77.7087783 C54.712636,77.4383741 53.8511524,77.2187699 52.8780147,77.0864782 C52.2324312,76.9988129 51.5376352,76.9496004 50.8087962,76.9496004 C45.2558962,76.9496004 41.8119024,79.9720247 41.8119024,85.2578718 C41.8119024,90.5438953 45.2558962,93.5663196 50.8087962,93.5663196 C52.6361855,93.5663196 54.4988526,93.2569334 55.6587862,92.8071416 L56.3615197,95.4221075 C55.2368639,95.8720757 52.9526272,96.3218675 50.0356835,96.3218675 C42.5497373,96.3218675 37.5242402,92.1183429 37.5242402,85.2578718 C37.5242402,78.3975771 42.5497373,74.1942289 50.0356835,74.1942289 Z M140.926553,74.5035975 L140.926553,77.2309231 L130.945762,77.2309231 L130.945762,83.444576 L140.037553,83.444576 L140.037553,86.1436794 L130.945762,86.1436794 L130.945762,93.285138 L141.524159,93.285138 L141.524159,96.0124636 L128.232724,96.0124636 C127.88365,96.0124636 127.534577,95.87929 127.268406,95.6131191 C127.002235,95.3467718 126.869061,94.9978745 126.869061,94.6488008 L126.869061,75.8672603 C126.869061,75.5181866 127.002235,75.1692893 127.268406,74.902942 C127.534577,74.6367711 127.88365,74.5035975 128.232724,74.5035975 L140.926553,74.5035975 Z M79.5554293,74.5035622 L87.7792104,96.0124284 L83.5970289,96.0124284 L77.0602315,77.2077809 L72.5277416,90.2476853 L77.8522178,90.2476853 C78.3545735,90.2476853 78.8616917,90.3976159 79.3023112,90.7107063 C79.7429308,91.023973 80.0509058,91.4540092 80.2158295,91.9284955 L80.5014032,92.7501151 L71.6574386,92.7501151 L70.5234342,96.0124284 L66.3410762,96.0124284 L74.5650337,74.5035622 L79.5554293,74.5035622 Z M163.840816,74.272087 C163.623681,75.2131219 163.338637,76.716132 163.118327,78.0323462 C161.926643,85.1436423 159.857778,89.1914155 156.200353,91.5661397 C155.033717,92.3239065 154.094798,92.7945122 153.735494,92.9238053 C153.416407,92.2295384 153.454683,89.0201419 154.289885,86.3866551 C155.081695,83.8888115 158.528687,78.6384186 161.103789,76.483475 C161.367314,76.2631652 161.816577,75.9035082 162.292474,75.5219789 C162.743148,75.1610872 163.225219,74.7751482 163.622447,74.4495342 C163.70094,74.3846231 163.773788,74.3258856 163.840816,74.272087 Z M16.1590781,74.2721223 C16.2259295,74.3259209 16.2987782,74.3846584 16.3778004,74.4495695 C16.7746755,74.7748307 17.2563937,75.1609461 17.7070674,75.5220142 C18.1831411,75.9035435 18.6327565,76.2632005 18.8959288,76.4835103 C21.4713835,78.6384538 24.9180232,83.8888468 25.7103623,86.3863376 C26.5448584,89.0200007 26.5833111,92.2295737 26.2645763,92.9238406 C25.9050957,92.7945475 24.9663538,92.3239418 23.799541,91.5665277 C20.1424693,89.1912744 18.0736036,85.1442068 16.88192,78.0323815 C16.6612574,76.7159909 16.3758601,75.212628 16.1590781,74.2721223 Z M21.9536132,56.1260052 C21.9783077,56.1632233 22.0035313,56.2007941 22.0285785,56.2385413 C22.1661619,56.4456219 22.3236772,56.6826887 22.5041231,56.9509762 C22.8329121,57.4406319 23.0967899,57.8096375 23.3522011,58.1666487 L23.5629246,58.4621835 C23.9154452,58.9584733 24.2860335,59.4943282 24.8470973,60.3833284 C26.2707323,62.639872 26.9355422,64.6574086 27.495577,66.9920925 C27.9986383,69.0868874 27.869698,71.3141504 27.0782408,74.2138081 C26.9764644,74.5863415 26.8094241,75.1980583 26.690538,75.3442847 C26.5574623,75.3285077 26.2770279,75.1828714 25.9827693,75.014104 L25.7302766,74.8662707 L25.4985016,74.7270999 C22.3533106,72.8356814 21.124938,68.634097 21.6329382,61.5032217 C21.7833979,59.3932574 21.913573,57.1920999 21.9536132,56.1260052 Z M158.046299,56.126111 C158.086339,57.1920293 158.21669,59.3933632 158.36715,61.5031512 C158.87515,68.6336737 157.646778,72.8357872 154.501234,74.7270293 L154.27087,74.865671 C153.89622,75.0886266 153.480824,75.3239295 153.30955,75.3442142 C153.190488,75.1981641 153.023447,74.5862709 152.921495,74.2137375 C152.130214,71.3142563 152.001274,69.0869933 152.504511,66.9920219 C153.064546,64.6575144 153.729356,62.6398015 155.152815,60.3834343 C155.826444,59.3157521 156.225965,58.7573047 156.648769,58.1658726 C156.903475,57.8092142 157.167353,57.4402086 157.495789,56.9510821 C157.676411,56.6827945 157.833397,56.4460805 157.970804,56.2389999 C157.99638,56.2010763 158.021428,56.1631527 158.046299,56.126111 Z M90.0000353,37.2019777 C102.836387,37.2019777 114.903859,42.20084 123.980657,51.2772852 C128.974228,56.2708558 132.730254,62.1707127 135.102332,68.6048518 L134.061461,68.6048518 C132.533756,64.5757758 130.463656,60.8128707 127.948526,57.3963936 C122.35294,58.9170425 116.62665,59.9565025 110.865435,60.6759929 C111.625142,63.2039991 112.270372,65.8514205 112.780666,68.6048518 L111.808233,68.6048518 C111.294942,65.8708233 110.658354,63.2586797 109.913816,60.793468 C109.742543,60.8137527 109.572151,60.8366833 109.400877,60.8566152 C106.183014,61.235675 102.951216,61.4891459 99.7165959,61.6766473 C96.6391382,61.8458043 93.5585056,61.9234155 90.4759326,61.9398196 L90.4759326,68.6053809 L89.5241379,68.6053809 L89.5241379,61.9398196 C86.4435053,61.9242974 83.3609323,61.8452752 80.2834747,61.6780585 C77.0488544,61.4900279 73.8167037,61.2374389 70.598664,60.8578499 C70.4277432,60.8380944 70.2571751,60.8149874 70.0862542,60.7947027 C69.4347837,62.9514542 68.8659625,65.2207006 68.3901892,67.5858984 L68.191097,68.6038942 L67.2194049,68.6048518 C67.6659114,66.1960625 68.2155945,63.8683019 68.8547466,61.6307869 L69.1341067,60.677404 C63.3732443,59.9582664 57.6473068,58.9179245 52.0515444,57.3963936 C49.6941063,60.5996717 47.7271872,64.1072723 46.2315959,67.8530659 L45.938097,68.6038942 L44.8980913,68.6048518 C47.1878629,62.3929202 50.7682763,56.6784013 55.5070813,51.7970803 L56.019237,51.2772852 C65.096035,42.20084 77.16386,37.2019777 90.0000353,37.2019777 Z M90.4759326,38.172646 L90.4759326,60.9906708 C93.5413958,60.9906708 96.6086229,60.9183513 99.6719695,60.7793569 C102.894242,60.6442429 106.111929,60.4112332 109.324501,60.1207206 C109.447268,60.1092553 109.569505,60.0956734 109.692095,60.0842081 C105.633563,47.1697161 98.5538401,38.5017877 90.4759326,38.172646 Z M89.5241379,38.172646 C81.4465833,38.5017877 74.3673899,47.1688342 70.3086806,60.082797 C70.4309182,60.0942622 70.5533321,60.1080206 70.675746,60.1194859 C73.888494,60.4094693 77.1060045,60.643361 80.3282774,60.7784749 C83.391624,60.9188805 86.4567344,60.9894361 89.5241379,60.9906708 L89.5241379,38.172646 Z M95.635838,38.4899696 C100.012753,40.5270854 104.016252,44.9375142 107.247698,51.4009338 C108.561266,54.0285997 109.697916,56.9127351 110.657472,59.9873706 C116.448673,59.4047579 122.217297,58.5617952 127.928241,57.3690533 C120.397492,47.1541939 108.851779,40.0732367 95.635838,38.4899696 Z M84.3642326,38.4899696 C71.1484683,40.0732367 59.6025781,47.1541939 52.0723583,57.3690533 C57.7838318,58.5603841 63.5517499,59.402994 69.3429512,59.9861358 C70.3023306,56.9118532 71.4386281,54.0280705 72.7523729,51.4009338 C75.9843472,44.9375142 79.9873176,40.5270854 84.3642326,38.4899696 Z M148.186616,40.1818393 L148.901697,42.2662273 C152.032953,51.3872989 152.139845,54.1119787 149.535991,58.4633173 L149.029755,59.308573 L148.545567,58.7533007 C146.952599,56.9267933 145.878214,53.4741564 145.872879,50.161925 C145.868865,47.7439856 146.150029,46.2741366 147.240819,43.0121761 L148.186616,40.1818393 Z M31.813384,40.1818393 L32.7593579,43.0121761 C33.8499706,46.2741366 34.1311346,47.7443384 34.1267757,50.161925 C34.1216096,53.4741564 33.0475774,56.9267933 31.4540798,58.7533007 L30.9700686,59.308573 L30.4638323,58.4633173 C27.8601553,54.1119787 27.9668706,51.3872989 31.0981269,42.2662273 L31.813384,40.1818393 Z M134.913384,28.7098384 L136.840433,31.0134779 C138.283471,32.7394436 139.92283,35.0638969 140.49433,36.1950791 C141.621279,38.4255171 141.975644,41.7523887 141.376275,44.4744227 C141.246982,45.0649729 141.078001,45.4962438 140.95788,45.7244911 C140.568061,45.4535577 139.74891,44.769345 138.783534,43.8251351 C135.524219,40.6374343 134.128101,35.9412554 134.74652,30.2442458 L134.913384,28.7098384 Z M45.0864218,28.7098737 L45.2531093,30.2441046 C45.8715289,35.9409379 44.4757633,40.6372932 41.216625,43.8251703 C40.2512484,44.7693803 39.4317454,45.4534166 39.0419259,45.7245264 C38.9221578,45.4962791 38.7530008,45.0650081 38.6237077,44.474458 L38.6021883,44.3763858 C38.032452,41.6734018 38.3919327,38.3990941 39.5056524,36.1951144 C40.0769761,35.0642849 41.7161585,32.7394788 43.1595491,31.0135132 L45.0864218,28.7098737 Z M120.121955,21.4177437 C120.660118,21.7107257 122.053943,22.5880842 123.329235,23.4373969 C128.403592,26.8193019 131.024202,31.0090682 130.168716,34.3717467 C130.095515,34.6585551 130.02002,34.8776302 129.961812,35.0210344 C129.086041,34.7217024 126.647287,33.1058034 125.0582,31.5131877 C122.728102,29.1799149 121.599036,27.0798283 120.584976,23.1909816 L120.121955,21.4177437 Z M59.8778154,21.417726 L59.4149708,23.1909639 C58.4005581,27.0798107 57.2720217,29.1798973 54.9415712,31.5131701 C53.3528361,33.1057857 50.9142591,34.7216847 50.0383117,35.0210167 C49.9801033,34.8776125 49.9042561,34.6585375 49.8312311,34.3717291 C48.9757448,31.0090505 51.5961787,26.8192842 56.6708882,23.4373793 C57.9449455,22.5889485 59.338418,21.7117664 59.8778154,21.417726 Z M78.2720058,20.0000176 C77.7685918,20.7486123 76.4807763,22.2286918 74.2572174,24.1806117 C71.3337473,26.7460123 69.0736759,27.793057 66.4571225,27.793057 C66.2438683,27.793057 66.0230293,27.7860014 65.8009557,27.7718903 C65.6180404,27.760425 65.4908639,27.7498417 65.3887347,27.7374945 L65.2315722,27.7180917 L65.2483292,27.6223125 C65.2774333,27.4531555 65.3386403,27.2249082 65.4003764,27.003011 C66.4241378,23.2924934 68.4638994,21.9427653 74.8895717,20.7233886 C76.2281873,20.469565 77.5657446,20.1818746 78.2720058,20.0000176 Z M101.727553,19.9998942 C102.433462,20.1817512 103.771725,20.4690887 105.110516,20.7234416 C111.535836,21.9428182 113.575598,23.2925463 114.599712,27.0037694 C114.661448,27.2254903 114.722302,27.4532084 114.751583,27.6218362 L114.76834,27.7184974 L114.611177,27.737371 C114.509224,27.7498946 114.382048,27.7604779 114.199309,27.7719432 C113.976882,27.7860543 113.75622,27.7931099 113.542966,27.7931099 C110.926412,27.7931099 108.666341,26.7460652 105.742518,24.1806646 C103.518783,22.2287447 102.231144,20.7484888 101.727553,19.9998942 Z" fill="#EEEEEE"></path>
            </g>
        </g>
    </g>
</svg>