<?xml version="1.0" encoding="UTF-8"?>
<svg width="100px" height="100px" viewBox="0 0 100 100" version="1.1" xmlns="http://www.w3.org/2000/svg" xmlns:xlink="http://www.w3.org/1999/xlink">
    <title>88CE6B9A-3E45-45C7-84C1-DABA48918B97</title>
    <g id="Case" stroke="none" stroke-width="1" fill="none" fill-rule="evenodd">
        <g id="Web_Certificate_Application_Description" transform="translate(-659, -241)" fill="#00BB55" fill-rule="nonzero">
            <path d="M709,241 C736.614237,241 759,263.385763 759,291 C759,318.614237 736.614237,341 709,341 C681.385763,341 659,318.614237 659,291 C659,263.385763 681.385763,241 709,241 Z M709,246 C684.147186,246 664,266.147186 664,291 C664,315.852814 684.147186,336 709,336 C733.852814,336 754,315.852814 754,291 C754,266.147186 733.852814,246 709,246 Z M740.383701,275.004866 L740.819805,275.393398 C742.632954,277.206547 742.762464,280.065774 741.208337,282.028362 L740.819805,282.464466 L705.464466,317.819805 C703.651318,319.632954 700.792091,319.762464 698.829502,318.208337 L698.393398,317.819805 L677.180195,296.606602 C675.227573,294.65398 675.227573,291.488155 677.180195,289.535534 C678.993343,287.722385 681.85257,287.592875 683.815159,289.147002 L684.251263,289.535534 L701.925397,307.209668 L733.748737,275.393398 C735.561886,273.58025 738.421113,273.450739 740.383701,275.004866 Z" id="correct_large"></path>
        </g>
    </g>
</svg>