<?xml version="1.0" encoding="UTF-8"?>
<svg width="96px" height="128px" viewBox="0 0 96 128" version="1.1" xmlns="http://www.w3.org/2000/svg" xmlns:xlink="http://www.w3.org/1999/xlink">
    <title>6D1E9356-C48C-450E-880E-01D09BE69F03</title>
    <defs>
        <filter x="-1.0%" y="-4.2%" width="101.1%" height="111.7%" filterUnits="objectBoundingBox" id="filter-1">
            <feOffset dx="0" dy="2" in="SourceAlpha" result="shadowOffsetOuter1"></feOffset>
            <feGaussianBlur stdDeviation="2" in="shadowOffsetOuter1" result="shadowBlurOuter1"></feGaussianBlur>
            <feColorMatrix values="0 0 0 0 0   0 0 0 0 0   0 0 0 0 0  0 0 0 0.5 0" type="matrix" in="shadowBlurOuter1" result="shadowMatrixOuter1"></feColorMatrix>
            <feMerge>
                <feMergeNode in="shadowMatrixOuter1"></feMergeNode>
                <feMergeNode in="SourceGraphic"></feMergeNode>
            </feMerge>
        </filter>
    </defs>
    <g id="Case" stroke="none" stroke-width="1" fill="none" fill-rule="evenodd">
        <g id="Web_Honors" transform="translate(-221, -347)">
            <g id="medal_large" filter="url(#filter-1)" transform="translate(221, 349)">
                <rect id="Rectangle" x="0" y="0" width="96" height="120"></rect>
                <polygon id="Path" fill="#00C8C8" fill-rule="nonzero" points="36.2320874 40.2 58.6125868 40.2 84.2320874 0 61.851588 0"></polygon>
                <polygon id="Path" fill="#00A9A9" fill-rule="nonzero" points="52.0219723 15.4238502 40.8010358 33.0310376 45.3446466 40.2 58.6125868 40.2 63.1815352 33.0310376"></polygon>
                <g id="Group" transform="translate(6, 30)" fill-rule="nonzero">
                    <path d="M41.4153097,0.70810551 C29.2900919,0.70810551 19.4604338,8.00847203 19.4604338,15.9634681 C19.4604338,20.2451481 22.3090789,24.0897074 26.829598,26.7280538 C24.7458391,24.8083278 24.3685033,22.4625969 24.3685033,19.9263955 C24.3685033,10.0294418 31.5303731,6.48050231 41.4153097,6.48050231 C51.3002463,6.48050231 58.4618158,10.0294418 58.4618158,19.9263955 C58.4618158,22.4622965 58.0841795,24.8083278 56.000721,26.7280538 C60.5212402,24.0897074 63.3698852,20.2451481 63.3698852,15.9634681 C63.3698852,8.00847203 53.540828,0.70810551 41.4153097,0.70810551 Z" id="Path" fill="#FF9527"></path>
                    <circle id="Oval" fill="#FF9527" cx="43.804903" cy="50.7943279" r="39.2056721"></circle>
                    <circle id="Oval" fill="#FFEB0F" cx="39.2056721" cy="50.7943279" r="39.2056721"></circle>
                    <circle id="Oval" fill="#FFCC33" cx="39.2053716" cy="50.7943279" r="25.5482786"></circle>
                    <path d="M17.057021,50.7943279 C17.057021,37.2562038 27.5884756,26.1791744 40.9054858,25.3043322 C40.3433876,25.2673797 39.776783,25.2466502 39.2056721,25.2466502 C25.0955357,25.2466502 13.6570931,36.6850928 13.6570931,50.7943279 C13.6570931,64.9044643 25.0955357,76.3423061 39.2056721,76.3423061 C39.776783,76.3423061 40.3433876,76.3218771 40.9054858,76.2849246 C27.5884756,75.4097819 17.057021,64.3327525 17.057021,50.7943279 Z" id="Path" fill="#FF9527"></path>
                    <polygon id="Path" fill="#FF9527" points="41.9548759 28.4107433 48.7027579 42.0834585 60.7961305 43.6748182 63.7910833 44.2756715 52.8729796 54.918284 55.4503395 69.9453224 52.4556871 69.3444691 41.9548759 62.8504476 28.4597128 69.9453224 25.46476 69.3444691 31.0370726 54.918284 20.1192694 44.2756715 35.2075948 42.0834585 38.9599231 27.80989"></polygon>
                    <polygon id="Path" fill="#FFFFFF" points="38.9599231 27.80989 45.7081055 41.4826053 60.7961305 43.6748182 49.8783272 54.3174308 52.4556871 69.3444691 38.9599231 62.2495944 25.46476 69.3444691 28.0421198 54.3174308 17.1243165 43.6748182 32.212642 41.4826053"></polygon>
                    <path d="M22.1582647,19.21829 C22.1582647,10.0294418 29.3201346,5.7723968 39.2047708,5.7723968 C49.0900078,5.7723968 56.2518777,10.0294418 56.2518777,19.21829 C56.2518777,19.9381121 59.9681548,22.177492 59.9681548,22.177492 C61.2777144,20.3325723 61.1599471,17.4247431 61.1599471,15.2553626 C61.1599471,7.30036652 51.3305894,0 39.2047708,0 C27.0798534,0 17.2504957,7.30066695 17.2504957,15.2553626 C17.2504957,17.4247431 17.1327285,20.3325723 18.442288,22.177492 C18.442288,22.177492 22.1582647,19.9384125 22.1582647,19.21829 Z" id="Path" fill="#FFEB17"></path>
                </g>
                <polygon id="Path" fill="#00EEEE" fill-rule="nonzero" points="57.5172968 40.2 35.0711033 40.2 9.51729678 0 31.9634903 0"></polygon>
            </g>
        </g>
    </g>
</svg>