<?xml version="1.0" encoding="UTF-8"?>
<svg width="26px" height="26px" viewBox="0 0 26 26" version="1.1" xmlns="http://www.w3.org/2000/svg" xmlns:xlink="http://www.w3.org/1999/xlink">
    <title>F5A12CC6-5C07-4110-A114-B5589FEB3E52</title>
    <defs>
        <path d="M13.4642603,20.0428113 L8.05262664,22.8878754 C7.57629924,23.1382955 6.98715397,22.9551615 6.73673384,22.4788341 C6.63701523,22.2891581 6.60260481,22.0718992 6.63882972,21.8606918 L7.67235977,15.8347492 L3.2942562,11.567153 C2.90889924,11.1915228 2.90101414,10.5746208 3.27664434,10.1892638 C3.42622225,10.0358127 3.62221428,9.93594976 3.83427857,9.90513501 L9.8846689,9.02596183 L12.5904857,3.54337813 C12.8286494,3.06080577 13.4129214,2.86267341 13.8954938,3.1008371 C14.0876566,3.19567514 14.2431968,3.35121529 14.3380348,3.54337813 L17.0438516,9.02596183 L23.094242,9.90513501 C23.6267922,9.98251909 23.9957772,10.4769685 23.9183932,11.0095187 C23.8875784,11.221583 23.7877155,11.4175751 23.6342643,11.567153 L19.2561608,15.8347492 L20.2896908,21.8606918 C20.3806613,22.3910902 20.0244346,22.8948091 19.4940362,22.9857795 C19.2828288,23.0220044 19.06557,22.987594 18.8758939,22.8878754 L13.4642603,20.0428113 Z" id="path-1"></path>
        <filter x="-11.9%" y="-12.5%" width="123.9%" height="125.0%" filterUnits="objectBoundingBox" id="filter-2">
            <feGaussianBlur stdDeviation="2" in="SourceAlpha" result="shadowBlurInner1"></feGaussianBlur>
            <feOffset dx="-1" dy="-1" in="shadowBlurInner1" result="shadowOffsetInner1"></feOffset>
            <feComposite in="shadowOffsetInner1" in2="SourceAlpha" operator="arithmetic" k2="-1" k3="1" result="shadowInnerInner1"></feComposite>
            <feColorMatrix values="0 0 0 0 0   0 0 0 0 0   0 0 0 0 0  0 0 0 0.246339598 0" type="matrix" in="shadowInnerInner1"></feColorMatrix>
        </filter>
    </defs>
    <g id="Case" stroke="none" stroke-width="1" fill="none" fill-rule="evenodd">
        <g id="Web_Ratings" transform="translate(-537, -215)">
            <g id="completion_rate" transform="translate(530, 208)">
                <g id="star_ratings" transform="translate(7, 7)">
                    <rect id="Rectangle" x="0" y="0" width="26" height="26"></rect>
                    <g id="Star">
                        <use fill="#FFF200" fill-rule="evenodd" xlink:href="#path-1"></use>
                        <use fill="black" fill-opacity="1" filter="url(#filter-2)" xlink:href="#path-1"></use>
                        <path stroke="#555555" stroke-width="1" d="M13.31191,3.52534628 C13.7677675,3.59537805 13.8434939,3.67110445 13.8896668,3.76466099 L16.7118189,9.48296572 L23.0223428,10.3999385 C23.1519817,10.4187762 23.2617122,10.488377 23.3343236,10.5856781 C23.406935,10.6829792 23.4424273,10.8079807 23.4235897,10.9376196 C23.4085872,11.0408654 23.3599678,11.1362862 23.2852585,11.2091098 L18.7189205,15.6601893 L19.7968867,21.9452144 C19.8190316,22.0743294 19.7867459,22.2001972 19.7166452,22.2993224 C19.6465445,22.3984477 19.5386287,22.4708304 19.4095137,22.4929754 C19.3066851,22.5106119 19.2009103,22.4938588 19.1085645,22.4453097 L13.4642603,19.4779234 L7.81995607,22.4453097 C7.70400352,22.5062696 7.57431932,22.5144593 7.4583833,22.4784209 C7.34244727,22.4423826 7.24025941,22.3621161 7.17929955,22.2461636 C7.13075047,22.1538177 7.11399739,22.0480429 7.13163388,21.9452144 L8.20960006,15.6601893 L3.64326204,11.2091098 C3.54945446,11.11767 3.50159093,10.9968638 3.50003925,10.8754656 C3.49848756,10.7540674 3.54324772,10.6320773 3.63468752,10.5382697 C3.70751113,10.4635603 3.80293195,10.414941 3.90617773,10.3999385 L10.2167017,9.48296572 L13.0388538,3.76466099 C13.09683,3.64718822 13.1969329,3.56433612 13.31191,3.52534628 Z" stroke-linejoin="square"></path>
                    </g>
                </g>
            </g>
        </g>
    </g>
</svg>