<?xml version="1.0" encoding="UTF-8"?>
<svg width="100px" height="100px" viewBox="0 0 100 100" version="1.1" xmlns="http://www.w3.org/2000/svg" xmlns:xlink="http://www.w3.org/1999/xlink">
    <title>DD044CDF-5DD1-45DE-A3B6-53AE3E21610C</title>
    <g id="Case" stroke="none" stroke-width="1" fill="none" fill-rule="evenodd">
        <g id="Web_Certificate_Application_Description" transform="translate(-263, -241)" fill="#00C8C8" fill-rule="nonzero">
            <path d="M313,241 C340.614237,241 363,263.385763 363,291 C363,318.614237 340.614237,341 313,341 C285.385763,341 263,318.614237 263,291 C263,263.385763 285.385763,241 313,241 Z M313,246 C288.147186,246 268,266.147186 268,291 C268,315.852814 288.147186,336 313,336 C337.852814,336 358,315.852814 358,291 C358,266.147186 337.852814,246 313,246 Z M344.383701,275.004866 L344.819805,275.393398 C346.632954,277.206547 346.762464,280.065774 345.208337,282.028362 L344.819805,282.464466 L309.464466,317.819805 C307.651318,319.632954 304.792091,319.762464 302.829502,318.208337 L302.393398,317.819805 L281.180195,296.606602 C279.227573,294.65398 279.227573,291.488155 281.180195,289.535534 C282.993343,287.722385 285.85257,287.592875 287.815159,289.147002 L288.251263,289.535534 L305.925397,307.209668 L337.748737,275.393398 C339.561886,273.58025 342.421113,273.450739 344.383701,275.004866 Z" id="correct_large"></path>
        </g>
    </g>
</svg>